<?xml version="1.0" standalone="no"?>
<!DOCTYPE svg PUBLIC "-//W3C//DTD SVG 20010904//EN"
 "http://www.w3.org/TR/2001/REC-SVG-20010904/DTD/svg10.dtd">
<svg version="1.0" xmlns="http://www.w3.org/2000/svg"
 width="696.000000pt" height="696.000000pt" viewBox="0 0 696.000000 696.000000"
 preserveAspectRatio="xMidYMid meet">
<metadata>
Created by potrace 1.11, written by Peter Selinger 2001-2013
</metadata>
<g transform="translate(0.000000,696.000000) scale(0.100000,-0.100000)"
fill="#000000" stroke="none">
<path d="M3529 6786 c-2 -3 -29 -7 -59 -10 -30 -3 -66 -8 -80 -10 -14 -3 -74
-12 -135 -21 -60 -9 -123 -19 -140 -21 -16 -3 -43 -7 -60 -9 -16 -3 -118 -18
-225 -34 -107 -17 -217 -33 -245 -37 -27 -3 -59 -8 -70 -10 -10 -2 -37 -6 -60
-10 -22 -3 -44 -9 -49 -14 -4 -4 -10 -41 -12 -82 -1 -40 -6 -134 -9 -208 -4
-74 -8 -158 -9 -185 -2 -52 -10 -75 -26 -75 -15 0 -225 -103 -228 -112 -2 -4
-8 -8 -13 -8 -14 0 -193 -110 -197 -121 -2 -5 -9 -9 -15 -9 -7 0 -52 -31 -101
-69 l-90 -69 -45 22 c-25 13 -64 31 -86 41 -22 10 -85 39 -140 65 -169 80
-213 100 -222 100 -4 -1 -73 -91 -153 -201 -80 -111 -153 -208 -162 -217 -10
-9 -18 -22 -18 -28 0 -7 -4 -14 -8 -16 -4 -1 -42 -50 -84 -108 -43 -58 -83
-112 -90 -120 -8 -8 -25 -32 -38 -52 -14 -21 -28 -38 -32 -38 -5 0 -8 -6 -8
-14 0 -7 -10 -24 -23 -37 -13 -13 -38 -45 -56 -71 l-32 -48 38 -41 c21 -23 49
-54 63 -69 14 -15 59 -64 100 -110 41 -45 94 -103 117 -129 24 -25 43 -52 43
-59 0 -8 -12 -44 -26 -80 -14 -37 -30 -78 -34 -92 -9 -24 -48 -160 -55 -190
-13 -58 -45 -222 -49 -252 -4 -21 -8 -55 -11 -75 -3 -21 -8 -43 -10 -49 -2 -9
-132 -63 -165 -70 -3 0 -21 -8 -40 -16 -32 -14 -58 -24 -70 -27 -54 -13 -235
-93 -234 -103 0 -7 4 -40 9 -73 4 -33 9 -67 10 -75 5 -32 16 -108 25 -160 5
-30 11 -73 14 -95 3 -22 8 -51 10 -65 3 -14 7 -46 10 -72 3 -26 7 -51 9 -55 3
-5 8 -35 11 -68 8 -70 11 -88 25 -175 5 -36 13 -83 16 -105 3 -23 7 -50 9 -60
2 -11 7 -45 12 -75 4 -30 9 -58 10 -62 1 -5 2 -13 3 -18 0 -6 13 -10 29 -9 15
0 81 -2 147 -6 205 -11 309 -16 336 -15 24 0 33 -13 99 -147 40 -81 90 -174
111 -206 22 -32 39 -60 39 -62 0 -5 82 -127 90 -135 3 -3 24 -30 48 -62 l43
-56 -32 -69 c-18 -37 -33 -70 -34 -73 -1 -3 -9 -22 -18 -44 -9 -21 -17 -42
-17 -46 0 -5 -3 -10 -8 -12 -4 -2 -29 -52 -56 -113 -27 -60 -52 -115 -57 -121
-8 -9 80 -79 299 -238 24 -17 60 -44 81 -61 21 -16 49 -37 61 -45 20 -13 118
-86 145 -107 45 -36 348 -255 358 -258 7 -3 39 21 72 53 33 31 100 93 149 137
48 44 111 101 139 127 32 29 55 43 62 38 6 -5 72 -29 146 -54 123 -41 163 -52
209 -60 8 -2 35 -9 60 -16 25 -8 48 -13 52 -12 3 1 37 -5 75 -13 37 -8 91 -16
118 -19 68 -6 82 -13 91 -44 9 -33 9 -34 17 -52 4 -8 40 -107 81 -220 80 -223
73 -213 151 -199 22 4 60 10 85 14 52 7 78 11 140 20 25 4 59 9 75 11 17 2 41
6 55 9 35 6 76 13 140 21 72 9 125 17 200 30 14 2 45 7 70 10 25 3 54 8 65 10
11 2 38 7 60 9 22 3 51 7 65 10 14 3 43 8 65 10 70 8 78 11 81 29 2 17 11 186
20 381 2 55 6 109 8 120 3 11 5 23 5 28 1 4 5 7 10 7 14 0 174 78 266 129 88
49 213 131 319 210 50 37 72 48 85 42 9 -5 41 -20 71 -34 30 -13 105 -48 165
-77 61 -28 139 -65 174 -82 35 -16 67 -26 71 -21 4 4 49 64 99 133 51 69 101
136 111 150 10 14 55 75 99 135 44 61 89 121 100 135 43 57 127 170 141 191
18 26 95 129 110 146 5 7 10 15 10 19 0 4 7 12 16 18 17 13 13 18 -168 218
-38 42 -82 92 -98 110 -16 18 -42 48 -59 67 -19 22 -27 38 -22 45 8 10 41 98
45 121 1 6 4 15 7 20 17 29 90 313 104 405 4 25 9 54 11 65 2 11 6 43 10 70 3
28 8 53 12 56 4 3 52 22 107 42 101 36 237 86 310 113 22 9 51 18 64 21 24 6
25 14 6 138 -1 11 -5 40 -9 65 -4 25 -9 56 -11 70 -6 30 -10 60 -25 165 -6 44
-14 94 -16 110 -3 17 -7 46 -10 65 -2 19 -6 46 -9 60 -3 14 -7 43 -10 65 -3
22 -7 51 -9 65 -3 14 -8 48 -11 75 -4 28 -9 59 -10 70 -2 11 -6 38 -10 60 -3
22 -8 58 -12 80 -3 22 -7 50 -9 62 -4 34 -11 40 -51 40 -41 1 -261 12 -358 18
-33 2 -79 4 -102 5 -39 0 -43 3 -59 38 -46 103 -148 298 -163 312 -4 3 -15 22
-26 42 -21 38 -124 189 -135 198 -3 3 -18 21 -33 41 l-27 36 52 109 c29 60 53
111 53 114 3 11 44 98 83 178 22 46 39 89 36 96 -3 7 -17 19 -32 28 -15 9 -36
25 -47 35 -11 10 -40 31 -65 48 -25 16 -47 33 -50 36 -3 3 -39 30 -80 59 -41
30 -77 57 -80 60 -3 3 -21 17 -40 30 -19 13 -37 27 -40 30 -3 3 -21 17 -40 30
-61 42 -353 258 -416 308 -23 17 -46 32 -51 32 -10 0 -23 -11 -154 -131 -46
-43 -103 -94 -127 -114 -23 -21 -61 -56 -83 -77 -39 -38 -41 -39 -77 -27 -20
6 -41 15 -47 20 -5 5 -18 9 -30 9 -12 0 -25 4 -30 8 -10 9 -133 49 -172 56
-10 2 -36 9 -58 14 -22 6 -53 14 -70 17 -16 3 -41 8 -55 11 -14 3 -32 7 -40 9
-14 4 -60 11 -165 24 l-49 6 -39 105 c-21 58 -42 114 -47 125 -5 11 -12 31
-16 45 -3 14 -15 44 -25 67 -10 23 -20 50 -22 60 -1 10 -5 23 -8 28 -4 6 -12
27 -18 48 -10 28 -18 37 -35 37 -13 0 -25 -2 -27 -4z m167 -1851 c27 -5 166
-39 204 -49 133 -37 325 -137 460 -239 83 -63 228 -214 293 -304 117 -164 208
-375 247 -573 33 -166 33 -367 0 -554 -12 -65 -57 -220 -71 -246 -14 -24 -32
-74 -31 -82 1 -5 -2 -8 -8 -8 -5 0 -10 -7 -10 -15 0 -9 -11 -33 -25 -55 -14
-22 -25 -42 -25 -45 0 -12 -84 -131 -133 -190 -83 -98 -171 -181 -292 -273
-29 -22 -165 -101 -186 -107 -13 -4 -26 -11 -29 -14 -9 -12 -216 -88 -264 -97
-36 -7 -119 -23 -151 -30 -46 -10 -339 -13 -387 -4 -24 5 -59 10 -78 13 -101
14 -294 79 -409 140 -245 127 -462 334 -592 563 -101 178 -155 339 -185 549
-14 97 -6 408 11 436 2 3 7 21 10 40 10 60 45 179 65 224 5 11 20 47 35 80 14
33 30 67 35 75 5 8 25 42 44 75 31 54 77 118 131 185 35 42 169 174 205 200
18 14 45 34 59 46 40 31 126 84 139 84 5 0 12 4 14 8 8 21 338 154 338 136 0
-2 11 1 25 6 30 12 61 17 135 26 30 3 57 8 59 10 7 6 330 -3 367 -11z"/>
<path d="M3307 4484 c-3 -3 -20 -8 -39 -10 -64 -10 -73 -12 -133 -32 -65 -22
-170 -76 -192 -98 -8 -7 -22 -19 -32 -26 -37 -26 -89 -108 -96 -149 -11 -65
-7 -1269 4 -1306 42 -143 261 -271 511 -299 73 -8 145 -8 158 0 7 4 12 2 12
-4 0 -6 4 -9 8 -6 4 3 33 7 63 10 138 14 284 63 373 126 65 45 91 72 118 120
33 57 41 95 42 196 l1 80 68 75 c70 77 84 99 141 211 70 139 92 334 51 463
-33 105 -121 173 -229 178 -29 2 -29 3 -32 63 -2 71 -8 93 -36 151 -42 85
-137 155 -283 211 -41 16 -155 41 -155 35 0 -3 -6 -1 -12 4 -13 10 -302 16
-311 7z m841 -727 c35 -95 23 -268 -26 -362 -17 -35 -18 -32 -17 199 0 252 4
269 43 163z"/>
</g>
</svg>
