<?xml version="1.0" encoding="utf-8"?>
<!-- Generator: Adobe Illustrator 16.0.0, SVG Export Plug-In . SVG Version: 6.00 Build 0)  -->
<!DOCTYPE svg PUBLIC "-//W3C//DTD SVG 1.1//EN" "http://www.w3.org/Graphics/SVG/1.1/DTD/svg11.dtd">
<svg version="1.1" xmlns="http://www.w3.org/2000/svg" xmlns:xlink="http://www.w3.org/1999/xlink" x="0px" y="0px"
	 width="4563.682px" height="4533.393px" viewBox="0 0 4563.682 4533.393" enable-background="new 0 0 4563.682 4533.393"
	 xml:space="preserve">
<g id="Layer_2" display="none">
	<linearGradient id="SVGID_1_" gradientUnits="userSpaceOnUse" x1="-985.2031" y1="4940.501" x2="6295.4204" y2="-1168.4517">
		<stop  offset="0" style="stop-color:#59C9E9"/>
		<stop  offset="1" style="stop-color:#AD80B9"/>
	</linearGradient>
	<rect x="-1020.524" y="-466.607" display="inline" fill="url(#SVGID_1_)" width="7000" height="5000"/>
</g>
<g id="Objects">
	<g display="none">
		<path display="inline" opacity="0.05" fill="#FFFFFF" d="M807.999-85.6h-1227.14c-44.995,0-81.809-36.814-81.809-81.809l0,0
			c0-44.995,36.814-81.809,81.809-81.809h1227.14c44.995,0,81.809,36.814,81.809,81.809l0,0
			C889.808-122.414,852.994-85.6,807.999-85.6z"/>
		<path display="inline" opacity="0.2" fill="#FFFFFF" d="M2997.863-85.6H1770.725c-44.995,0-81.81-36.814-81.81-81.809l0,0
			c0-44.995,36.814-81.809,81.81-81.809h1227.139c44.995,0,81.81,36.814,81.81,81.809l0,0
			C3079.673-122.414,3042.858-85.6,2997.863-85.6z"/>
		<path display="inline" opacity="0.2" fill="#FFFFFF" d="M5240.48-85.6h-1227.14c-44.995,0-81.809-36.814-81.809-81.809l0,0
			c0-44.995,36.813-81.809,81.809-81.809h1227.14c44.995,0,81.81,36.814,81.81,81.809l0,0
			C5322.29-122.414,5285.476-85.6,5240.48-85.6z"/>
		<rect x="3484.28" y="-384.22" display="inline" opacity="0.05" fill="#FFFFFF" width="21.135" height="3167.153"/>
		<polygon display="inline" opacity="0.05" fill="#FFFFFF" points="5801.944,140.706 1256.104,140.706 1256.104,-384.22 
			1234.968,-384.22 1234.968,140.706 -842.993,140.706 -842.993,161.841 1234.968,161.841 1234.968,2782.934 1256.104,2782.934 
			1256.104,161.841 5801.944,161.841 		"/>
		<rect x="-139.314" y="353.904" display="inline" opacity="0.1" fill="#FFFFFF" width="349.854" height="349.854"/>
		<rect x="-688.304" y="833.433" display="inline" opacity="0.2" fill="#FFFFFF" width="349.854" height="349.854"/>
		<rect x="-139.314" y="833.433" display="inline" opacity="0.3" fill="#FFFFFF" width="349.854" height="349.854"/>
		<rect x="-675.877" y="1359.319" display="inline" opacity="0.1" fill="#FFFFFF" width="349.854" height="349.854"/>
		<rect x="-139.314" y="1359.319" display="inline" opacity="0.05" fill="#FFFFFF" width="349.854" height="349.854"/>
		<rect x="-675.877" y="1885.205" display="inline" opacity="0.05" fill="#FFFFFF" width="349.854" height="349.854"/>
		<rect x="385.468" y="1359.319" display="inline" opacity="0.05" fill="#FFFFFF" width="349.854" height="349.854"/>
		<rect x="560.395" y="2139.402" display="inline" opacity="0.2" fill="#FFFFFF" width="349.854" height="349.854"/>
		<rect x="385.468" y="833.433" display="inline" opacity="0.1" fill="#FFFFFF" width="349.854" height="349.854"/>
		<rect x="3752.274" y="353.904" display="inline" opacity="0.2" fill="#FFFFFF" width="349.854" height="349.854"/>
		<rect x="3752.274" y="833.433" display="inline" opacity="0.3" fill="#FFFFFF" width="349.854" height="349.854"/>
		<rect x="3752.274" y="1359.319" display="inline" opacity="0.1" fill="#FFFFFF" width="349.854" height="349.854"/>
		<rect x="4277.056" y="1359.319" display="inline" opacity="0.3" fill="#FFFFFF" width="349.855" height="349.854"/>
		<rect x="4277.056" y="833.433" display="inline" opacity="0.1" fill="#FFFFFF" width="349.855" height="349.854"/>
		<rect x="2205.037" y="353.904" display="inline" opacity="0.3" fill="#FFFFFF" width="349.855" height="349.854"/>
		<rect x="1656.047" y="353.904" display="inline" opacity="0.3" fill="#FFFFFF" width="349.854" height="349.854"/>
		<rect x="1656.047" y="833.433" display="inline" opacity="0.2" fill="#FFFFFF" width="349.854" height="349.854"/>
		<rect x="2205.037" y="833.433" display="inline" opacity="0.1" fill="#FFFFFF" width="349.855" height="349.854"/>
		<rect x="1656.047" y="1362.374" display="inline" opacity="0.1" fill="#FFFFFF" width="349.854" height="349.854"/>
		<rect x="5346.911" y="353.904" display="inline" opacity="0.1" fill="#FFFFFF" width="349.854" height="349.854"/>
		<rect x="4797.921" y="353.904" display="inline" opacity="0.3" fill="#FFFFFF" width="349.854" height="349.854"/>
		<rect x="4797.921" y="833.433" display="inline" opacity="0.05" fill="#FFFFFF" width="349.854" height="349.854"/>
		<rect x="2205.037" y="1359.319" display="inline" opacity="0.3" fill="#FFFFFF" width="349.855" height="349.854"/>
		<rect x="2729.818" y="1359.319" display="inline" opacity="0.2" fill="#FFFFFF" width="349.854" height="349.854"/>
		<rect x="2209.367" y="1885.205" display="inline" opacity="0.1" fill="#FFFFFF" width="349.855" height="349.854"/>
	</g>
	<path opacity="0.2" d="M3905.226,3928.105c-743.468,429.241-1948.87,429.239-2692.342-0.004
		c-743.472-429.244-743.476-1125.184-0.009-1554.425s1948.87-429.239,2692.343,0.005
		C4648.688,2802.926,4648.692,3498.865,3905.226,3928.105z"/>
	<polygon fill="#ABBFCF" points="496.128,3080.682 496.128,2895.423 809.329,2834.852 784.376,3002.895 623.572,3130.43 	"/>
	<polygon fill="#ABBFCF" points="4303.674,3082.627 4303.674,2856.842 3927.106,2856.842 3970.776,3212.492 4008.207,3350.985 	"/>
	<path fill="#ABBFCF" d="M3746.075,3857.896c-743.467,429.241-1948.869,429.238-2692.341-0.005s-743.476-1125.183-0.008-1554.424
		s1948.87-429.239,2692.342,0.005C4489.54,2732.716,4489.544,3428.655,3746.075,3857.896z"/>
	<path fill="#CFE0E9" d="M3746.075,3662.867c-743.467,429.242-1948.869,429.239-2692.341-0.004
		c-743.472-429.244-743.476-1125.184-0.008-1554.425s1948.87-429.239,2692.342,0.005
		C4489.54,2537.688,4489.544,3233.627,3746.075,3662.867z"/>
	<g>
		<g>
			<path fill="#51280F" d="M3430.196,2427.22l-3.697,8.198l-3.23,8.398c-1.092,2.795-1.972,5.658-2.975,8.487
				c-0.635,1.849-1.27,3.698-1.882,5.558c-0.335,0.992-0.657,1.983-0.958,2.975c-1.793,5.725-3.631,11.428-5.279,17.197l-2.54,8.633
				c-0.847,2.874-1.626,5.781-2.439,8.666c-0.746,2.674-1.481,5.336-2.228,8.009c-0.268,1.014-0.546,2.027-0.824,3.041
				c-5.235,19.181-10.17,38.428-14.948,57.72v0.012c-0.067,0.278-0.145,0.567-0.212,0.846c-0.356,1.46-0.713,2.908-1.068,4.367
				v0.011c-1.839,7.474-3.654,14.937-5.447,22.422c-0.301,1.226-0.591,2.462-0.881,3.688c-5.992,24.973-11.783,49.989-17.453,75.04
				c-0.379,1.693-0.769,3.387-1.137,5.08c-2.238,9.868-4.443,19.737-6.639,29.617c-3.219,14.524-6.416,29.038-9.567,43.574v0.011
				c-0.368,1.66-0.735,3.319-1.092,4.979v0.011c-6.261,28.827-12.409,57.676-18.468,86.559c-0.312,1.492-0.635,2.996-0.947,4.488
				c-0.078,0.379-0.155,0.747-0.233,1.125c-9.825,46.961-19.481,93.988-28.838,141.038l-10.905-2.262
				c10.281-46.938,20.841-93.765,31.59-140.569c0.156-0.69,0.322-1.393,0.479-2.083c0.356-1.57,0.725-3.152,1.092-4.723
				c5.402-23.514,10.871-47.016,16.418-70.496c0.379-1.615,0.758-3.23,1.147-4.834c4.577-19.382,9.212-38.74,13.901-58.088
				c1.993-8.243,4.01-16.485,6.025-24.717c0.391-1.593,0.791-3.197,1.182-4.79c6.749-27.435,13.645-54.824,20.772-82.158
				c0.356-1.393,0.714-2.773,1.081-4.154v-0.012c1.76-6.75,3.542-13.488,5.346-20.228c0.067-0.301,0.156-0.602,0.234-0.902
				c0.234-0.891,0.479-1.793,0.713-2.685c5.447-20.272,11.039-40.511,16.976-60.638l0.835-2.774c0.579-1.972,1.17-3.942,1.76-5.914
				c0.869-2.874,1.715-5.759,2.606-8.622l2.707-8.587c1.76-5.737,3.72-11.417,5.625-17.109c0.334-1.014,0.679-2.027,1.036-3.04
				c0.635-1.827,1.314-3.632,1.971-5.459c1.048-2.807,1.994-5.658,3.142-8.432l3.387-8.343L3430.196,2427.22z"/>
			<polygon fill="#51280F" points="3325.643,2827.078 3470.165,2809.392 3326.251,2831.492 			"/>
			<polygon fill="#51280F" points="3341.118,2750.782 3456.181,2709.765 3342.69,2754.951 			"/>
			<polygon fill="#51280F" points="3360.196,2671.886 3475.259,2630.869 3361.769,2676.055 			"/>
			<path fill="#51280F" d="M3480.978,2491.879l-52.018,43.296l-41.045,34.151v0.011l-0.824,0.68l-1.75-2.161
				c0.067-0.301,0.156-0.602,0.234-0.902l3.62-2.84v-0.012l37.96-29.862L3480.978,2491.879z"/>
			<path fill="#51280F" d="M3404.968,2503.341c-0.268,1.014-0.546,2.027-0.824,3.041l-0.88-2.751l-11.751-36.78l-5.47-17.087
				l5.893,16.664l12.163,34.429L3404.968,2503.341z"/>
			<polygon fill="#51280F" points="3319.454,2842.944 3206.915,2750.562 3322.229,2839.457 			"/>
			<polygon fill="#51280F" points="3336.961,2767.851 3247.943,2684.198 3339.952,2764.549 			"/>
			<polygon fill="#51280F" points="3358.259,2680.396 3268.71,2597.312 3361.229,2677.075 			"/>
			<path fill="#51280F" d="M3382.468,2591.759c-0.301,1.226-0.591,2.462-0.881,3.688l-0.456,0.301l-2.217-3.498l-31.667-49.867
				l-31.589-49.745l32.335,47.974l32.002,47.473v0.012L3382.468,2591.759z"/>
		</g>
		<path fill="#6FBE44" d="M3552.569,2681.311c0,0-70.285,71.176-162.123,52.764
			C3390.446,2734.074,3425.021,2661.773,3552.569,2681.311z"/>
		<path fill="#6FBE44" d="M3543.804,2772.023c0,0-65.785,70.73-156.063,48.943
			C3387.74,2820.967,3435.569,2765.953,3543.804,2772.023z"/>
		<path fill="#6FBE44" d="M3585.852,2592.046l-0.011,0.011c-1.426,1.236-107.455,92.685-175.088,62.733
			C3410.753,2654.79,3423.886,2583.291,3585.852,2592.046z"/>
		<path fill="#6FBE44" d="M3576.584,2410.32c0,0-69.55,142.017-149.313,124.507
			C3427.271,2534.827,3412.69,2485.705,3576.584,2410.32z"/>
		<path fill="#6FBE44" d="M3348.388,2542.502c0,0-83.686-4.445-116.466-161.889l0.011,0.011
			C3233.348,2381.203,3323.314,2418.807,3348.388,2542.502z"/>
		<path fill="#6FBE44" d="M3301.929,2629.26c0,0-78.896-2.74-141.049-120.909l0.021,0.011
			C3163.019,2508.952,3298.208,2547.592,3301.929,2629.26z"/>
		<path fill="#6FBE44" d="M3273.592,2707.542c0,0-76.5-4.099-130.122-100.069C3143.47,2607.473,3264.714,2624.203,3273.592,2707.542
			z"/>
		<path fill="#6FBE44" d="M3267.098,2798.656c0,0-72.412,7.853-129.442-96.315l0.023,0.011
			C3139.594,2702.774,3262.353,2730.532,3267.098,2798.656z"/>
		<path fill="#6FBE44" d="M3417.959,2458.06c0,0-21.888-69.55,61.284-157.088C3479.243,2300.972,3486.54,2427.907,3417.959,2458.06z
			"/>
		<path fill="#6FBE44" d="M3391.661,2466.926c0,0-47.807-20.829-33.807-160.184
			C3357.854,2306.742,3433.33,2390.081,3391.661,2466.926z"/>
		<path opacity="0.1" d="M3543.804,2772.023c0,0-65.785,70.73-156.063,48.943L3543.804,2772.023z"/>
		<path opacity="0.1" d="M3552.569,2681.311c0,0-70.285,71.176-162.123,52.764L3552.569,2681.311z"/>
		<path opacity="0.1" d="M3585.841,2592.057c-1.426,1.236-107.455,92.685-175.088,62.733L3585.841,2592.057z"/>
		<path opacity="0.1" d="M3576.584,2410.32c0,0-69.55,142.017-149.313,124.507L3576.584,2410.32z"/>
		<path opacity="0.1" d="M3417.959,2458.06l61.284-157.088C3479.243,2300.972,3486.54,2427.907,3417.959,2458.06z"/>
		<path opacity="0.1" d="M3267.098,2798.656c0,0-72.412,7.853-129.442-96.315l0.023,0.011L3267.098,2798.656z"/>
		<path opacity="0.1" d="M3273.592,2707.542c0,0-76.5-4.099-130.122-100.069L3273.592,2707.542z"/>
		<path opacity="0.1" d="M3301.929,2629.26c0,0-78.896-2.74-141.049-120.909l0.021,0.011L3301.929,2629.26z"/>
		<path opacity="0.1" d="M3348.388,2542.502c0,0-83.686-4.445-116.466-161.889l0.011,0.011L3348.388,2542.502z"/>
		<path opacity="0.1" d="M3391.661,2466.926c0,0-47.807-20.829-33.807-160.184L3391.661,2466.926z"/>
	</g>
	<g>
		<path fill="#6FBE44" d="M3445.86,2529.433c-0.236,13.418-27.435,151.543-263.984,241.648c0,0,31.066-53.419,117.415-114.305
			c84.406-59.497,139.704-109.506,145.654-126.239c0.143-0.379,0.253-0.758,0.331-1.104
			C3445.624,2527.98,3445.894,2528.043,3445.86,2529.433z"/>
		<path fill="#6FBE44" d="M3189.438,2788.65c0,0-0.017,0-0.032-0.016c-2.288-1.105-149.538-71.651-178.252-102.481
			c-29.93-32.14-57.019-82.228-80.303-117.793c-11.981-18.296-22.952-32.74-32.803-38.928c-0.553-0.363-1.121-0.694-1.673-0.995
			C2902.136,2531.469,3087.319,2629.656,3189.438,2788.65z"/>
		<path fill="#6FBE44" d="M3483.415,2412.302c0,0-43.078,33.087-51.572,49.078c-16.148,30.435-70.389,66.048-132.315,93.8
			c-38.28,17.143-58.202,31.05-120.493,109.916c0.016-0.032,0.063-0.095,0.095-0.174c2.983-5.825,67.848-130.58,155.821-169.997
			c90.074-40.38,77.65-65.858,98.141-75.787C3453.597,2409.192,3483.415,2412.302,3483.415,2412.302z"/>
		<path fill="#6FBE44" d="M3185.712,2697.251c-36.654-52.804-114.92-93.167-136.674-106.838
			c-21.736-13.671-49.693-47.216-73.293-86.349c-23.615-39.133-106.237-54.666-106.237-54.666
			c77.665-19.874,142.261,21.737,157.794,46.584s45.968,57.776,90.074,90.074C3161.48,2618.369,3185.712,2697.251,3185.712,2697.251
			z"/>
		<path fill="#6FBE44" d="M3475.949,2229.882c-1.862,42.242-41.611,136.042-124.234,175.175
			c-81.328,38.518-162.656,117.982-165.183,120.445c0-0.016,0.032-0.063,0.063-0.095c0.884-1.026,1.769-2.194,2.685-3.489
			c17.885-25.352,44.721-98.36,143.791-147.297C3437.447,2323.049,3475.949,2229.882,3475.949,2229.882z"/>
		<path fill="#6FBE44" d="M2869.002,2294.65c-2.1-0.236-3.22-0.315-3.22-0.315S2866.792,2294.24,2869.002,2294.65z"/>
		<path fill="#6FBE44" d="M3189.438,2554.011c0,0-34.776,18.548-160.589-123.46c-84.312-95.188-129.349-123.902-149.538-132.538
			c-0.048-0.031-0.11-0.047-0.158-0.078c-4.625-1.958-7.925-2.857-10.087-3.284c20.348,2.273,130.517,18.596,186.193,110.264
			c61.438,101.156,111.1,135.363,134.115,149.065C3189.421,2553.995,3189.438,2554.011,3189.438,2554.011z"/>
		<path fill="#6FBE44" d="M3420.524,2181.593c0,0.017-0.016,0.048-0.016,0.063c-0.031,0.062-0.062,0.126-0.094,0.189
			c-2.463,5.588-42.59,95.567-76.893,139.499c-35.124,45.005-146.713,110.769-148.465,111.794
			c0.71-1.31,43.379-77.98,103.729-118.629C3359.198,2273.829,3419.594,2183.014,3420.524,2181.593z"/>
		<path fill="#6FBE44" d="M3198.183,2446.131c-0.031-0.016-0.047-0.016-0.079-0.016c-3.362-0.568-111.747-19.464-190.629-127.092
			c-80.144-109.332-41.011-118.029-106.238-185.119c0,0,0.016,0.016,0.063,0.031c2.463,1.405,81.612,47.311,139.088,172.665
			C3040.388,2306.601,3081.399,2386.24,3198.183,2446.131z"/>
		<path fill="#6FBE44" d="M3312.503,2235.218c-26.426,26.709-96.703,96.498-108.543,108.242v0.017
			c-0.016,0.016-0.047,0.031-0.062,0.047c-1.074,1.074-1.643,1.642-1.643,1.642s0.064-0.505,0.221-1.452
			c1.801-11.744,16.497-92.11,84.896-142.972c72.772-54.13,102.797-141.63,103.729-144.36c0.016-0.016,0.016-0.048,0.016-0.063
			C3392.979,2129.61,3341.407,2206.014,3312.503,2235.218z"/>
		<path fill="#6FBE44" d="M3203.913,2358.188c-0.031,0-0.079-0.016-0.143-0.048c-4.42-1.862-99.056-42.4-143.351-129.143
			c-45.32-88.779-60.854-131.021-86.916-152.159c0,0,0,0,0.016,0c2.589,1.516,85.764,50.782,131.007,161.473
			c0,0,19.211,40.917,99.134,119.64C3203.739,2358.015,3203.834,2358.109,3203.913,2358.188z"/>
		<path fill="#6FBE44" d="M3208.001,2256.575c-7.008-6.124-62.054-55.929-98.645-137.241
			c-39.086-86.869-52.156-116.104-67.658-122.355c0.474,0.095,3.979,0.868,9.535,3.016c0.174,0.062,0.362,0.142,0.536,0.221
			c21.706,8.524,73.009,37.522,100.445,126.57c25.115,81.502,43.032,113.01,51.335,124.439
			C3205.681,2254.16,3207.165,2255.771,3208.001,2256.575z"/>
		<path fill="#6FBE44" d="M3208.696,2257.191v0.016c0-0.016,0-0.016-0.016-0.016
			C3208.696,2257.191,3208.696,2257.191,3208.696,2257.191z"/>
		<path fill="#6FBE44" d="M3307.562,1979.883c0.031,0.079,0.063,0.142,0.095,0.221
			C3307.594,1979.961,3307.562,1979.883,3307.562,1979.883z"/>
		<path fill="#6FBE44" d="M3278.675,2131.458c-61.154,80.728-71.146,94.319-71.432,94.714c0-0.016,0-0.016,0-0.031
			c0.443-1.689,14.84-56.513,50.926-117.052c35.076-58.864,53.088-113.736,49.945-127.596c-0.031-0.127-0.078-0.253-0.109-0.379
			c-0.096-0.378-0.205-0.71-0.348-1.01C3309.614,1984.397,3338.786,2052.118,3278.675,2131.458z"/>
		<path d="M3201.78,2898.971c-1.056-1.588-1.395-2.424-2.004-3.539c-0.604-1.09-0.979-2.068-1.436-3.088l-1.32-3.039
			c-0.395-1.007-0.732-2.004-1.102-3.007c-0.691-2.003-1.506-4.007-2.088-6.008l-1.768-6.003l-0.88-3
			c-0.282-1.001-0.488-2.005-0.735-3.007l-1.426-6.013c-0.449-2.006-1.003-4.005-1.365-6.015l-1.127-6.026l-1.123-6.024
			c-0.379-2.008-0.768-4.015-1.019-6.029l-1.715-12.071l-0.855-6.033l-0.62-6.043l-1.234-12.082l-0.617-6.039l-0.414-6.043
			l-0.805-12.087c-0.251-4.028-0.572-8.055-0.766-12.082l-0.415-12.083l-0.415-12.079c-0.127-4.026-0.326-8.053-0.295-12.076
			l-0.123-24.14c0.063-64.357,4.208-128.49,10.006-192.387c2.703-31.991,6.08-63.803,8.947-95.722
			c2.897-31.899,5.729-63.808,7.984-95.748c0.531-7.986,1.209-15.97,1.619-23.96l1.311-23.972
			c0.57-15.979,1.238-31.989,0.544-47.946c-0.049-4-0.414-7.97-0.739-11.946c-0.227-3.989-0.881-7.926-1.381-11.885
			c-0.59-3.948-1.328-7.874-2.059-11.811c-0.77-3.93-1.526-7.864-2.211-11.818c-2.861-15.802-4.121-31.812-5.088-47.797
			c1.295,15.966,2.883,31.926,6.058,47.615c0.763,3.925,1.6,7.841,2.45,11.757c0.812,3.922,1.636,7.857,2.311,11.817
			c0.587,3.976,1.327,7.938,1.639,11.948c0.41,4.001,0.859,8.002,0.991,12.018c1.026,16.053,0.687,32.108,0.442,48.149
			l-0.818,24.044c-0.248,8.018-0.762,16.015-1.129,24.024c-1.602,32.028-3.779,64.013-6.024,95.989
			c-2.21,31.966-4.942,63.951-6.979,95.871c-4.476,63.832-7.284,127.823-6.035,191.649l0.612,23.918
			c0.051,3.989,0.331,7.962,0.537,11.938l0.655,11.929l0.654,11.925c0.272,3.969,0.671,7.923,0.999,11.884l1.035,11.875l0.528,5.935
			l0.728,5.901l1.451,11.8l0.725,5.897l0.955,5.845l1.903,11.687c0.282,1.958,0.698,3.875,1.103,5.796l1.199,5.765l1.195,5.763
			c0.387,1.926,0.949,3.78,1.414,5.674l1.461,5.65c0.252,0.938,0.467,1.895,0.748,2.814l0.871,2.747l1.736,5.491
			c0.571,1.835,1.32,3.528,1.967,5.299c0.339,0.871,0.659,1.767,1.012,2.617l1.129,2.447c0.377,0.799,0.738,1.688,1.137,2.337
			c0.354,0.641,0.879,1.616,0.944,1.692c2.829,3.333,2.421,8.328-0.912,11.158c-3.333,2.829-8.329,2.421-11.158-0.912
			c-0.192-0.227-0.369-0.461-0.531-0.701L3201.78,2898.971z"/>
		<path fill="#6FBE44" d="M3209.327,2071.33c-10.623,82.669-5.541,120.43-5.02,123.965c0.016,0.095,0.031,0.174,0.047,0.269
			c0,0-30.435-44.105-27.956-146.603c2.146-87.942-11.729-119.183-15.706-126.286c-0.127-0.205-0.238-0.378-0.332-0.552
			c-0.079-0.142-0.158-0.268-0.237-0.379c-0.142-0.252-0.269-0.442-0.362-0.568c-0.031-0.048-0.063-0.095-0.08-0.127
			C3161.797,1923.259,3220.314,1985.913,3209.327,2071.33z"/>
		<path opacity="0.1" d="M3445.86,2529.433c-0.236,13.418-27.435,151.543-263.984,241.648c0,0,232.492-138.473,263.069-240.544
			c0.127-0.363,0.222-0.742,0.331-1.104H3445.86z"/>
		<path opacity="0.1" d="M3189.405,2788.635c-2.288-1.105-149.538-71.651-178.252-102.481
			c-29.93-32.14-57.019-82.228-80.303-117.793C3049.67,2702.303,3187.069,2787.198,3189.405,2788.635z"/>
		<path opacity="0.1" d="M3483.415,2412.302c0,0-43.078,33.087-51.572,49.078c-16.148,30.435-70.389,66.048-132.315,93.8
			c-38.28,17.143-58.202,31.05-120.493,109.916c0.016-0.032,0.063-0.095,0.095-0.174c3.237-5.209,70.231-112.395,134.747-136.484
			c66.111-24.688,106.271-76.197,109.111-79.039C3425.813,2446.557,3452.98,2418.585,3483.415,2412.302z"/>
		<path opacity="0.1" d="M3185.712,2697.251c-36.654-52.804-114.92-93.167-136.674-106.838
			c-21.736-13.671-49.693-47.216-73.293-86.349c-23.615-39.133-106.237-54.666-106.237-54.666s84.169,2.432,101.612,32.045
			c17.443,29.614,70.578,84.77,111.953,103.84C3124.447,2604.352,3178.419,2683.486,3185.712,2697.251z"/>
		<path opacity="0.1" d="M3475.949,2229.882c-1.862,42.242-41.611,136.042-124.234,175.175
			c-81.328,38.518-162.656,117.982-165.183,120.445c0-0.016,0.032-0.063,0.063-0.095c0.315-0.427,1.231-1.626,2.685-3.489
			c14.333-18.422,81.517-101.486,145.686-127.28C3407.281,2365.576,3472.966,2267.516,3475.949,2229.882z"/>
		<path opacity="0.1" d="M3420.415,2181.846c-2.463,5.588-42.59,95.567-76.893,139.499
			c-35.124,45.005-146.713,110.769-148.465,111.794c1.294-1.342,57.444-59.385,92.994-87.974
			C3323.948,2316.309,3395.269,2235.454,3420.415,2181.846z"/>
		<path opacity="0.1" d="M3189.438,2554.011c0,0-34.776,18.548-160.589-123.46c-84.312-95.188-129.349-123.902-149.538-132.538
			c81.597,31.24,112.067,59.714,136.294,93.121c101.727,140.275,171.117,161.804,173.77,162.846
			C3189.421,2553.995,3189.438,2554.011,3189.438,2554.011z"/>
		<path fill="#6FBE44" d="M3202.476,2343.713l1.422-0.189c-1.074,1.074-1.643,1.642-1.643,1.642S3202.319,2344.66,3202.476,2343.713
			z"/>
		<path opacity="0.1" d="M3312.503,2235.218c-26.426,26.709-96.703,96.498-108.543,108.242
			c1.373-2.604,45.811-86.396,92.758-117.272c47.656-31.334,83.159-106.49,94.383-169.807c0.016-0.016,0.016-0.048,0.016-0.063
			C3392.979,2129.61,3341.407,2206.014,3312.503,2235.218z"/>
		<path opacity="0.1" d="M3278.675,2131.458c-61.154,80.728-71.146,94.319-71.432,94.714c0-0.016,0-0.016,0-0.031
			c1.121-2.226,40.002-79.75,72.678-123.098c32.361-42.938,35.502-99.023,28.193-121.55c-0.031-0.127-0.078-0.253-0.109-0.379
			c-0.143-0.426-0.301-0.836-0.442-1.231c0.031,0.079,0.063,0.142,0.095,0.221
			C3309.614,1984.397,3338.786,2052.118,3278.675,2131.458z"/>
		<path opacity="0.1" d="M3209.327,2071.33c-10.623,82.669-5.541,120.43-5.02,123.965c-16.418-89.979-7.34-121.677-2.053-160.557
			c4.814-35.455-34.523-100.745-41.562-112.063c-0.127-0.205-0.238-0.378-0.332-0.552c-0.096-0.142-0.174-0.252-0.237-0.379
			c-0.157-0.237-0.284-0.442-0.362-0.568c-0.031-0.048-0.063-0.095-0.08-0.127
			C3161.797,1923.259,3220.314,1985.913,3209.327,2071.33z"/>
		<path opacity="0.1" d="M3198.104,2446.115c-3.362-0.568-111.747-19.464-190.629-127.092
			c-80.144-109.332-41.011-118.029-106.238-185.119c0,0,0.016,0.016,0.063,0.031c2.179,1.753,65.764,52.993,136.895,193.755
			C3038.194,2327.69,3097.833,2415.112,3198.104,2446.115z"/>
		<path opacity="0.1" d="M3203.771,2358.141c-4.42-1.862-99.056-42.4-143.351-129.143c-45.32-88.779-60.854-131.021-86.916-152.159
			c0,0,0,0,0.016,0c2.21,1.562,66.174,47.373,107.406,147.266c41.975,101.66,122.734,133.847,122.734,133.847L3203.771,2358.141z"/>
		<path opacity="0.1" d="M3208.696,2257.191v0.016c0-0.016,0-0.016-0.016-0.016c0-0.016-0.017-0.016-0.032-0.016
			c-0.015-0.016-0.031-0.032-0.048-0.048c-0.016-0.016-0.016-0.031-0.031-0.031c-0.016-0.016-0.047-0.032-0.078-0.063
			c-0.047-0.047-0.079-0.078-0.143-0.126c-0.047-0.048-0.095-0.095-0.158-0.143c-0.062-0.047-0.125-0.11-0.189-0.189
			c-7.008-6.124-62.054-55.929-98.645-137.241c-39.086-86.869-52.156-116.104-67.658-122.355c-0.016,0-0.031-0.016-0.047-0.016
			c0,0,3.678,0.474,9.582,3.031c0.174,0.062,0.362,0.142,0.536,0.221c15.896,7.056,46.806,28.84,65.89,94.698
			c21.99,75.883,70.025,137.399,85.891,156.312C3206.534,2254.792,3208.38,2256.844,3208.696,2257.191z"/>
	</g>
	
		<ellipse transform="matrix(0.999 -0.0438 0.0438 0.999 -140.3257 147.0073)" opacity="0.05" cx="3284.021" cy="3275.238" rx="307.702" ry="188.763"/>
	<g opacity="0.1">
		<path d="M2845.87,1311.182l-1045.432-603.58c-12.36-7.136-22.381-24.492-22.381-38.764V433.963
			c0-14.272,10.021-20.058,22.381-12.921l1045.432,603.58c12.359,7.137,22.38,24.492,22.38,38.764v234.875
			C2868.25,1312.533,2858.229,1318.318,2845.87,1311.182z"/>
		<path d="M2845.87,2930.238l-1045.432-603.58c-12.36-7.137-22.381-24.492-22.381-38.764V2053.02
			c0-14.272,10.021-20.058,22.381-12.922l1045.432,603.58c12.359,7.137,22.38,24.492,22.38,38.765v234.874
			C2868.25,2931.59,2858.229,2937.374,2845.87,2930.238z"/>
		<path d="M2830.385,1770.557l-382.67-220.934c-20.913-12.074-37.866-41.438-37.866-65.585v-323.089
			c0-24.148,16.953-33.936,37.866-21.861l382.67,220.934c20.912,12.074,37.865,41.437,37.865,65.585v323.09
			C2868.25,1772.843,2851.297,1782.631,2830.385,1770.557z"/>
		<path d="M2006.417,679.645c0,53.554-37.598,75.261-83.978,48.484c-46.379-26.777-83.977-91.898-83.977-145.453
			c0-53.554,37.598-75.261,83.977-48.483C1968.819,560.97,2006.417,626.091,2006.417,679.645z"/>
		<path d="M1947.468,897.858l-160.732-92.799c-5.37-3.1-8.678-8.83-8.678-15.031v-15.161c0-13.361,14.464-21.711,26.034-15.031
			l160.732,92.799c5.37,3.101,8.678,8.83,8.678,15.031v15.161C1973.502,896.188,1959.039,904.539,1947.468,897.858z"/>
		<path d="M2175.206,1029.343l-160.731-92.798c-5.37-3.101-8.678-8.831-8.678-15.031v-15.161c0-13.36,14.463-21.711,26.034-15.031
			l160.732,92.799c5.37,3.1,8.678,8.83,8.678,15.031v15.161C2201.24,1027.673,2186.776,1036.023,2175.206,1029.343z"/>
		<path d="M2858.891,1912.619l-1075.993-621.225c-5.169-2.984-9.36-10.242-9.36-16.211v-33.629c0-5.969,4.19-8.388,9.36-5.403
			l1075.993,621.225c5.169,2.984,9.359,10.242,9.359,16.211v33.629C2868.25,1913.185,2864.06,1915.604,2858.891,1912.619z"/>
		<polygon points="2363.853,1216.519 1775.919,877.075 1775.919,849.453 2363.853,1188.897 		"/>
		<polygon points="2363.853,1273.2 1775.919,933.756 1775.919,906.135 2363.853,1245.579 		"/>
		<polygon points="2363.853,1329.882 1775.919,990.438 1775.919,962.816 2363.853,1302.261 		"/>
		<g>
			<polygon points="2093.984,2019.589 1775.919,1835.954 1775.919,1808.332 2093.984,1991.967 			"/>
			<polygon points="2093.984,2076.271 1775.919,1892.636 1775.919,1865.014 2093.984,2048.648 			"/>
			<polygon points="2093.984,2132.952 1775.919,1949.317 1775.919,1921.695 2093.984,2105.33 			"/>
		</g>
		<g>
			<polygon points="2479.927,2242.413 2161.861,2058.777 2161.861,2031.156 2479.927,2214.791 			"/>
			<polygon points="2479.927,2299.095 2161.861,2115.459 2161.861,2087.838 2479.927,2271.473 			"/>
			<polygon points="2479.927,2355.776 2161.861,2172.141 2161.861,2144.52 2479.927,2328.154 			"/>
		</g>
		<g>
			<polygon points="2866.68,2465.705 2548.614,2282.069 2548.614,2254.448 2866.68,2438.083 			"/>
			<polygon points="2866.68,2522.387 2548.614,2338.752 2548.614,2311.13 2866.68,2494.765 			"/>
			<polygon points="2866.68,2579.068 2548.614,2395.433 2548.614,2367.812 2866.68,2551.446 			"/>
		</g>
		<polygon points="2363.853,1386.563 1775.919,1047.12 1775.919,1019.498 2363.853,1358.942 		"/>
		<polygon points="2363.853,1443.246 1775.919,1103.802 1775.919,1076.18 2363.853,1415.624 		"/>
		<polygon points="2363.853,1499.927 1775.919,1160.483 1775.919,1132.862 2363.853,1472.306 		"/>
		<path d="M2093.984,1735.54c0,101.935-71.564,143.252-159.843,92.284c-88.279-50.968-159.843-174.919-159.843-276.854
			c0-101.935,71.564-143.252,159.843-92.284C2022.42,1509.653,2093.984,1633.605,2093.984,1735.54z"/>
		<path d="M2480.737,1958.832c0,101.936-71.564,143.252-159.843,92.284c-88.279-50.968-159.843-174.92-159.843-276.854
			s71.563-143.252,159.843-92.284C2409.173,1732.945,2480.737,1856.897,2480.737,1958.832z"/>
		<path d="M2867.49,2182.124c0,101.935-71.564,143.252-159.843,92.284c-88.279-50.968-159.844-174.92-159.844-276.854
			s71.564-143.252,159.844-92.284C2795.926,1956.237,2867.49,2080.189,2867.49,2182.124z"/>
	</g>
	<g>
		<path fill="#CCCCCB" d="M3127.409,1011.742v2070.506c0,38.639-27.389,54.451-60.859,35.131l-946.998-546.756l837.181-1546.451
			l151.512-74.515l0.016-0.031C3120.022,969.256,3127.409,991.694,3127.409,1011.742z"/>
		<polygon fill="#DCDBDB" points="1611.847,129.836 1654.685,109.287 1698.987,129.836 1736.657,181.046 1698.987,205.449 
			1622.804,164.73 		"/>
		<polygon fill="#CCCCCB" points="3063.758,3143.219 3110.372,3121.037 3114.937,3046.541 3041.38,3089.229 		"/>
		<g>
			<path fill="#DCDBDB" d="M3108.261,949.626l-0.016,0.031l-151.512,74.515l-837.181,1546.451l-424.23-244.928
				c-33.472-19.318-60.845-66.756-60.845-105.394V149.796c0-38.638,27.373-54.451,60.845-35.131L3066.55,906.348
				C3082.657,915.628,3097.337,931.439,3108.261,949.626z"/>
			<path fill="#232323" d="M3026.231,3136.606l-1371.234-791.683c-33.465-19.321-60.846-66.746-60.846-105.388V169.029
				c0-38.643,27.38-54.45,60.846-35.129l1371.234,791.683c33.465,19.321,60.846,66.746,60.846,105.388v2070.507
				C3087.077,3140.119,3059.696,3155.928,3026.231,3136.606z"/>
			<path fill="#F2F9FC" d="M3015.036,3079.031l-1348.844-778.755c-17.444-10.071-31.717-34.792-31.717-54.936V209.787
				c0-20.143,14.273-28.383,31.717-18.312l1348.844,778.755c17.444,10.072,31.717,34.793,31.717,54.937V3060.72
				C3046.753,3080.863,3032.48,3089.104,3015.036,3079.031z"/>
		</g>
		<path fill="#DCDBDB" d="M3168.789,3144.853"/>
	</g>
	<g>
		<ellipse opacity="0.05" cx="1294.263" cy="2645.865" rx="282.476" ry="184.508"/>
		<g>
			<g>
				<g>
					<path d="M1186.304,2274.083c0,0-88.373,23.155-49.526,133.909c0,0,6.182,114.257,83.51,141.4s7.33-197.548,7.33-197.548
						S1186.304,2294.877,1186.304,2274.083z"/>
					<path fill="#121212" d="M1302.199,1704.939c0,0,142.6,284.372,139.522,300.646c-5.585,29.53-255.417,247.704-255.417,247.704
						s-7.188,94.932,49.958,100.205c0,0,324.05-191.686,357.763-304.132c11.448-38.183-35.16-411.37-35.16-411.37
						s-192.089,96.975-265.69,66.946H1302.199z"/>
					<path d="M1214.732,2520.797c0,0-34.207,93.661,40.722,120.538c0,0,48.867,126.239,153.931,113.208
						s-69.228-176.892-69.228-176.892l-0.814-41.38C1339.342,2536.271,1263.599,2562.334,1214.732,2520.797z"/>
					<path fill="#1E1E1E" d="M1186.304,1704.939c0,0,40.104,377.97,24.901,523.481c0,0-32.32,258.443-10.73,299.707
						c0,0,65.366,91.216,141.209,26.062l58.362-838.314C1400.045,1715.875,1237.405,1774.408,1186.304,1704.939z"/>
					<path fill="#FCD1BA" d="M1052.68,1668.709c0,0-41.661,108.057,42.438,146.96c0,0,87.2,53.92,28.805-135.281
						C1123.922,1680.388,1068.398,1688.522,1052.68,1668.709z"/>
					<path fill="#FCD1BA" d="M1743.333,1407.327c0,0,96.737,76,52.66,141.037c-10.167,15.001-41.006,33.351-68.354-6.427
						c-27.347-39.777-27.399-91.518-27.399-91.518S1719.301,1409.812,1743.333,1407.327z"/>
					<path fill="#0D0D0D" d="M1565.319,1688.688c-144.52,164.708-376.428,65.564-376.428,65.564
						c-18.508-139.49,67.186-265.561,11.723-416.819c-3.243-8.867-6.337-17.719-9.253-26.556
						c-3.452-10.399-6.695-20.739-9.73-31.004c-38.442-129.82-44.84-244.957-44.84-244.957l139.951-79.014l2.887-1.636
						c42.281-17.035,90.38-24.756,131.024-28.074c51.417-4.15,92.062,5.817,92.062,5.817
						C1616.334,1261.127,1565.319,1688.688,1565.319,1688.688z"/>
					<path fill="#F0EFEF" d="M1486.935,1241.801c-0.894,77.758-9.937,138.482-11.146,146.158
						c5.1-40.324-11.777-96.737-37.906-155.936c-49.21-111.668-123.915-235.996-153.725-278.739l-0.169-0.728
						c42.27-17.034,86.021-23.048,126.661-26.36C1475.211,1005.426,1488.249,1138.65,1486.935,1241.801z"/>
					<path fill="#FFFFFF" d="M1421.246,1012.947c0,0,0-57.902-33.753-76.233l-15.684,38.116L1421.246,1012.947z"/>
					<path fill="#0D0D0D" d="M1226.695,1148.431c0,0-1.994,5.772-5.4,15.621c-9.582,27.747-30.291,87.866-48.872,143.017
						c-17.213,51.044-32.582,97.833-35.631,110.703c-6.739,28.341-1.428,229.067-0.209,271.125c0.104,4.999,0.209,7.721,0.209,7.721
						c-51.312,22.346-99.217-7.409-99.217-7.409s-0.044-3.838-0.208-10.771c-0.729-46.477-3.467-231.016,0.208-315.609
						c4.27-97.164,99.217-327.913,99.217-327.913C1243.357,1035.556,1226.695,1148.431,1226.695,1148.431z"/>
					<path fill="#0D0D0D" d="M1768.419,1429.913c0,0-61.564,14.932-67.138,41.009c0,0-1.734-1.42-4.784-4.101
						c-25.498-21.923-144.58-127.966-168.66-214.083c-26.918-96.475-68.978-255.88-68.978-255.88l43.854-64.843
						c0,0,103.46,234.974,137.055,290.914c30.388,50.682,111.248,179.331,126.284,203.147
						C1767.578,1428.546,1768.419,1429.913,1768.419,1429.913z"/>
					<path d="M1475.684,1388.748c0.053-0.262,0.053-0.525,0.105-0.789C1475.736,1388.485,1475.684,1388.748,1475.684,1388.748z"/>
					<path fill="#FCD1BA" d="M1456.879,905.81c0,0-15.424-2.64-29.328-6.432c0,0-0.064-0.016-0.192-0.048
						c-5.647-1.552-11.023-3.28-15.008-5.12c-1.168-0.528-2.208-1.072-3.104-1.632v86.432c0,0-95.248-4.4-109.36-37.92l6.176-97.024
						l-40.576-92.608l51.152-124.368c0,0,44.992,17.632,47.632,17.632c2.64,0,46.752,10.592,46.752,10.592l67.904,20.288
						C1478.927,675.602,1509.807,822.018,1456.879,905.81z"/>
					<path fill="#261C15" d="M1306.937,869.641c0,0-115.545-96.14-51.157-210.803c0,0,12.348-163.175,261.96,3.528
						c0,0-63.505,61.742-187.871,31.753l14.113,112.899c0,0-22.051-63.506-46.748-42.337c-24.697,21.168,20.287,65.27,20.287,65.27
						L1306.937,869.641z"/>
					<polygon fill="#BF2332" points="1393.568,977.739 1409.237,976.277 1419.893,1015.499 1396.527,1022.251 1373.289,1003.61 
											"/>
					<path fill="#FFFFFF" d="M1300.906,924.977c0,0,73.152,50.743,92.662,52.762l-21.625,42.362l-85.088-66.161L1300.906,924.977z"
						/>
					<path fill="#A21D29" d="M1475.789,1387.959c5.1-40.324-11.777-96.737-37.906-155.936l-41.376-209.773l23.396-6.729
						l67.032,226.281C1486.041,1319.56,1476.998,1380.283,1475.789,1387.959z"/>
					<path fill="#FFFFFF" d="M1768.419,1429.913c0,0-61.564,14.932-67.138,41.009c0,0-1.734-1.42-4.784-4.101
						c5.941-11.619,22.87-32.701,69.556-40.746C1767.578,1428.546,1768.419,1429.913,1768.419,1429.913z"/>
					<path fill="#EFB78E" d="M1875.78,1395.983"/>
					<path fill="#FFFFFF" d="M1136.788,1696.624c-51.312,22.345-99.208-7.412-99.208-7.412s-0.052-3.838-0.21-10.778
						c11.935,7.255,51.733,27.76,99.208,10.462C1136.683,1693.891,1136.788,1696.624,1136.788,1696.624z"/>
				</g>
				<path opacity="0.05" d="M1409.247,893.042v11.696c-50.416-17.264-65.776-51.088-66.272-52.208
					C1359.183,871.538,1389.646,885.506,1409.247,893.042z"/>
				<path fill="#FCD1BA" d="M1427.358,899.33c-5.647-1.552-11.023-3.28-15.008-5.12
					C1420.543,897.25,1426.287,898.994,1427.358,899.33z"/>
			</g>
			<path opacity="0.1" fill="#FFFFFF" d="M1272.748,655.278c0,0,59.772-101.29,225.485,5.369c0,0-26.485,21.475-89.478,0
				C1408.755,660.646,1341.825,614.118,1272.748,655.278z"/>
			<path opacity="0.05" fill="#FFFFFF" d="M1221.294,1164.052c-0.03,44.781-20.084,115.017-29.933,146.825
				c-3.452-10.399-6.695-20.739-9.73-31.004C1197.461,1233.173,1213.275,1187.276,1221.294,1164.052z"/>
		</g>
	</g>
	<g>
		<g>
			<path fill="#6FBE44" d="M3029.643,2843.814c0,0-44.077-29.768-71.694-28.34c-27.624,1.443-84.957,24.115-111.236,20.951
				c-33.355-4.016-53.83-5.486-103.453-60.139c2.037,2.036,36.052,34.213,133.344,5.784c99.168-28.97,151.711,59.471,153.015,61.704
				C3029.639,2843.804,3029.643,2843.814,3029.643,2843.814z"/>
			<path fill="#5EA344" d="M3029.617,2843.775c-1.186-1.461-39.501-48.348-97.093-47.497
				c-58.496,0.861-61.686,14.763-101.911,13.347c-35.689-1.257-68.062-12.639-87.354-33.338
				c2.037,2.036,36.052,34.213,133.344,5.784C2975.771,2753.102,3028.313,2841.542,3029.617,2843.775z"/>
		</g>
		<g>
			<path fill="#6FBE44" d="M2999.148,2740.4c-0.312-0.315-2.637-2.568-7.33-5.75c-18.68-12.627-74.859-39.848-191.309-17.504
				c0,0-83.577,14.125-115.316-57.616c0,0,0,0,0.014,0.007c0.806,0.344,29.165,12.266,65.254,9.28
				C2797.109,2664.972,2909.688,2629.042,2999.148,2740.4z"/>
			<path fill="#5EA344" d="M2999.148,2740.4c-2.081-1.689-4.531-3.627-7.33-5.75c-28.229-21.34-91.896-60.912-162.302-44.339
				c-76.829,18.084-143.275-30.016-144.31-30.774c0.806,0.344,29.165,12.266,65.254,9.28
				C2797.109,2664.972,2909.688,2629.042,2999.148,2740.4z"/>
		</g>
		<g>
			<path fill="#6FBE44" d="M2990.713,2636.656c-46.706-60.705-119.218-58.207-186.629-56.613
				c-55.436,1.31-91.719-48.699-92.847-50.264c-0.021-0.027-0.024-0.038-0.024-0.038c35.866,22.179,69.926,15.125,69.926,15.125
				c59.151-10.499,70.552-10.204,93.655-6.129C2965.225,2554.67,2990.713,2636.656,2990.713,2636.656z"/>
			<path fill="#5EA344" d="M2990.713,2636.656c0,0-14.114-25.456-46.39-47.359s-78.832-41.109-141.803-32.008
				c-61.864,8.925-90.305-26.271-91.283-27.51c-0.021-0.027-0.024-0.038-0.024-0.038c35.866,22.179,69.926,15.125,69.926,15.125
				c59.151-10.499,70.552-10.204,93.655-6.129C2965.225,2554.67,2990.713,2636.656,2990.713,2636.656z"/>
		</g>
		<g>
			<path fill="#6FBE44" d="M2972.392,2508.188c-0.31-0.411-1.504-1.963-3.822-4.029c-9.932-8.827-40.448-27.027-109.074-5.011
				c-87.395,28.037-111.096-52.652-111.096-52.652s0.004,0.01,0.021,0.027c1.119,0.966,33.222,28.501,74.239,12.479
				C2864.388,2442.717,2932.047,2444.991,2972.392,2508.188z"/>
			<path fill="#5EA344" d="M2972.442,2508.266c-1.237-1.407-2.521-2.775-3.873-4.106c-29.402-29.157-86.197-42.22-138.153-27.765
				c-53.505,14.881-81.148-28.504-81.995-29.871c1.119,0.966,33.222,28.501,74.239,12.479
				c41.728-16.285,109.387-14.011,149.731,49.187C2972.413,2508.217,2972.431,2508.234,2972.442,2508.266z"/>
		</g>
		<g>
			<path fill="#6FBE44" d="M2895.22,2419.07c-0.028-0.015-0.057-0.028-0.085-0.042c-0.132-0.071-0.323-0.181-0.593-0.312
				c-0.019-0.017-0.032-0.023-0.071-0.033c-3.918-1.812-22.085-7.867-69.14,6.426c-53.441,16.239-82.413-35.91-83.084-37.149
				c-0.015-0.007-0.018-0.018-0.018-0.018s41.004-6.74,64.718,6.812c23.71,13.542,63.569,11.949,70.423,14.289
				C2883.845,2411.245,2894.127,2418.309,2895.22,2419.07z"/>
			<path fill="#5EA344" d="M2895.28,2419.107c-0.057-0.027-0.104-0.059-0.146-0.079c-0.202-0.105-0.395-0.216-0.593-0.312
				c-0.019-0.017-0.032-0.023-0.071-0.033c-21.12-11.275-47.583-6.959-84.014-6.864c-36.332,0.107-67.248-23.135-68.21-23.859
				c-0.015-0.007-0.018-0.018-0.018-0.018s41.004-6.74,64.718,6.812c23.71,13.542,63.569,11.949,70.423,14.289
				c6.475,2.202,16.757,9.266,17.85,10.027C2895.248,2419.083,2895.267,2419.101,2895.28,2419.107z"/>
		</g>
		<g>
			<path fill="#6FBE44" d="M2793.929,2356.762c-77.791-1.847-79.638-57.601-79.638-57.601
				C2758.853,2293.309,2793.929,2356.762,2793.929,2356.762z"/>
			<path fill="#5EA344" d="M2793.929,2356.762c-31.472-11.338-79.638-57.601-79.638-57.601
				C2758.853,2293.309,2793.929,2356.762,2793.929,2356.762z"/>
		</g>
		<g>
			<path fill="#6FBE44" d="M2794.486,2356.772c45.731-62.956,2.534-98.253,2.534-98.253
				C2765.33,2290.392,2794.486,2356.772,2794.486,2356.772z"/>
			<path fill="#5EA344" d="M2794.486,2356.772c10.083-31.895,2.534-98.253,2.534-98.253
				C2765.33,2290.392,2794.486,2356.772,2794.486,2356.772z"/>
		</g>
		<g>
			<path fill="#6FBE44" d="M3189.64,2578.065c0.026,0.108,0.105,0.47,0.199,1.075l0.025,0.203
				c1.565,10.417,7.686,81.104-99.815,147.348c0,0-40.984,24.559-72.474,78.967c-0.46,0.811-26.175-87.706,73.635-151.477
				C3187.907,2592.402,3189.62,2578.852,3189.64,2578.065z"/>
			<path fill="#5EA344" d="M3189.864,2579.344c1.565,10.417,7.686,81.104-99.815,147.348c0,0-40.984,24.559-72.474,78.967
				c0,0,2.988-65.419,75.869-112.349C3166.323,2646.38,3189.864,2579.344,3189.864,2579.344z"/>
		</g>
		<g>
			<path fill="#5EA344" d="M3118.871,2570.732c-63.732,43.059-104.976,81.85-122.488,127.41c0,0-0.088-0.654-0.188-1.882
				c-0.967-12.008-3.443-79.311,56.053-135.649c65.586-62.101,74.543-53.428,100.717-103.339
				C3152.964,2457.272,3182.593,2527.678,3118.871,2570.732z"/>
		</g>
		<g>
			<path fill="#6FBE44" d="M2866.155,2363.146c0,0-0.062,29.828,4.177,42.211c0,0-29.388-18.585-41.697-65.84
				c-12.32-47.25,8.312-44.634-5.976-74.113c0.004,0.011,0.014,0.008,0.018,0.018
				C2823.601,2266.137,2863.276,2297.59,2866.155,2363.146z"/>
			<path fill="#5EA344" d="M2866.155,2363.146c0,0-0.062,29.828,4.177,42.211c0,0-17.37-33.521-28.458-85.064
				c-11.076-51.477-14.324-48.99-19.197-54.871C2823.601,2266.137,2863.276,2297.59,2866.155,2363.146z"/>
		</g>
		<g>
			<path fill="#6FBE44" d="M2961.114,2397.116c-9.097,12.73-18.161,29.688-19.152,59.594c-0.432-0.793-24.801-46.554,4.837-96.653
				c29.49-49.847,21.966-72.196,21.751-72.807C2969.062,2287.803,3008.317,2331.008,2961.114,2397.116z"/>
			<path fill="#5EA344" d="M2961.114,2397.116c-9.097,12.73-18.161,29.688-19.152,59.594c-0.21-0.6-11.823-34.299,15.459-88.116
				c27.206-53.661,11.506-80.708,11.129-81.344C2969.062,2287.803,3008.317,2331.008,2961.114,2397.116z"/>
		</g>
		<g>
			<path fill="#6FBE44" d="M3079.837,2465.166c0,0-72.365,46.076-91.69,99.793c-0.011,0.039-0.018,0.053-0.018,0.053
				s-13.099-63.397,62.135-128.884c55.028-47.913,60.638-73.372,59.684-83.591c-0.247-2.688-0.948-4.318-1.33-5.035
				C3111.856,2352.965,3144.128,2411.322,3079.837,2465.166z"/>
			<path fill="#5EA344" d="M3079.837,2465.166c0,0-72.365,46.076-91.69,99.793c0.604-2.148,20.569-71.365,73.575-117.27
				c49.594-42.949,53.652-73.295,48.226-95.152c-0.46-1.881-1.002-3.697-1.583-5.453c0,0,0.004,0.01,0.021,0.027
				c0.008,0.021,0.025,0.039,0.051,0.077c0,0,0.004,0.011,0.007,0.021c0.04,0.046,0.079,0.126,0.142,0.234
				c0.008,0.021,0.025,0.038,0.032,0.059C3111.856,2352.965,3144.128,2411.322,3079.837,2465.166z"/>
		</g>
		<path fill="#6FBE44" d="M3118.871,2570.732c-63.732,43.059-104.976,81.85-122.488,127.41c0,0-0.088-0.654-0.188-1.882
			c12.973-65.9,44.313-96.015,71.853-116.228c86.366-63.392,84.917-122.761,84.917-122.761S3182.593,2527.678,3118.871,2570.732z"/>
		<path fill="#51280F" d="M3068.958,2902.506c-0.948-0.726-1.561-1.266-2.292-1.893c-0.683-0.611-1.368-1.218-2.023-1.838
			c-1.317-1.233-2.575-2.498-3.819-3.771c-2.443-2.573-4.815-5.189-7.035-7.906c-4.482-5.406-8.579-11.063-12.422-16.864
			c-7.569-11.669-14.139-23.9-19.685-36.537c-5.579-12.623-10.275-25.586-14.273-38.729c-4.001-13.147-7.16-26.509-9.847-39.937
			c-2.753-13.424-4.613-26.988-6.273-40.553c-0.657-6.801-1.503-13.585-1.922-20.401l-0.759-10.213l-0.494-10.224
			c-0.131-3.409-0.385-6.813-0.415-10.225l-0.208-10.228l-0.104-5.112c-0.019-1.705,0.012-3.408,0.015-5.113l0.057-10.223
			c0.011-6.834,0.18-13.518,0.046-20.28c-0.074-6.745-0.354-13.481-0.725-20.212c-0.827-13.454-2.334-26.862-4.688-40.119
			c-1.226-6.617-2.627-13.201-4.304-19.717c-1.708-6.504-3.646-12.947-5.87-19.291c-4.518-12.656-10.191-24.914-17.272-36.339
			c-7.064-11.429-15.555-21.979-25.23-31.337c-4.834-4.684-9.954-9.077-15.299-13.188c-5.352-4.103-10.935-7.911-16.664-11.492
			c-11.467-7.166-23.569-13.294-35.741-19.286c-6.083-3.006-12.187-5.991-18.184-9.2c-5.988-3.214-11.889-6.659-17.326-10.779
			c-5.325-4.245-10.512-8.595-15.843-12.803c-2.661-2.104-5.322-4.209-8.027-6.255c-1.351-1.026-2.712-2.038-4.09-3.027
			c-0.693-0.488-1.383-0.982-2.094-1.444c-0.351-0.239-0.713-0.459-1.074-0.683c-0.369-0.193-0.725-0.469-1.143-0.525
			c0.42,0.049,0.78,0.319,1.154,0.507c0.364,0.217,0.731,0.432,1.086,0.665c0.719,0.45,1.418,0.933,2.12,1.409
			c1.396,0.966,2.775,1.955,4.144,2.959c2.742,2.001,5.439,4.062,8.139,6.12c5.396,4.111,10.686,8.396,16.045,12.521
			c5.458,3.99,11.377,7.313,17.395,10.412c6.025,3.093,12.168,5.969,18.304,8.871c12.275,5.786,24.536,11.729,36.224,18.759
			c5.842,3.513,11.551,7.265,17.042,11.327c5.483,4.072,10.757,8.441,15.752,13.118c9.999,9.345,18.845,19.955,26.252,31.494
			c7.425,11.534,13.43,23.945,18.255,36.77c2.378,6.427,4.464,12.956,6.316,19.549c1.819,6.602,3.359,13.274,4.721,19.981
			c2.622,13.432,4.385,27.016,5.456,40.64c0.493,6.814,0.893,13.637,1.083,20.463c0.253,6.807,0.199,13.698,0.305,20.438
			l0.116,10.137c0.026,1.689,0.025,3.379,0.072,5.066l0.19,5.063l0.379,10.124c0.087,3.376,0.397,6.739,0.584,10.109l0.662,10.103
			l0.923,10.078c0.527,6.728,1.479,13.405,2.24,20.102c1.866,13.345,3.925,26.668,6.854,39.798
			c2.863,13.137,6.182,26.171,10.306,38.932c4.121,12.758,8.906,25.283,14.511,37.397c5.569,12.13,12.098,23.776,19.49,34.758
			c3.746,5.451,7.715,10.733,11.982,15.705c2.117,2.504,4.351,4.879,6.618,7.189c1.149,1.134,2.302,2.257,3.481,3.321
			c0.586,0.537,1.182,1.043,1.771,1.555c0.563,0.471,1.245,1.029,1.649,1.327l0.096,0.069c2.477,1.823,3.009,5.31,1.187,7.787
			c-1.823,2.479-5.31,3.01-7.787,1.188C3069.023,2902.556,3068.979,2902.522,3068.958,2902.506z"/>
	</g>
	<g>
		<path fill="#DCDBDB" d="M3238.291,3464.154l382.013-220.555c5.643-3.259,5.643-8.591,0-11.85l-256.354-148.006
			c-5.645-3.258-14.879-3.258-20.523,0l-382.012,220.555c-5.644,3.259-5.644,8.591,0,11.85l256.354,148.006
			C3223.412,3467.412,3232.647,3467.412,3238.291,3464.154z"/>
		<polygon fill="#DCDBDB" points="2957.189,3310.048 2957.189,3301.024 2976.888,3301.024 2980.067,3316.653 		"/>
		<polygon fill="#DCDBDB" points="3624.536,3237.733 3624.528,3228.036 3575.462,3222.404 3575.462,3249.85 		"/>
		<g>
			<path fill="#F0EFEF" d="M3332.192,3083.184l-377.138,217.74c-7.978,4.606-14.505,0.838-14.505-8.374l-50.806-321.527
				c-3.094-17.413,6.526-20.519,14.505-25.124l383.33-195.568c7.978-4.606,14.506-0.838,14.506,8.374l44.612,299.356
				C3346.697,3067.272,3340.17,3078.578,3332.192,3083.184z"/>
			<path fill="#07080A" d="M3336.149,3085.656l-377.139,217.74c-7.978,4.606-14.505,0.838-14.505-8.374l-50.806-321.527
				c-3.093-17.413,6.527-20.518,14.506-25.124l383.33-195.568c7.977-4.606,14.504-0.838,14.504,8.374l44.613,299.356
				C3350.653,3069.745,3344.126,3081.051,3336.149,3085.656z"/>
			<path fill="#1A1B1B" d="M3336.476,3057.729l-375.533,216.814c-1.097,0.633-1.986,0.119-1.986-1.147l-50.806-304.402
				c0-1.267,0.89-2.808,1.987-3.44l381.725-194.643c1.098-0.634,1.986-0.12,1.986,1.146l44.613,282.231
				C3338.462,3055.555,3337.573,3057.095,3336.476,3057.729z"/>
		</g>
		<path fill="#F0EFEF" d="M3238.291,3454.778l382.013-220.555c5.643-3.259,5.643-8.591,0-11.849l-256.354-148.006
			c-5.645-3.258-14.879-3.258-20.523,0l-382.012,220.555c-5.644,3.259-5.644,8.591,0,11.85l256.354,148.005
			C3223.412,3458.037,3232.647,3458.037,3238.291,3454.778z"/>
		<g>
			<path fill="#1A1B1B" d="M3341.062,3173.283l14.386-8.306c0.939-0.542,0.939-1.429,0-1.972l-14.025-8.097
				c-0.938-0.542-2.475-0.542-3.414,0l-14.387,8.306c-0.938,0.542-0.938,1.429,0,1.971l14.025,8.098
				C3338.587,3173.825,3340.124,3173.825,3341.062,3173.283z"/>
			<path fill="#1A1B1B" d="M3362.842,3160.709l24.259-14.006c0.967-0.559,0.967-1.471,0-2.029l-13.926-8.04
				c-0.966-0.558-2.547-0.558-3.513,0l-24.26,14.007c-0.966,0.558-0.966,1.471,0,2.028l13.925,8.04
				C3360.294,3161.268,3361.876,3161.268,3362.842,3160.709z"/>
			<path fill="#1A1B1B" d="M3320.083,3185.396l14.387-8.306c0.938-0.542,0.938-1.429,0-1.971l-14.025-8.098
				c-0.939-0.542-2.477-0.542-3.414,0l-14.387,8.306c-0.939,0.542-0.939,1.429,0,1.972l14.025,8.098
				C3317.608,3185.938,3319.144,3185.938,3320.083,3185.396z"/>
			<path fill="#1A1B1B" d="M3299.104,3197.508l14.386-8.306c0.939-0.542,0.939-1.429,0-1.971l-14.024-8.098
				c-0.939-0.542-2.476-0.542-3.415,0l-14.386,8.306c-0.938,0.542-0.938,1.43,0,1.972l14.024,8.097
				C3296.628,3198.051,3298.165,3198.051,3299.104,3197.508z"/>
			<path fill="#1A1B1B" d="M3277.841,3209.784l14.387-8.306c0.938-0.542,0.938-1.43,0-1.972l-14.025-8.097
				c-0.939-0.543-2.476-0.543-3.414,0l-14.387,8.306c-0.938,0.542-0.938,1.429,0,1.971l14.025,8.098
				C3275.365,3210.326,3276.901,3210.326,3277.841,3209.784z"/>
			<path fill="#1A1B1B" d="M3256.579,3222.061l14.386-8.307c0.938-0.542,0.938-1.429,0-1.971l-14.025-8.098
				c-0.938-0.542-2.476-0.542-3.415,0l-14.385,8.306c-0.939,0.542-0.939,1.43,0,1.972l14.024,8.098
				C3254.103,3222.603,3255.64,3222.603,3256.579,3222.061z"/>
			<path fill="#1A1B1B" d="M3235.032,3234.5l14.387-8.307c0.939-0.541,0.939-1.429,0-1.971l-14.025-8.098
				c-0.939-0.542-2.475-0.542-3.414,0l-14.387,8.306c-0.938,0.542-0.938,1.43,0,1.972l14.025,8.098
				C3232.558,3235.042,3234.094,3235.042,3235.032,3234.5z"/>
			<path fill="#1A1B1B" d="M3214.054,3246.612l14.386-8.306c0.938-0.543,0.938-1.43,0-1.972l-14.025-8.097
				c-0.938-0.543-2.476-0.543-3.414,0l-14.386,8.305c-0.939,0.543-0.939,1.43,0,1.972l14.025,8.098
				C3211.577,3247.154,3213.114,3247.154,3214.054,3246.612z"/>
			<path fill="#1A1B1B" d="M3192.532,3259.037l14.387-8.306c0.938-0.542,0.938-1.429,0-1.972l-14.025-8.097
				c-0.939-0.542-2.476-0.542-3.415,0l-14.386,8.306c-0.939,0.542-0.939,1.429,0,1.971l14.025,8.098
				C3190.058,3259.579,3191.593,3259.579,3192.532,3259.037z"/>
			<path fill="#1A1B1B" d="M3171.356,3271.264l14.385-8.306c0.939-0.542,0.939-1.43,0-1.972l-14.024-8.098
				c-0.938-0.542-2.476-0.542-3.415,0l-14.385,8.306c-0.939,0.542-0.939,1.43,0,1.972l14.024,8.098
				C3168.881,3271.806,3170.417,3271.806,3171.356,3271.264z"/>
			<path fill="#1A1B1B" d="M3150.18,3283.49l14.386-8.307c0.939-0.542,0.939-1.429,0-1.971l-14.025-8.098
				c-0.938-0.542-2.475-0.542-3.414,0l-14.386,8.306c-0.938,0.542-0.938,1.429,0,1.972l14.024,8.098
				C3147.704,3284.031,3149.241,3284.031,3150.18,3283.49z"/>
			<path fill="#1A1B1B" d="M3129.103,3295.659l14.385-8.306c0.939-0.543,0.939-1.43,0-1.972l-14.024-8.098
				c-0.939-0.542-2.476-0.542-3.415,0l-14.386,8.306c-0.938,0.543-0.938,1.43,0,1.972l14.025,8.098
				C3126.626,3296.201,3128.163,3296.201,3129.103,3295.659z"/>
			<path fill="#1A1B1B" d="M3107.777,3307.971l14.386-8.306c0.939-0.542,0.939-1.43,0-1.972l-14.024-8.098
				c-0.938-0.542-2.476-0.542-3.415,0l-14.386,8.306c-0.938,0.542-0.938,1.43,0,1.972l14.025,8.098
				C3105.302,3308.513,3106.839,3308.513,3107.777,3307.971z"/>
			<path fill="#1A1B1B" d="M3086.354,3320.339l14.387-8.306c0.938-0.542,0.938-1.43,0-1.972l-14.025-8.097
				c-0.939-0.543-2.476-0.543-3.414,0l-14.387,8.305c-0.938,0.543-0.938,1.43,0,1.972l14.025,8.098
				C3083.88,3320.881,3085.417,3320.881,3086.354,3320.339z"/>
			<path fill="#1A1B1B" d="M3330.792,3155.432l14.386-8.307c0.939-0.541,0.939-1.429,0-1.971l-14.024-8.098
				c-0.939-0.542-2.477-0.542-3.414,0l-14.387,8.306c-0.938,0.542-0.938,1.43,0,1.972l14.025,8.098
				C3328.317,3155.974,3329.853,3155.974,3330.792,3155.432z"/>
			<path fill="#1A1B1B" d="M3352.17,3143.089l14.386-8.306c0.938-0.542,0.938-1.43,0-1.971l-14.025-8.098
				c-0.939-0.543-2.475-0.543-3.414,0l-14.387,8.306c-0.938,0.542-0.938,1.429,0,1.972l14.025,8.097
				C3349.694,3143.631,3351.23,3143.631,3352.17,3143.089z"/>
			<path fill="#1A1B1B" d="M3331.66,3131.879l15.478-8.937c0.639-0.368,0.639-0.972,0-1.341l-8.693-5.02
				c-0.639-0.369-1.684-0.369-2.322,0l-15.479,8.937c-0.639,0.368-0.639,0.972,0,1.341l8.694,5.02
				C3329.977,3132.247,3331.022,3132.247,3331.66,3131.879z"/>
			<path fill="#1A1B1B" d="M3310.283,3144.221l15.478-8.937c0.639-0.368,0.639-0.972,0-1.341l-8.693-5.02
				c-0.639-0.368-1.684-0.368-2.322,0l-15.479,8.938c-0.639,0.368-0.639,0.972,0,1.34l8.693,5.02
				C3308.6,3144.59,3309.644,3144.59,3310.283,3144.221z"/>
			<path fill="#1A1B1B" d="M3287.442,3157.407l15.479-8.937c0.639-0.368,0.639-0.972,0-1.34l-8.693-5.02
				c-0.639-0.369-1.684-0.369-2.322,0l-15.479,8.936c-0.639,0.369-0.639,0.973,0,1.342l8.693,5.019
				C3285.759,3157.776,3286.804,3157.776,3287.442,3157.407z"/>
			<path fill="#1A1B1B" d="M3265.786,3169.911l15.478-8.937c0.639-0.368,0.639-0.972,0-1.34l-8.694-5.02
				c-0.638-0.369-1.684-0.369-2.322,0l-15.478,8.936c-0.639,0.369-0.639,0.973,0,1.341l8.694,5.02
				C3264.103,3170.28,3265.147,3170.28,3265.786,3169.911z"/>
			<path fill="#1A1B1B" d="M3243.028,3183.05l15.479-8.937c0.639-0.368,0.639-0.972,0-1.34l-8.693-5.02
				c-0.639-0.369-1.684-0.369-2.322,0l-15.479,8.936c-0.639,0.369-0.639,0.973,0,1.342l8.694,5.019
				C3241.345,3183.419,3242.39,3183.419,3243.028,3183.05z"/>
			<path fill="#1A1B1B" d="M3221.579,3195.434l15.478-8.936c0.639-0.369,0.639-0.973,0-1.341l-8.693-5.02
				c-0.64-0.368-1.684-0.368-2.323,0l-15.478,8.937c-0.638,0.368-0.638,0.972,0,1.341l8.694,5.019
				C3219.896,3195.803,3220.94,3195.803,3221.579,3195.434z"/>
			<path fill="#1A1B1B" d="M3199.257,3208.321l15.479-8.937c0.639-0.368,0.639-0.972,0-1.341l-8.693-5.019
				c-0.639-0.369-1.684-0.369-2.322,0l-15.479,8.936c-0.639,0.369-0.639,0.973,0,1.341l8.693,5.02
				C3197.573,3208.689,3198.618,3208.689,3199.257,3208.321z"/>
			<path fill="#1A1B1B" d="M3177.485,3220.892l15.478-8.936c0.639-0.369,0.639-0.973,0-1.341l-8.694-5.02
				c-0.639-0.369-1.684-0.369-2.322,0l-15.478,8.936c-0.639,0.369-0.639,0.973,0,1.342l8.694,5.019
				C3175.802,3221.261,3176.846,3221.261,3177.485,3220.892z"/>
			<path fill="#1A1B1B" d="M3155.148,3233.788l15.478-8.937c0.639-0.369,0.639-0.973,0-1.341l-8.693-5.02
				c-0.639-0.368-1.684-0.368-2.322,0l-15.479,8.937c-0.639,0.369-0.639,0.972,0,1.341l8.693,5.02
				C3153.465,3234.156,3154.51,3234.156,3155.148,3233.788z"/>
			<path fill="#1A1B1B" d="M3133.627,3246.213l15.478-8.937c0.639-0.368,0.639-0.972,0-1.341l-8.693-5.019
				c-0.639-0.369-1.684-0.369-2.322,0l-15.479,8.936c-0.638,0.369-0.638,0.973,0,1.341l8.695,5.02
				C3131.943,3246.582,3132.989,3246.582,3133.627,3246.213z"/>
			<path fill="#1A1B1B" d="M3111.353,3259.073l15.478-8.937c0.639-0.368,0.639-0.972,0-1.34l-8.694-5.02
				c-0.638-0.369-1.684-0.369-2.322,0l-15.478,8.936c-0.639,0.369-0.639,0.973,0,1.342l8.694,5.019
				C3109.669,3259.442,3110.714,3259.442,3111.353,3259.073z"/>
			<path fill="#1A1B1B" d="M3089.829,3271.5l15.479-8.937c0.639-0.368,0.639-0.972,0-1.341l-8.693-5.02
				c-0.639-0.369-1.685-0.369-2.322,0l-15.479,8.937c-0.639,0.368-0.639,0.972,0,1.341l8.693,5.02
				C3088.146,3271.868,3089.19,3271.868,3089.829,3271.5z"/>
			<path fill="#1A1B1B" d="M3067.662,3284.298l15.478-8.937c0.64-0.369,0.64-0.972,0-1.341l-8.693-5.019
				c-0.639-0.369-1.684-0.369-2.322,0l-15.478,8.936c-0.639,0.369-0.639,0.973,0,1.341l8.694,5.02
				C3065.979,3284.666,3067.024,3284.666,3067.662,3284.298z"/>
			<path fill="#1A1B1B" d="M3045.25,3297.237l15.479-8.937c0.638-0.368,0.638-0.972,0-1.34l-8.694-5.02
				c-0.639-0.369-1.684-0.369-2.322,0l-15.478,8.936c-0.639,0.369-0.639,0.973,0,1.341l8.693,5.02
				C3043.566,3297.606,3044.611,3297.605,3045.25,3297.237z"/>
			<path fill="#1A1B1B" d="M3309.812,3167.544l14.386-8.306c0.939-0.543,0.939-1.43,0-1.972l-14.025-8.098
				c-0.938-0.542-2.475-0.542-3.414,0l-14.386,8.306c-0.938,0.543-0.938,1.43,0,1.972l14.025,8.098
				C3307.337,3168.086,3308.874,3168.086,3309.812,3167.544z"/>
			<path fill="#1A1B1B" d="M3288.833,3179.656l14.387-8.306c0.938-0.542,0.938-1.43,0-1.972l-14.025-8.098
				c-0.939-0.541-2.476-0.541-3.414,0l-14.387,8.307c-0.938,0.541-0.938,1.429,0,1.971l14.025,8.098
				C3286.358,3180.198,3287.896,3180.198,3288.833,3179.656z"/>
			<path fill="#1A1B1B" d="M3267.571,3191.932l14.385-8.306c0.939-0.542,0.939-1.429,0-1.971l-14.024-8.098
				c-0.938-0.542-2.476-0.542-3.414,0l-14.386,8.306c-0.939,0.542-0.939,1.43,0,1.972l14.025,8.097
				C3265.096,3192.475,3266.632,3192.475,3267.571,3191.932z"/>
			<path fill="#1A1B1B" d="M3246.308,3204.208l14.387-8.306c0.939-0.542,0.939-1.43,0-1.972l-14.025-8.097
				c-0.938-0.543-2.475-0.543-3.414,0l-14.387,8.305c-0.938,0.543-0.938,1.43,0,1.973l14.025,8.097
				C3243.833,3204.75,3245.37,3204.75,3246.308,3204.208z"/>
			<path fill="#1A1B1B" d="M3224.763,3216.647l14.386-8.306c0.939-0.542,0.939-1.43,0-1.972l-14.024-8.097
				c-0.939-0.543-2.477-0.543-3.415,0l-14.386,8.305c-0.939,0.543-0.939,1.43,0,1.972l14.025,8.098
				C3222.287,3217.189,3223.823,3217.189,3224.763,3216.647z"/>
			<path fill="#1A1B1B" d="M3203.783,3228.76l14.386-8.306c0.939-0.542,0.939-1.429,0-1.972l-14.025-8.097
				c-0.938-0.542-2.475-0.542-3.414,0l-14.386,8.306c-0.938,0.542-0.938,1.429-0.001,1.971l14.026,8.098
				C3201.308,3229.302,3202.845,3229.302,3203.783,3228.76z"/>
			<path fill="#1A1B1B" d="M3182.262,3241.186l14.387-8.307c0.938-0.542,0.938-1.429,0-1.971l-14.025-8.098
				c-0.938-0.542-2.476-0.542-3.415,0l-14.385,8.306c-0.939,0.542-0.939,1.43,0,1.972l14.024,8.098
				C3179.786,3241.728,3181.323,3241.728,3182.262,3241.186z"/>
			<path fill="#1A1B1B" d="M3161.086,3253.411l14.386-8.306c0.939-0.542,0.939-1.43,0-1.971l-14.025-8.098
				c-0.939-0.543-2.475-0.543-3.414,0l-14.386,8.306c-0.938,0.542-0.938,1.429,0,1.972l14.024,8.097
				C3158.61,3253.953,3160.146,3253.953,3161.086,3253.411z"/>
			<path fill="#1A1B1B" d="M3139.909,3265.638l14.387-8.306c0.938-0.542,0.938-1.43,0-1.972l-14.025-8.098
				c-0.939-0.542-2.476-0.542-3.414,0l-14.387,8.306c-0.938,0.543-0.938,1.43,0,1.972l14.025,8.098
				C3137.435,3266.18,3138.97,3266.18,3139.909,3265.638z"/>
			<path fill="#1A1B1B" d="M3118.831,3277.807l14.387-8.306c0.938-0.542,0.939-1.429,0-1.972l-14.025-8.097
				c-0.939-0.542-2.475-0.542-3.414,0l-14.387,8.306c-0.938,0.542-0.938,1.429,0,1.971l14.025,8.098
				C3116.356,3278.349,3117.893,3278.349,3118.831,3277.807z"/>
			<path fill="#1A1B1B" d="M3097.507,3290.118l14.387-8.306c0.939-0.542,0.939-1.43,0-1.972l-14.025-8.097
				c-0.939-0.543-2.475-0.543-3.414,0l-14.387,8.306c-0.938,0.542-0.938,1.429,0,1.971l14.025,8.098
				C3095.032,3290.66,3096.569,3290.66,3097.507,3290.118z"/>
			<path fill="#1A1B1B" d="M3065.704,3308.48l24.822-14.332c0.908-0.524,0.908-1.383,0-1.906l-14.137-8.162
				c-0.908-0.524-2.395-0.524-3.303,0l-24.822,14.331c-0.908,0.524-0.908,1.383,0,1.907l14.136,8.162
				C3063.31,3309.004,3064.796,3309.004,3065.704,3308.48z"/>
			<path fill="#1A1B1B" d="M3378.103,3176.076l29.57-17.072c1.168-0.674,1.168-1.778,0-2.453l-13.189-7.615
				c-1.17-0.675-3.082-0.675-4.25,0l-29.57,17.072c-1.17,0.675-1.17,1.779,0,2.454l13.189,7.614
				C3375.021,3176.752,3376.933,3176.752,3378.103,3176.076z"/>
			<path fill="#1A1B1B" d="M3356.704,3188.431l14.387-8.306c0.939-0.543,0.939-1.43,0-1.972l-14.025-8.098
				c-0.939-0.542-2.475-0.542-3.414,0.001l-14.387,8.305c-0.938,0.543-0.938,1.43,0,1.972l14.025,8.098
				C3354.229,3188.973,3355.767,3188.973,3356.704,3188.431z"/>
			<path fill="#1A1B1B" d="M3335.726,3200.543l14.386-8.306c0.938-0.542,0.938-1.43,0-1.972l-14.024-8.098
				c-0.939-0.541-2.477-0.541-3.415,0l-14.386,8.307c-0.939,0.542-0.939,1.429,0,1.971l14.025,8.098
				C3333.25,3201.085,3334.786,3201.085,3335.726,3200.543z"/>
			<path fill="#1A1B1B" d="M3314.463,3212.818l14.386-8.305c0.939-0.543,0.939-1.43,0-1.972l-14.025-8.098
				c-0.938-0.542-2.475-0.542-3.414,0l-14.386,8.306c-0.938,0.542-0.938,1.43,0,1.972l14.025,8.097
				C3311.987,3213.361,3313.524,3213.361,3314.463,3212.818z"/>
			<path fill="#1A1B1B" d="M3293.2,3225.095l14.387-8.306c0.938-0.542,0.938-1.43,0-1.971l-14.025-8.098
				c-0.939-0.543-2.476-0.543-3.415,0l-14.386,8.306c-0.939,0.542-0.939,1.429,0,1.971l14.025,8.098
				C3290.726,3225.637,3292.262,3225.637,3293.2,3225.095z"/>
			<path fill="#1A1B1B" d="M3271.655,3237.534l14.385-8.306c0.939-0.542,0.939-1.43,0-1.972l-14.024-8.097
				c-0.938-0.543-2.476-0.543-3.415,0l-14.386,8.306c-0.938,0.542-0.938,1.429,0,1.971l14.025,8.098
				C3269.179,3238.076,3270.716,3238.076,3271.655,3237.534z"/>
			<path fill="#1A1B1B" d="M3250.675,3249.646l14.387-8.306c0.939-0.542,0.939-1.429,0-1.971l-14.025-8.098
				c-0.939-0.542-2.476-0.542-3.414,0l-14.387,8.306c-0.938,0.542-0.938,1.429,0,1.971l14.025,8.098
				C3248.2,3250.188,3249.736,3250.188,3250.675,3249.646z"/>
			<path fill="#1A1B1B" d="M3229.153,3262.072l14.387-8.307c0.939-0.542,0.939-1.429,0-1.971l-14.025-8.098
				c-0.939-0.542-2.475-0.542-3.414,0l-14.386,8.306c-0.939,0.542-0.939,1.43,0,1.972l14.024,8.098
				C3226.679,3262.614,3228.215,3262.614,3229.153,3262.072z"/>
			<path fill="#1A1B1B" d="M3207.978,3274.298l14.386-8.306c0.939-0.542,0.939-1.43,0-1.971l-14.024-8.098
				c-0.939-0.542-2.476-0.542-3.414,0l-14.387,8.306c-0.938,0.542-0.938,1.429,0,1.972l14.025,8.097
				C3205.503,3274.84,3207.038,3274.84,3207.978,3274.298z"/>
			<path fill="#1A1B1B" d="M3186.802,3286.524l14.386-8.306c0.938-0.543,0.938-1.43,0-1.972l-14.025-8.098
				c-0.938-0.542-2.476-0.542-3.414,0l-14.386,8.307c-0.939,0.542-0.939,1.429,0,1.971l14.025,8.098
				C3184.325,3287.066,3185.862,3287.066,3186.802,3286.524z"/>
			<path fill="#1A1B1B" d="M3165.724,3298.693l14.387-8.306c0.938-0.542,0.938-1.429,0-1.972l-14.025-8.097
				c-0.939-0.542-2.477-0.542-3.415,0l-14.386,8.306c-0.939,0.542-0.939,1.43,0,1.971l14.025,8.098
				C3163.248,3299.235,3164.784,3299.235,3165.724,3298.693z"/>
			<path fill="#1A1B1B" d="M3144.399,3311.005l14.387-8.306c0.938-0.542,0.938-1.43,0-1.971l-14.025-8.098
				c-0.939-0.543-2.476-0.543-3.415,0l-14.386,8.306c-0.939,0.542-0.939,1.429,0,1.972l14.025,8.097
				C3141.924,3311.547,3143.461,3311.547,3144.399,3311.005z"/>
			<path fill="#1A1B1B" d="M3107.184,3332.492l30.29-17.488c0.878-0.507,0.878-1.337,0-1.844l-14.246-8.225
				c-0.879-0.508-2.315-0.508-3.193,0l-30.29,17.487c-0.878,0.507-0.878,1.337-0.001,1.844l14.246,8.226
				C3104.868,3332.999,3106.306,3332.999,3107.184,3332.492z"/>
			<path fill="#1A1B1B" d="M3388.792,3193.876l39.941-23.061c1.014-0.585,1.014-1.543,0-2.128l-13.754-7.94
				c-1.013-0.585-2.672-0.585-3.686,0l-39.941,23.06c-1.014,0.586-1.014,1.543,0,2.129l13.754,7.94
				C3386.12,3194.461,3387.778,3194.461,3388.792,3193.876z"/>
			<path fill="#1A1B1B" d="M3366.299,3206.862l14.386-8.306c0.939-0.542,0.939-1.429,0-1.971l-14.025-8.098
				c-0.939-0.542-2.475-0.542-3.414,0l-14.387,8.306c-0.938,0.542-0.938,1.429,0,1.972l14.025,8.097
				C3363.823,3207.404,3365.359,3207.404,3366.299,3206.862z"/>
			<path fill="#1A1B1B" d="M3345.319,3218.975l14.386-8.306c0.938-0.542,0.938-1.429,0-1.971l-14.025-8.098
				c-0.938-0.542-2.476-0.542-3.414,0l-14.386,8.306c-0.939,0.542-0.939,1.43,0,1.972l14.025,8.097
				C3342.843,3219.518,3344.38,3219.518,3345.319,3218.975z"/>
			<path fill="#1A1B1B" d="M3324.057,3231.251l14.386-8.306c0.939-0.542,0.939-1.43,0-1.972l-14.025-8.097
				c-0.938-0.543-2.475-0.543-3.414,0l-14.386,8.306c-0.938,0.542-0.939,1.429,0,1.972l14.024,8.097
				C3321.581,3231.793,3323.118,3231.793,3324.057,3231.251z"/>
			<path fill="#1A1B1B" d="M3302.794,3243.527l14.386-8.307c0.939-0.541,0.939-1.429,0-1.971l-14.024-8.098
				c-0.939-0.542-2.476-0.542-3.414,0l-14.387,8.306c-0.939,0.542-0.939,1.43,0,1.972l14.025,8.098
				C3300.319,3244.069,3301.854,3244.069,3302.794,3243.527z"/>
			<path fill="#1A1B1B" d="M3281.248,3255.967l14.386-8.307c0.939-0.542,0.939-1.429,0-1.971l-14.025-8.098
				c-0.938-0.542-2.475-0.542-3.414,0l-14.386,8.306c-0.938,0.542-0.938,1.43,0,1.972l14.025,8.098
				C3278.772,3256.509,3280.31,3256.509,3281.248,3255.967z"/>
			<path fill="#1A1B1B" d="M3260.269,3268.079l14.387-8.306c0.938-0.543,0.938-1.43,0-1.972l-14.025-8.098
				c-0.939-0.542-2.476-0.542-3.414,0l-14.387,8.306c-0.938,0.543-0.938,1.43,0,1.972l14.025,8.098
				C3257.794,3268.621,3259.33,3268.621,3260.269,3268.079z"/>
			<path fill="#1A1B1B" d="M3238.748,3280.504l14.386-8.306c0.939-0.542,0.939-1.429,0-1.972l-14.025-8.097
				c-0.938-0.542-2.475-0.542-3.414,0l-14.387,8.306c-0.938,0.542-0.938,1.429,0,1.971l14.026,8.098
				C3236.272,3281.046,3237.81,3281.046,3238.748,3280.504z"/>
			<path fill="#1A1B1B" d="M3217.571,3292.73l14.387-8.306c0.938-0.542,0.938-1.43,0-1.972l-14.025-8.098
				c-0.939-0.542-2.476-0.542-3.414,0l-14.387,8.306c-0.939,0.543-0.939,1.43,0,1.972l14.025,8.098
				C3215.097,3293.272,3216.633,3293.272,3217.571,3292.73z"/>
			<path fill="#1A1B1B" d="M3236.942,3309.207l19.036-10.991c0.901-0.521,0.901-1.373,0-1.894l-16.085-9.287
				c-0.902-0.521-2.379-0.521-3.281,0l-19.037,10.99c-0.902,0.521-0.902,1.373,0,1.895l16.086,9.287
				C3234.563,3309.728,3236.04,3309.728,3236.942,3309.207z"/>
			<path fill="#1A1B1B" d="M3215.958,3321.321l14.133-8.16c0.788-0.454,0.788-1.198,0-1.653l-16.502-9.527
				c-0.787-0.455-2.076-0.455-2.863,0l-14.133,8.159c-0.787,0.455-0.787,1.198,0,1.653l16.503,9.528
				C3213.883,3321.775,3215.171,3321.775,3215.958,3321.321z"/>
			<path fill="#1A1B1B" d="M3194.062,3333.963l15.749-9.093c0.57-0.329,0.57-0.867,0-1.196l-7.609-4.394
				c-0.57-0.329-1.503-0.329-2.073,0l-15.749,9.093c-0.569,0.328-0.569,0.867,0,1.196l7.61,4.394
				C3192.56,3334.292,3193.491,3334.292,3194.062,3333.963z"/>
			<path fill="#1A1B1B" d="M3151.337,3358.631l15.749-9.093c0.569-0.329,0.569-0.868,0-1.197l-7.61-4.394
				c-0.57-0.329-1.503-0.329-2.072,0l-15.75,9.093c-0.57,0.329-0.57,0.868,0,1.196l7.61,4.395
				C3149.834,3358.96,3150.767,3358.96,3151.337,3358.631z"/>
			<path fill="#1A1B1B" d="M3172.7,3346.297l15.748-9.093c0.57-0.329,0.57-0.868,0-1.196l-7.609-4.395
				c-0.57-0.329-1.504-0.329-2.074,0l-15.748,9.093c-0.57,0.329-0.57,0.868,0,1.197l7.609,4.394
				C3171.196,3346.626,3172.13,3346.626,3172.7,3346.297z"/>
			<path fill="#1A1B1B" d="M3162.173,3340.219l15.748-9.093c0.57-0.329,0.57-0.867,0-1.196l-7.609-4.395
				c-0.57-0.328-1.504-0.328-2.074,0l-15.748,9.093c-0.57,0.329-0.57,0.868,0,1.197l7.609,4.394
				C3160.669,3340.548,3161.603,3340.548,3162.173,3340.219z"/>
			<path fill="#1A1B1B" d="M3370.139,3232.305l19.036-10.99c0.902-0.521,0.902-1.373,0-1.895l-16.085-9.287
				c-0.902-0.521-2.379-0.521-3.28,0l-19.037,10.991c-0.902,0.521-0.902,1.373,0,1.895l16.086,9.286
				C3367.761,3232.826,3369.237,3232.826,3370.139,3232.305z"/>
			<path fill="#1A1B1B" d="M3395.853,3217.46l14.284-8.247c0.784-0.453,0.784-1.193,0-1.646l-16.515-9.535
				c-0.785-0.452-2.068-0.452-2.852,0l-14.285,8.248c-0.783,0.452-0.783,1.192,0,1.646l16.516,9.535
				C3393.785,3217.912,3395.067,3217.912,3395.853,3217.46z"/>
			<path fill="#1A1B1B" d="M3417.478,3204.974l14.285-8.247c0.784-0.453,0.784-1.193,0-1.646l-16.516-9.535
				c-0.783-0.452-2.066-0.452-2.851,0l-14.284,8.248c-0.785,0.452-0.785,1.193,0,1.646l16.515,9.535
				C3415.411,3205.427,3416.694,3205.427,3417.478,3204.974z"/>
			<path fill="#1A1B1B" d="M3438.821,3192.652l14.283-8.248c0.785-0.453,0.785-1.193,0-1.646l-16.515-9.534
				c-0.784-0.453-2.067-0.453-2.851,0l-14.285,8.247c-0.783,0.453-0.783,1.193,0,1.646l16.516,9.535
				C3436.754,3193.104,3438.036,3193.104,3438.821,3192.652z"/>
			<path fill="#1A1B1B" d="M3264.667,3293.199l97.311-56.182c1.169-0.676,1.169-1.781,0-2.456l-15.113-8.726
				c-1.17-0.675-3.084-0.675-4.254,0l-97.311,56.183c-1.17,0.676-1.17,1.78,0,2.456l15.113,8.725
				C3261.583,3293.875,3263.496,3293.875,3264.667,3293.199z"/>
			<path fill="#1A1B1B" d="M3196.396,3304.956l14.386-8.306c0.938-0.542,0.938-1.429,0-1.971l-14.025-8.098
				c-0.938-0.542-2.476-0.542-3.415,0l-14.385,8.306c-0.939,0.542-0.939,1.429,0,1.972l14.024,8.097
				C3193.919,3305.498,3195.456,3305.498,3196.396,3304.956z"/>
			<path fill="#1A1B1B" d="M3175.317,3317.126l14.386-8.306c0.938-0.543,0.938-1.43,0-1.972l-14.025-8.098
				c-0.938-0.542-2.476-0.542-3.414,0l-14.386,8.306c-0.939,0.543-0.939,1.43,0,1.972l14.025,8.098
				C3172.842,3317.668,3174.378,3317.668,3175.317,3317.126z"/>
			<path fill="#1A1B1B" d="M3128.54,3344.133l39.461-22.783c1.207-0.697,1.207-1.837,0.001-2.533l-13.052-7.535
				c-1.207-0.697-3.182-0.697-4.389,0l-39.461,22.782c-1.207,0.697-1.207,1.837,0,2.534l13.052,7.535
				C3125.358,3344.829,3127.334,3344.829,3128.54,3344.133z"/>
		</g>
		<path opacity="0.05" fill="#1A1B1B" d="M3342.177,3385.624l158.819-91.694c2.101-1.213,2.101-3.197,0-4.41l-97.829-56.482
			c-2.1-1.213-5.538-1.213-7.639,0l-158.82,91.695c-2.101,1.213-2.101,3.197,0,4.41l97.829,56.481
			C3336.638,3386.838,3340.075,3386.838,3342.177,3385.624z"/>
		<polygon fill="#1A1B1B" points="3009.457,3283.271 3323.177,3102.145 3309.248,3094.103 2995.527,3275.229 		"/>
		<polygon fill="#121212" points="3009.457,3283.271 3323.177,3102.145 3316.213,3098.124 3002.492,3279.25 		"/>
		<path opacity="0.05" fill="#1A1B1B" d="M3153.292,3362.439l307.009-177.252c1.846-1.065,1.846-2.809,0-3.875l-118.499-68.414
			c-1.846-1.066-4.865-1.066-6.711,0l-307.009,177.251c-1.846,1.065-1.846,2.81,0,3.875l118.498,68.415
			C3148.426,3363.505,3151.446,3363.505,3153.292,3362.439z"/>
	</g>
	<g>
		<path fill="#99B8CB" d="M2671.126,981.962l242.65,140.094c8.896,5.137,16.177,0.934,16.177-9.339l0,0
			c0-10.273-7.28-22.882-16.177-28.019l-242.65-140.094c-8.897-5.137-16.177-0.934-16.177,9.339l0,0
			C2654.949,964.217,2662.229,976.825,2671.126,981.962z"/>
		<path fill="#99B8CB" d="M2238.11,731.96l242.65,140.094c8.897,5.137,16.177,0.934,16.177-9.34l0,0
			c0-10.273-7.279-22.882-16.177-28.019l-242.65-140.094c-8.897-5.137-16.176-0.934-16.176,9.339v0
			C2221.934,714.215,2229.213,726.824,2238.11,731.96z"/>
		<path fill="#99B8CB" d="M1794.663,475.937l242.65,140.094c8.896,5.137,16.177,0.934,16.177-9.339l0,0
			c0-10.273-7.28-22.882-16.177-28.019l-242.65-140.094c-8.897-5.137-16.176-0.934-16.176,9.339l0,0
			C1778.487,458.191,1785.766,470.8,1794.663,475.937z"/>
		<polygon fill="#99B8CB" points="2582.52,1585.762 2586.698,1588.175 2586.698,865.036 2582.52,862.623 		"/>
		<polygon fill="#99B8CB" points="2137.749,1328.974 2141.928,1331.387 2141.928,608.247 2137.749,605.834 		"/>
		<polygon fill="#99B8CB" points="1683.642,463.509 1683.642,468.334 2997.587,1226.941 2997.587,1222.116 		"/>
		<polygon fill="#FAA31C" points="2789.265,1230.4 2858.444,1270.34 2858.444,1190.46 2789.265,1150.52 		"/>
		<polygon fill="#FAA31C" points="2897.82,1402.562 2966.999,1442.503 2966.999,1362.623 2897.82,1322.682 		"/>
		<polygon fill="#EBE71C" points="2789.265,1339.888 2858.444,1379.829 2858.444,1299.948 2789.265,1260.008 		"/>
		<polygon fill="#76C043" points="2895.363,1521.217 2964.542,1561.157 2964.542,1481.277 2895.363,1441.336 		"/>
		<polygon fill="#F282B4" points="2789.265,1459.961 2858.444,1499.901 2858.444,1420.021 2789.265,1380.081 		"/>
		<polygon fill="#EBE71C" points="2895.363,1641.29 2964.542,1681.23 2964.542,1601.35 2895.363,1561.409 		"/>
		<polygon fill="#76C043" points="2685.497,1400.05 2754.676,1439.991 2754.676,1360.11 2685.497,1320.17 		"/>
		<polygon fill="#EBE71C" points="2650.907,1558.192 2720.086,1598.133 2720.086,1518.252 2650.907,1478.312 		"/>
		<polygon fill="#F282B4" points="2685.497,1279.978 2754.676,1319.918 2754.676,1240.038 2685.497,1200.097 		"/>
		<polygon fill="#F282B4" points="2019.757,786.124 2088.936,826.064 2088.936,746.184 2019.757,706.244 		"/>
		<polygon fill="#76C043" points="2019.757,895.612 2088.936,935.553 2088.936,855.672 2019.757,815.732 		"/>
		<polygon fill="#FAA31C" points="2019.757,1015.685 2088.936,1055.626 2088.936,975.745 2019.757,935.805 		"/>
		<polygon fill="#76C043" points="1915.988,955.774 1985.167,995.715 1985.167,915.834 1915.988,875.894 		"/>
		<polygon fill="#EBE71C" points="1915.988,835.702 1985.167,875.642 1985.167,795.762 1915.988,755.821 		"/>
		<polygon fill="#EBE71C" points="2325.702,962.761 2394.881,1002.702 2394.881,922.821 2325.702,882.881 		"/>
		<polygon fill="#76C043" points="2434.257,1025.436 2503.436,1065.376 2503.436,985.496 2434.257,945.556 		"/>
		<polygon fill="#EBE71C" points="2434.257,1134.924 2503.436,1174.865 2503.436,1094.984 2434.257,1055.044 		"/>
		<polygon fill="#F282B4" points="2325.702,1072.25 2394.881,1112.19 2394.881,1032.31 2325.702,992.369 		"/>
		<polygon fill="#76C043" points="2434.257,1255.695 2503.436,1295.635 2503.436,1215.755 2434.257,1175.814 		"/>
		<polygon fill="#FAA31C" points="1704.439,604.075 1773.618,644.016 1773.618,564.135 1704.439,524.195 		"/>
		<polygon fill="#EBE71C" points="1812.994,666.75 1882.173,706.69 1882.173,626.81 1812.994,586.869 		"/>
		<polygon fill="#F282B4" points="1812.994,776.238 1882.173,816.179 1882.173,736.298 1812.994,696.357 		"/>
		<polygon fill="#FAA31C" points="2325.702,1192.323 2394.881,1232.263 2394.881,1152.383 2325.702,1112.442 		"/>
		<polygon fill="#FAA31C" points="2221.934,1132.412 2291.112,1172.353 2291.112,1092.472 2221.934,1052.531 		"/>
		<polygon fill="#F282B4" points="2324.846,1311.901 2394.024,1351.842 2394.024,1271.961 2324.846,1232.021 		"/>
	</g>
	<g>
		<ellipse opacity="0.05" cx="2202.636" cy="3210.007" rx="269.93" ry="150.889"/>
		<g>
			<g>
				<g>
					<g>
						<path fill="#FCD1BA" d="M2393.116,1758.843c72.807,106.594,118.707,108.118,118.707,108.118s145.26-98.894,228.238-167.368
							c7.749-6.385,15.129-12.498,21.979-18.338c9.498-8.022,18.033-15.45,25.253-21.996c0,0,99.535-9.273,66.373-103.481
							s-120.729,43.815-120.729,43.815l-8.279,5.375l-22.284,14.343l-8.809,5.888l-0.128,0.096l-168.94,113.092l-45.228-69.1
							c0.177,8.776-5.342,18.9-13.685,29.12C2441.295,1728.247,2393.116,1758.843,2393.116,1758.843z"/>
						<g>
							<path d="M2702.367,1619.304c16.712,18.767,29.943,54.036,37.693,80.29c7.749-6.379,15.13-12.495,21.983-18.346
								c-7.803-24.303-20.191-55.249-37.377-76.283L2702.367,1619.304z"/>
						</g>
						<g>
							<circle fill="#FFFFFF" cx="2737.68" cy="1653.805" r="15.455"/>
							<path d="M2737.68,1669.589c-8.702,0-15.783-7.081-15.783-15.784c0-8.703,7.081-15.784,15.783-15.784
								c8.703,0,15.784,7.081,15.784,15.784C2753.464,1662.508,2746.383,1669.589,2737.68,1669.589z M2737.68,1638.679
								c-8.34,0-15.126,6.786-15.126,15.125c0,8.341,6.786,15.126,15.126,15.126c8.341,0,15.126-6.785,15.126-15.126
								C2752.806,1645.465,2746.021,1638.679,2737.68,1638.679z"/>
						</g>
					</g>
					<path opacity="0.05" d="M2465.586,1698.406l58.912,51.628l168.94-124.74l-168.94,113.092l-45.228-69.1
						C2479.447,1678.062,2473.929,1688.187,2465.586,1698.406z"/>
					<path fill="#FCD1BA" d="M1988.189,2005.627c29.584,74.539,63.404,56.762,94.16,23.632c30.74-33.13-46.142-74.54-46.142-74.54
						l-2.904-4.989l-100.032-172.502l20.648-38.826c0.433-7.493-0.321-14.295-2.038-20.439
						c-13.669-49.318-87.839-57.356-87.839-57.356s-40.831,88.208-45.563,113.06
						C1813.746,1798.519,1958.621,1931.072,1988.189,2005.627z"/>
					<path opacity="0.05" d="M1924.4,1776.522l106.434,175.807l2.471-2.599l-100.032-172.502l20.648-38.826
						c0.433-7.493-0.321-14.295-2.038-20.439L1924.4,1776.522z"/>
					<path fill="#E8AE22" d="M1860.828,1669.281c0,0,88.145,36.48,93.1,69.114c0,0,14.076-19.98,32.632-49.661
						c18.135-29.101,40.646-67.479,58.412-105.437c16.079-34.425,28.31-68.428,29.838-94.787
						c4.903-84.93-66.741-128.79-66.741-128.79S1959.306,1400.945,1860.828,1669.281z"/>
					<path opacity="0.05" d="M1986.561,1688.733c18.135-29.101,40.646-67.479,58.412-105.437l-70.326-75.018
						C1962.627,1581.768,1986.561,1688.733,1986.561,1688.733z"/>
					<g>
						<g>
							<path fill="#272828" d="M2163.219,3251.455c8.541,18.188,24.62,30.471,54.405,21.087
								c74.122-23.301,218.095-107.017,207.183-139.28c-0.159-0.423-0.316-0.791-0.475-1.16
								c-6.115-12.969-33.476-14.603-63.525-12.072c-34.952,2.952-73.489,11.598-86.669,14.655c-3.005,0.739-4.692,1.16-4.692,1.16
								l-114.925,46.76C2154.521,3182.604,2150.198,3223.883,2163.219,3251.455z"/>
							<path opacity="0.1" fill="#FFFFFF" d="M2274.138,3134.685c14.656,13.285,23.565,34.161,23.565,34.161l85.72-29.469
								c-2.479-6.906-12.23-13.76-22.616-19.348C2325.854,3122.981,2287.317,3131.627,2274.138,3134.685z"/>
						</g>
						<path fill="#FFFFFF" d="M2163.219,3251.455c8.541,18.188,24.62,30.471,54.405,21.087
							c74.122-23.301,218.095-107.017,207.183-139.28C2402.507,3156.562,2310.355,3242.968,2163.219,3251.455z"/>
					</g>
					<g>
						<g>
							<path fill="#272828" d="M1989.135,3192.928c8.541,18.188,24.62,30.471,54.405,21.087
								c74.122-23.301,218.095-107.017,207.182-139.28c-0.158-0.423-0.316-0.791-0.474-1.16
								c-6.115-12.969-33.476-14.604-63.525-12.072c-34.953,2.952-73.489,11.598-86.669,14.655
								c-3.005,0.739-4.692,1.159-4.692,1.159l-114.925,46.761C1980.437,3124.077,1976.113,3165.355,1989.135,3192.928z"/>
							<path opacity="0.1" fill="#FFFFFF" d="M2100.054,3076.157c14.656,13.285,23.565,34.161,23.565,34.161l85.72-29.469
								c-2.479-6.906-12.231-13.76-22.616-19.348C2151.77,3064.454,2113.233,3073.1,2100.054,3076.157z"/>
						</g>
						<path fill="#FFFFFF" d="M1989.135,3192.928c8.541,18.188,24.62,30.471,54.405,21.087
							c74.122-23.301,218.095-107.017,207.182-139.28C2228.422,3098.035,2136.271,3184.44,1989.135,3192.928z"/>
					</g>
					<path fill="#0D2A2D" d="M2198.652,2108.619c0,0-38.981,402.808-57.172,545.739c-18.191,142.932-28.586,439.189-28.586,439.189
						s-46.777,90.956-132.536,33.784c0,0-23.389-402.808-10.395-511.955c12.994-109.147,15.528-446.986-3.93-483.368
						L2198.652,2108.619z"/>
					<path fill="#163C42" d="M2367.619,2160.595c0,0-38.981,402.808-57.172,545.738c-18.191,142.932-28.586,439.19-28.586,439.19
						s-46.777,90.956-132.536,33.783c0,0-23.389-402.807-10.396-511.955c12.994-109.147,15.529-446.985-3.93-483.368
						L2367.619,2160.595z"/>
					<path fill="#FCD1BA" d="M2111.902,1425.23c15.241,51.805,109.723,38.601,109.723,38.601l31.141-96.054l4.412-13.621
						l0.017-0.048c3.674,2.519,55.88,9.145,55.88,9.145c46.158-136.195,3.578-240.543,3.578-240.543l-85.177,6.915L2130.192,1239.3
						L2111.902,1425.23z"/>
					<path fill="#282828" d="M2263.285,1146.848c0,0,105.661-8.128,69.086-59.942c-36.575-51.814-259.072-49.782-248.913,29.972
						c0,0-82.293,58.418,44.703,228.085C2128.161,1344.962,2298.844,1345.978,2263.285,1146.848z"/>
					<path fill="#E8AE22" d="M1972.643,2176.059c0,0,288.579,197.641,413.732,17.134l-17.556-367.656l-3.532-73.752l0.053,0.105
						c1.423,2.478,39.959,43.235,82.187,77.713c45.074-33.318,67.322-79.314,76.969-107.466
						c-30.945-65.845-97.634-207.9-151.301-239.11c-27.993-16.291-79.71-42.701-134.695-68.164
						c-25.462-11.809-65.053-13.285-89.831-23.67c-43.018-18.031-30.734-27.413-30.734-27.413
						c-40.435-14.973-72.224-23.407-83.348-18.821c-34.267,14.181-96.474,36.903-34.267,343.616
						c12.283,60.415,14.497,164.691-27.677,245.033C1930.521,2014.004,1972.643,2176.059,1972.643,2176.059z"/>
					<path opacity="0.05" d="M2310.514,1630.479c0,0,7.96,140.704,58.306,195.057l-3.532-73.752L2310.514,1630.479z"/>
				</g>
				<path opacity="0.05" d="M2232.085,1325.631c0,0,2.07,27.242,20.68,42.146l4.412-13.621
					C2249.718,1349.456,2240.846,1340.953,2232.085,1325.631z"/>
			</g>
			<path opacity="0.1" fill="#FFFFFF" d="M2316.833,1096.282c0,0-124.996-79.146-221.062,3.548
				C2095.771,1099.83,2151.991,1067.353,2316.833,1096.282z"/>
		</g>
	</g>
</g>
</svg>
