<?xml version="1.0" encoding="utf-8"?>
<!-- Generator: Adobe Illustrator 16.0.0, SVG Export Plug-In . SVG Version: 6.00 Build 0)  -->
<!DOCTYPE svg PUBLIC "-//W3C//DTD SVG 1.1//EN" "http://www.w3.org/Graphics/SVG/1.1/DTD/svg11.dtd">
<svg version="1.1" xmlns="http://www.w3.org/2000/svg" xmlns:xlink="http://www.w3.org/1999/xlink" x="0px" y="0px"
	 width="539.206px" height="336.211px" viewBox="0 0 539.206 336.211" enable-background="new 0 0 539.206 336.211"
	 xml:space="preserve">
<g id="BACKGROUND" display="none">
	<rect x="-109.281" y="-50.216" display="inline" fill="#FFFFFF" width="750" height="500"/>
</g>
<g id="OBJECTS">
	<g>
		<g>
			<g>
				<text transform="matrix(1 0 0 1 187.4624 54.7046)" fill="#FF5E69" font-family="'Roboto-Black'" font-size="34.4295">ERROR 404</text>
				
					<text transform="matrix(1 0 0 1 169.958 79.5776)" fill="#277FD9" font-family="'Raleway-Medium'" font-size="18.2453" letter-spacing="3">PAGE NOT FOUND</text>
			</g>
			<g>
				<polygon fill="#DCA86E" points="439.066,251.105 471.928,322.133 475.631,322.121 447.216,246.492 				"/>
				<polygon fill="#DCA86E" points="405.076,252.623 372.215,322.133 368.512,322.121 396.927,251.046 				"/>
				
					<linearGradient id="SVGID_1_" gradientUnits="userSpaceOnUse" x1="326.9785" y1="297.6602" x2="355.8652" y2="297.6602" gradientTransform="matrix(0.8061 0.5918 -0.5918 0.8061 205.1724 -135.8722)">
					<stop  offset="0" style="stop-color:#343A44"/>
					<stop  offset="0.3009" style="stop-color:#232D3E"/>
					<stop  offset="0.6391" style="stop-color:#182439"/>
					<stop  offset="1" style="stop-color:#142138"/>
				</linearGradient>
				<path fill="url(#SVGID_1_)" d="M321.579,306.911l-16.703,14.616l-19.69-13.858c0,0,6.702-2.247,18.193,0.812l11.76-9.882
					L321.579,306.911z"/>
				<path fill="#2167BE" d="M418.266,226.291c0,0-36.915,18.922-49.957,24.583c-13.042,5.66-57.412,50.093-57.412,50.093
					s5.681,11.567,8.521,9.536c25.053-17.913,48.133-33.939,62.965-39.532c29.369-11.073,37.555-13.481,45.077-22.199
					C427.46,248.771,423.048,238.293,418.266,226.291z"/>
				<g>
					<linearGradient id="SVGID_2_" gradientUnits="userSpaceOnUse" x1="331.8623" y1="309.0811" x2="360.75" y2="309.0811">
						<stop  offset="0" style="stop-color:#343A44"/>
						<stop  offset="0.3009" style="stop-color:#232D3E"/>
						<stop  offset="0.6391" style="stop-color:#182439"/>
						<stop  offset="1" style="stop-color:#142138"/>
					</linearGradient>
					<path fill="url(#SVGID_2_)" d="M360.75,299.451l-4.814,21.666l-24.073,0.481c0,0,4.072-5.778,15.146-10.111l3.631-14.925
						L360.75,299.451z"/>
					<path fill="#277FD9" d="M419.161,221.487c0,0-34.338,3.704-46.855,10.444c-12.519,6.741-22.482,68.556-22.482,68.556
						s9.723,5.278,10.927,2c9.71-26.441,20.482-47.15,20.482-47.15c12.338-2.254,40.915,11.653,61.569-8.691
						C442.802,246.646,424.939,233.042,419.161,221.487z"/>
				</g>
				<g>
					<path fill="#FEC4AD" d="M478.331,179.749c0,0-2.479,4.105-4.043,9.248l-14.124-1.305c0,0,7.293-11.049,6.734-17.75
						L478.331,179.749z"/>
					<g>
						<path fill="#FEC4AD" d="M475.294,156.921c-0.802-0.212-3.82-1.044-4.431-0.795c-0.848,0.346,0.138,1.456-0.459,2.134
							c-0.965,1.098-2.896,1.121-4.142,1.788c-1.509,0.808-2.659,1.87-3.349,3.083c-1.15,2.021,3.038,6.532,3.694,9.913
							c1.371,7.072,10.311,8.118,17.573,5.953c2.596-0.774,4.984-3.109,6.4-5.374c1.664-2.662,0.726-7.111-0.668-9.762
							c-0.836-1.589-2.492-2.96-3.938-3.957c-1.31-0.903-1.672-4.658-3.249-4.924C482.728,154.979,477.1,157.4,475.294,156.921z"/>
					</g>
					
						<linearGradient id="SVGID_3_" gradientUnits="userSpaceOnUse" x1="319.2705" y1="115.8203" x2="350.5859" y2="115.8203" gradientTransform="matrix(-0.6574 -0.7535 -0.7535 0.6574 792.1502 342.313)">
						<stop  offset="0" style="stop-color:#343A44"/>
						<stop  offset="0.3009" style="stop-color:#232D3E"/>
						<stop  offset="0.6391" style="stop-color:#182439"/>
						<stop  offset="1" style="stop-color:#142138"/>
					</linearGradient>
					<path fill="url(#SVGID_3_)" d="M495.573,175.906c0.016,0.015-0.244-1.187,1.805-3.115c6.776-6.38-0.472-18.859-7.855-21.033
						c-3.777-1.112-6.192,0.06-7.548-3.694c0.098,0.269-1.526,0.958-1.688,1.094c-0.886,0.75-1.308,1.278-1.336,2.517
						c-0.125,5.454,4.756,10.532,8.449,13.967c1.66,1.544-2.426,0.479-4.074,0.794c-1.072,0.205-3.854,3.144-4.452,3.588
						c1.549,1.929,2.928,0.188,5.017,1.119c1.93,0.861,0.707,3.316-1.092,3.607c-2.786,0.45-3.92-1.387-3.92-1.387
						c-1.276,0.693-1.481,4.83-2.484,5.912c1.385,0.761,9.459,2.18,11.353,2.157C491.792,181.384,494.273,179.146,495.573,175.906z"
						/>
				</g>
				<path fill="#FF5E69" d="M477.874,181.946c2.961,33.03-35.072,64.699-35.072,64.699s-24.834,0.935-23.641-25.158
					c0,0,1.933-4.745,17.307-18.678c10.271-9.308,17.487-23.2,24.715-22.924C480.923,180.642,477.874,181.946,477.874,181.946z"/>
				<linearGradient id="SVGID_4_" gradientUnits="userSpaceOnUse" x1="385.6289" y1="218.9678" x2="481.4043" y2="218.9678">
					<stop  offset="0" style="stop-color:#343A44"/>
					<stop  offset="0.3009" style="stop-color:#232D3E"/>
					<stop  offset="0.6391" style="stop-color:#182439"/>
					<stop  offset="1" style="stop-color:#142138"/>
				</linearGradient>
				<path fill="url(#SVGID_4_)" d="M385.629,248.468c0,0,22.904,8.543,53.43-3.036c30.525-11.578,38.854-65.646,38.854-65.646
					l3.492,1.771c0,0-3.399,59.665-43.59,72.63c-30.726,9.911-52.186-1.893-52.186-1.893V248.468z"/>
				<g>
					<path fill="#F8D2A1" d="M474.199,214.941c0,0,3.657,12.673,3.86,18.99c0.204,6.316-2.496,27.762-2.496,27.762l5.817,0.736
						c0,0,5.17-25.561,5.291-33.902c0.121-8.341-4.688-21.855-4.688-21.855L474.199,214.941z"/>
					<path fill="#FF5E69" d="M473.836,215.477c4.224,18.455,2.473,43.188,2.473,43.188l6.313,0.402
						c6.921-14.478,6.272-46.555,2.613-60.051c-2.15-7.93-3.417-15.924-8.782-17.157c-3.354-0.771-10.254,1.684-11.178,4.999
						C463.27,194.052,471.764,206.424,473.836,215.477z"/>
					<path fill="#F8D2A1" d="M472.961,264.883c-1.394,2.653-2.024,4.598-1.204,5.268c0.566,0.462,1.478-2.114,2.578-3.033
						c0.323,1.073,0.366,3.078-0.32,4.766c-0.777,1.913-0.709,3.549,0.744,3.689s3.817,0.045,4.344-1.16
						c0.524-1.204,1.72-6.228,2.366-7.9c0.646-1.672-0.211-3.593,0.035-4.55c0.246-0.958-4.293-2.561-4.293-2.561
						c-0.249,0.385-1.647,2.292-1.647,2.292s-1.179,1.411-1.584,1.668C473.573,263.618,472.961,264.883,472.961,264.883z"/>
				</g>
			</g>
			<g>
				
					<line fill="none" stroke="#D4DBE2" stroke-width="0.25" stroke-miterlimit="10" x1="438.501" y1="5.495" x2="438.501" y2="49.494"/>
				<circle fill="#FFBA01" cx="438.599" cy="65.821" r="7.717"/>
				<polygon fill="#D2DCEB" points="474.938,69.097 402.064,69.097 433.957,45.89 443.045,45.89 				"/>
			</g>
			<g>
				
					<line fill="none" stroke="#D4DBE2" stroke-width="0.25" stroke-miterlimit="10" x1="95.435" y1="5.495" x2="95.435" y2="49.494"/>
				<circle fill="#FFBA01" cx="95.532" cy="65.821" r="7.717"/>
				<polygon fill="#D2DCEB" points="131.872,69.097 58.998,69.097 90.891,45.89 99.979,45.89 				"/>
			</g>
			
				<line fill="none" stroke="#A6AEBA" stroke-width="0.5" stroke-miterlimit="10" x1="16.56" y1="321.785" x2="514.878" y2="321.785"/>
			<g>
				<g>
					<g>
						<path fill="#50CC85" d="M197.707,168.697c0,0,1.538-3.764,4.331-7.117s6.957-8.937,6.957-8.937s-2.031,3.975-4.788,8.464
							C201.449,165.597,197.707,168.697,197.707,168.697z"/>
						<path fill="#50CC85" d="M200.595,162.153c0,0,3.092-2.43,4.949-7.572s3.549-9.058,3.549-9.058s-4.011,5.738-5.735,9.715
							C201.634,159.214,200.595,162.153,200.595,162.153z"/>
						<path fill="#50CC85" d="M197.915,167.968c0,0,1.618-5.882,1.935-10.577c0.318-4.695,0.282-7.644,0.282-7.644
							s-2.04,8.519-2.655,12.137S197.915,167.968,197.915,167.968z"/>
						<path fill="#50CC85" d="M196.53,171.874c0,0,0.518-6.058-1.186-11.478c-1.703-5.419-1.795-8.86-1.795-8.86
							s-0.817,5.674,0.153,10.565C194.673,166.992,196.53,171.874,196.53,171.874z"/>
						<path fill="#50CC85" d="M197.032,170.535c0,0,4.303-3.675,6.478-4.54c2.175-0.864,5.204-3.383,5.204-3.383
							s-3.738,4.786-5.825,5.734C200.801,169.295,197.032,170.535,197.032,170.535z"/>
						<path fill="#50CC85" d="M195.547,175.677c0,0,0.417-3.308-1.506-7.996c-1.922-4.687-2.368-7.005-2.368-7.005
							s-0.114,6.364,1.151,8.752C194.089,171.816,195.547,175.677,195.547,175.677z"/>
						<path fill="#50CC85" d="M195.949,173.268c0,0,2.473-1.65,4.857-1.985c2.384-0.335,3.021-0.659,3.021-0.659
							s-1.206,2.203-4.146,2.574C196.74,173.57,195.949,173.268,195.949,173.268z"/>
						<path fill="#50CC85" d="M194.331,178.834c0.534-2.08,1.223-5.295,1.932-7.444c1.565-4.742,5.29-10.852,5.29-10.852
							c-2.275,5.045-3.936,7.881-5.079,12.231c-0.454,1.725-1.237,4.118-1.661,5.681
							C194.744,178.879,194.401,179.239,194.331,178.834z"/>
					</g>
					<g>
						<path fill="#77E6A6" d="M195.429,170.392c0,0-0.244-4.315-1.891-8.652c-1.648-4.337-3.902-11.389-3.902-11.389
							s0.667,4.697,1.885,10.164S195.429,170.392,195.429,170.392z"/>
						<path fill="#77E6A6" d="M194.79,162.816c0,0-2.268-3.512-2.355-9.323C192.347,147.681,192,143.16,192,143.16
							s2.047,7.155,2.404,11.749C194.762,159.502,194.79,162.816,194.79,162.816z"/>
						<path fill="#77E6A6" d="M195.472,169.588c0,0,0.409-6.472,1.714-11.301c1.305-4.83,2.36-7.781,2.36-7.781
							s-0.896,9.269-1.529,13.118S195.472,169.588,195.472,169.588z"/>
						<path fill="#77E6A6" d="M195.513,173.993c0,0,1.575-6.269,5.162-11.127c3.586-4.858,4.869-8.284,4.869-8.284
							s-1.141,5.986-3.808,10.566S195.513,173.993,195.513,173.993z"/>
						<path fill="#77E6A6" d="M195.471,172.474c0,0-3.054-5.183-4.941-6.804c-1.887-1.622-4.06-5.201-4.06-5.201
							s2.102,6.104,3.872,7.779S195.471,172.474,195.471,172.474z"/>
						<path fill="#77E6A6" d="M195.185,178.156c0,0,0.726-3.469,4.28-7.516c3.554-4.046,4.803-6.223,4.803-6.223
							s-2.086,6.437-4.185,8.399C197.986,174.779,195.185,178.156,195.185,178.156z"/>
						<path fill="#77E6A6" d="M195.615,175.595c0,0-1.915-2.514-4.196-3.675c-2.281-1.161-2.808-1.707-2.808-1.707
							s0.45,2.631,3.276,4.022C194.715,175.625,195.615,175.595,195.615,175.595z"/>
						<path fill="#50CC85" d="M195.315,181.749c0.183-2.275,0.603-5.745,0.633-8.15c0.067-5.309-1.562-12.738-1.562-12.738
							c0.541,5.858,1.229,9.284,0.874,14.052c-0.141,1.89-0.181,4.566-0.296,6.285C194.885,181.652,195.105,182.132,195.315,181.749
							z"/>
					</g>
					<g>
						<path fill="#50CC85" d="M192.157,171.286c0,0-1.538-3.764-4.331-7.117c-2.793-3.354-6.957-8.937-6.957-8.937
							s2.031,3.974,4.788,8.464C188.415,168.187,192.157,171.286,192.157,171.286z"/>
						<path fill="#50CC85" d="M189.269,164.743c0,0-3.092-2.43-4.949-7.572s-3.549-9.058-3.549-9.058s4.012,5.738,5.735,9.714
							C188.23,161.804,189.269,164.743,189.269,164.743z"/>
						<path fill="#50CC85" d="M191.949,170.558c0,0-1.618-5.882-1.935-10.577c-0.317-4.696-0.282-7.644-0.282-7.644
							s2.04,8.519,2.655,12.137S191.949,170.558,191.949,170.558z"/>
						<path fill="#50CC85" d="M193.333,174.463c0,0-0.518-6.058,1.185-11.478c1.703-5.42,1.795-8.86,1.795-8.86
							s0.817,5.674-0.153,10.565C195.19,169.582,193.333,174.463,193.333,174.463z"/>
						<path fill="#50CC85" d="M192.832,173.125c0,0-4.304-3.675-6.479-4.54s-5.204-3.384-5.204-3.384s3.739,4.786,5.826,5.735
							S192.832,173.125,192.832,173.125z"/>
						<path fill="#50CC85" d="M194.316,178.267c0,0-0.417-3.308,1.506-7.995s2.368-7.006,2.368-7.006s0.114,6.364-1.151,8.752
							C195.774,174.406,194.316,178.267,194.316,178.267z"/>
						<path fill="#50CC85" d="M193.915,175.857c0,0-2.472-1.65-4.857-1.985c-2.384-0.334-3.02-0.658-3.02-0.658
							s1.206,2.203,4.146,2.574S193.915,175.857,193.915,175.857z"/>
						<path fill="#50CC85" d="M195.532,181.423c-0.534-2.08-1.223-5.295-1.932-7.443c-1.565-4.742-5.289-10.852-5.289-10.852
							c2.274,5.044,3.936,7.881,5.079,12.231c0.453,1.724,1.236,4.117,1.66,5.681C195.12,181.468,195.463,181.828,195.532,181.423z"
							/>
					</g>
					<polygon fill="#D2DCEB" points="200.997,195.947 189.33,195.947 185.725,175.397 205.021,175.397 					"/>
				</g>
				<g>
					<g>
						<polygon fill="#DCA86E" points="334.291,201.593 353.532,321.898 357.235,321.888 342.012,201.568 						"/>
						<polygon fill="#DCA86E" points="201.652,201.648 176.593,322.073 171.604,322.085 191.25,201.673 						"/>
					</g>
					<rect x="162.206" y="194.561" fill="#DCA86E" width="207.025" height="9.265"/>
					<rect x="152.28" y="194.561" fill="#F3BA7A" width="226.877" height="6.15"/>
				</g>
				<g>
					<g>
						<polygon fill="#A6AEBA" points="315.712,191.318 307.66,191.318 299.607,139.941 305.729,139.941 						"/>
						<polygon fill="#D2DCEB" points="313.4,191.318 281.973,191.318 273.921,139.941 305.349,139.941 						"/>
						<rect x="281.551" y="190.153" fill="#D2DCEB" width="34.161" height="3.833"/>
						<rect x="315.712" y="190.153" fill="#A6AEBA" width="43.072" height="3.833"/>
						<path fill="#A6AEBA" d="M296.141,168.129c0.909,3.933,0.269,8.18-1.431,9.487c-1.699,1.307-3.813-0.822-4.724-4.755
							c-0.909-3.933-0.27-8.18,1.43-9.487C293.115,162.067,295.23,164.196,296.141,168.129z"/>
					</g>
				</g>
				<g>
					<path fill="#A6AEBA" d="M247.253,193.806h-4.458c-1.842,0-3.408-1.342-3.691-3.162l-1.781-11.471h15.401l-1.781,11.471
						C250.662,192.464,249.095,193.806,247.253,193.806z"/>
					<g>
						<path fill="#A6AEBA" d="M251.383,191.362c-0.163,0-0.325-0.006-0.493-0.019l-0.208-0.016l-0.166-0.128
							c-0.112-0.084-2.712-2.121-2.712-5.035c0-2.984,1.982-5.414,4.418-5.414c1.468,0,2.776,0.556,3.587,1.525
							c0.579,0.692,1.192,1.953,0.822,4.013l0,0C256.044,189.537,254.143,191.362,251.383,191.362z M251.215,189.957
							c2.812,0.09,3.7-2.067,4.034-3.917l0,0c0.221-1.225,0.046-2.189-0.519-2.863c-0.542-0.65-1.457-1.023-2.509-1.023
							c-1.662,0-3.015,1.799-3.015,4.011C249.207,188.025,250.719,189.515,251.215,189.957z"/>
					</g>
				</g>
				<polygon fill="#D2DCEB" points="235.789,194.814 255.309,194.814 258.422,191.367 232.675,191.367 				"/>
			</g>
			<g>
				<rect x="38.948" y="119.823" fill="#B6BFCC" width="93.404" height="202.035"/>
				<rect x="49.701" y="128.65" fill="#D2DCEB" width="71.899" height="21.185"/>
				<path fill="#FFFFFF" d="M94.249,141.811H77.051c-0.442,0-0.8-0.358-0.8-0.8v-3.536c0-0.442,0.358-0.8,0.8-0.8h17.198
					c0.441,0,0.8,0.358,0.8,0.8v3.536C95.049,141.452,94.69,141.811,94.249,141.811z"/>
				<rect x="49.701" y="155.61" fill="#D2DCEB" width="71.899" height="21.185"/>
				<path fill="#FFFFFF" d="M94.249,168.77H77.051c-0.442,0-0.8-0.358-0.8-0.8v-3.536c0-0.441,0.358-0.8,0.8-0.8h17.198
					c0.441,0,0.8,0.358,0.8,0.8v3.536C95.049,168.412,94.69,168.77,94.249,168.77z"/>
				<rect x="49.701" y="182.57" fill="#D2DCEB" width="71.899" height="21.184"/>
				<path fill="#FFFFFF" d="M94.249,195.729H77.051c-0.442,0-0.8-0.358-0.8-0.8v-3.536c0-0.442,0.358-0.8,0.8-0.8h17.198
					c0.441,0,0.8,0.358,0.8,0.8v3.536C95.049,195.372,94.69,195.729,94.249,195.729z"/>
				<rect x="49.701" y="209.833" fill="#D2DCEB" width="71.899" height="103.841"/>
				<path fill="#FFFFFF" d="M94.249,222.993H77.051c-0.442,0-0.8-0.358-0.8-0.801v-3.535c0-0.442,0.358-0.8,0.8-0.8h17.198
					c0.441,0,0.8,0.357,0.8,0.8v3.535C95.049,222.635,94.69,222.993,94.249,222.993z"/>
			</g>
		</g>
		<g>
			<path display="none" fill="#50CC85" d="M324.075,374.288H207.362c-2.901,0-5.252-2.352-5.252-5.253v-16.424
				c0-2.901,2.351-5.253,5.252-5.253h116.713c2.9,0,5.253,2.352,5.253,5.252v16.425
				C329.328,371.937,326.976,374.288,324.075,374.288z"/>
			
				<text transform="matrix(1 0 0 1.01 216.2388 364.3828)" display="none" fill="#FFFFFF" font-family="'Roboto-Medium'" font-size="12.2841">Back to Homepage</text>
		</g>
	</g>
</g>
<g id="DESIGNED_BY_FREEPIK" display="none">
	<g display="inline">
		<g id="XMLID_319_">
			<g id="XMLID_338_">
				<path id="XMLID_346_" fill="#2A2A2A" d="M275.823,413.898c-0.433,0.443-0.804,0.932-1.108,1.453l-0.466-0.24
					c-0.066-0.298-0.349-0.503-0.658-0.467c-0.331,0.039-0.568,0.339-0.529,0.67s0.339,0.567,0.67,0.529
					c0.065-0.008,0.127-0.026,0.184-0.053l0.451,0.234c-0.251,0.554-0.433,1.139-0.539,1.744l0.746,0.131
					c0.23-1.306,0.85-2.506,1.792-3.473L275.823,413.898z"/>
				<path id="XMLID_345_" fill="#2A2A2A" d="M281.311,411.597c-0.171,0-0.341,0.006-0.51,0.018l-0.073-0.627
					c0.188-0.148,0.296-0.389,0.266-0.645c-0.046-0.393-0.402-0.674-0.796-0.628c-0.393,0.047-0.674,0.402-0.628,0.796
					c0.03,0.254,0.189,0.461,0.405,0.563l0.073,0.624c-0.714,0.116-1.403,0.332-2.06,0.646l0.327,0.684
					c0.934-0.447,1.941-0.674,2.995-0.674c0.496,0,0.993,0.054,1.475,0.158l0.161-0.741
					C282.411,411.655,281.861,411.597,281.311,411.597z"/>
				<path id="XMLID_344_" fill="#2A2A2A" d="M287.913,414.145c0.331-0.041,0.566-0.342,0.525-0.673
					c-0.04-0.331-0.342-0.566-0.672-0.525c-0.31,0.038-0.535,0.304-0.53,0.608l-0.416,0.363c-0.418-0.43-0.89-0.812-1.408-1.139
					l-0.403,0.641c1.134,0.715,2.021,1.727,2.563,2.926l0.69-0.312c-0.251-0.555-0.567-1.072-0.942-1.546l0.402-0.351
					C287.783,414.149,287.848,414.152,287.913,414.145z"/>
				<path id="XMLID_343_" fill="#2A2A2A" d="M280.763,421.806c-0.386,0.022-0.774,0.034-1.157,0.034
					c-0.88,0-1.732-0.061-2.478-0.179c-0.391-0.062-0.847-0.155-1.271-0.292c1.046,1.86,3.069,3.125,5.389,3.125
					c2.855,0,5.262-1.916,5.949-4.504c-0.682,0.449-1.506,0.825-2.459,1.122C283.558,421.48,282.183,421.72,280.763,421.806z"/>
				<path id="XMLID_339_" fill="#2A2A2A" d="M281.311,413.113c-3.353,0-6.079,2.666-6.079,5.943c0,0.426,0.046,0.849,0.137,1.261
					c0.674,0.483,2.706,0.891,5.348,0.731c2.879-0.174,5.297-0.957,6.672-2.158c-0.005-0.195-0.021-0.391-0.045-0.582
					C286.963,415.347,284.369,413.113,281.311,413.113z M279.151,419.628c-1.021,0-1.85-0.83-1.85-1.85
					c0-1.021,0.829-1.85,1.85-1.85c1.02,0,1.85,0.829,1.85,1.85C281.001,418.798,280.171,419.628,279.151,419.628z M283.889,418.72
					c-0.75,0-1.36-0.61-1.36-1.36s0.61-1.36,1.36-1.36s1.36,0.61,1.36,1.36S284.639,418.72,283.889,418.72z"/>
			</g>
			<path id="XMLID_336_" fill="#2A2A2A" d="M297.314,414.98c-0.295-0.116-0.806-0.31-1.383-0.237
				c-0.551,0.068-0.844,0.34-0.844,1.006v0.866h2.228v1.718h-2.228v5.454h-1.932v-5.454h-1.34v-1.718h1.34v-0.888
				c0-1.681,0.896-2.783,2.568-2.783c0.643,0,1.157,0.122,1.59,0.309V414.98z"/>
			<path id="XMLID_334_" fill="#2A2A2A" d="M302.017,418.312c-0.177-0.03-0.357-0.047-0.526-0.047c-0.896,0-1.51,0.548-1.51,1.614
				v3.907h-1.932v-7.172h1.873v0.785c0.451-0.674,1.14-0.978,2.021-0.978c0.414,0,0.848,0.128,1.094,0.337L302.017,418.312z"/>
			<path id="XMLID_331_" fill="#2A2A2A" d="M309.684,420.19c0,0.222-0.015,0.488-0.037,0.651h-5.084
				c0.207,1.036,0.933,1.487,1.843,1.487c0.621,0,1.295-0.251,1.813-0.688l1.132,1.244c-0.813,0.747-1.851,1.088-3.057,1.088
				c-2.198,0-3.723-1.495-3.723-3.753c0-2.257,1.48-3.797,3.626-3.797C308.263,416.423,309.677,417.955,309.684,420.19z
				 M304.569,419.524h3.175c-0.177-0.918-0.732-1.437-1.562-1.437C305.272,418.088,304.74,418.636,304.569,419.524z"/>
			<path id="XMLID_328_" fill="#2A2A2A" d="M317.337,420.19c0,0.222-0.015,0.488-0.037,0.651h-5.084
				c0.207,1.036,0.933,1.487,1.843,1.487c0.621,0,1.295-0.251,1.813-0.688l1.132,1.244c-0.814,0.747-1.851,1.088-3.057,1.088
				c-2.198,0-3.723-1.495-3.723-3.753c0-2.257,1.48-3.797,3.626-3.797C315.916,416.423,317.33,417.955,317.337,420.19z
				 M312.223,419.524h3.176c-0.178-0.918-0.733-1.437-1.562-1.437C312.926,418.088,312.393,418.636,312.223,419.524z"/>
			<path id="XMLID_325_" fill="#2A2A2A" d="M325.683,420.198c0,2.153-1.495,3.774-3.471,3.774c-0.963,0-1.644-0.378-2.109-0.933
				v3.708h-1.925v-10.133h1.888v0.792c0.466-0.585,1.154-0.984,2.139-0.984C324.188,416.423,325.683,418.044,325.683,420.198z
				 M320.006,420.198c0,1.132,0.748,1.976,1.843,1.976c1.14,0,1.851-0.881,1.851-1.976c0-1.096-0.711-1.977-1.851-1.977
				C320.754,418.222,320.006,419.065,320.006,420.198z"/>
			<path id="XMLID_322_" fill="#2A2A2A" d="M328.786,414.27c0,0.695-0.54,1.229-1.235,1.229c-0.696,0-1.229-0.533-1.229-1.229
				c0-0.696,0.533-1.244,1.229-1.244C328.246,413.025,328.786,413.573,328.786,414.27z M328.527,423.787h-1.932v-7.172h1.932
				V423.787z"/>
			<path id="XMLID_320_" fill="#2A2A2A" d="M331.751,419.169l2.701-2.554h2.369l-3.479,3.375l3.501,3.797h-2.376l-2.716-2.901v2.901
				h-1.932v-10.658h1.932V419.169z"/>
		</g>
		<g>
			<path fill="#2A2A2A" d="M200.131,423.723v-1.055c-0.527,0.718-1.392,1.23-2.388,1.23c-1.846,0-3.149-1.406-3.149-3.706
				c0-2.256,1.289-3.721,3.149-3.721c0.952,0,1.816,0.469,2.388,1.245v-3.765h1.099v9.771H200.131z M200.131,421.804v-3.208
				c-0.396-0.615-1.245-1.143-2.124-1.143c-1.421,0-2.271,1.172-2.271,2.739s0.85,2.725,2.271,2.725
				C198.886,422.917,199.736,422.419,200.131,421.804z"/>
			<path fill="#2A2A2A" d="M202.651,420.178c0-2.051,1.464-3.706,3.486-3.706c2.139,0,3.398,1.67,3.398,3.794v0.278h-5.728
				c0.088,1.333,1.025,2.446,2.549,2.446c0.806,0,1.626-0.322,2.183-0.894l0.527,0.718c-0.703,0.703-1.655,1.084-2.812,1.084
				C204.159,423.898,202.651,422.39,202.651,420.178z M206.122,417.38c-1.509,0-2.256,1.274-2.314,2.358h4.644
				C208.437,418.684,207.733,417.38,206.122,417.38z"/>
			<path fill="#2A2A2A" d="M210.326,422.785l0.571-0.791c0.469,0.542,1.362,1.011,2.329,1.011c1.084,0,1.67-0.513,1.67-1.216
				c0-1.714-4.38-0.659-4.38-3.281c0-1.099,0.952-2.036,2.637-2.036c1.201,0,2.051,0.454,2.622,1.025l-0.513,0.762
				c-0.424-0.513-1.201-0.894-2.109-0.894c-0.967,0-1.567,0.483-1.567,1.113c0,1.553,4.379,0.527,4.379,3.281
				c0,1.187-0.952,2.139-2.783,2.139C212.025,423.898,211.043,423.547,210.326,422.785z"/>
			<path fill="#2A2A2A" d="M217.196,414.904c0-0.41,0.337-0.747,0.732-0.747c0.41,0,0.747,0.337,0.747,0.747
				s-0.336,0.732-0.747,0.732C217.533,415.637,217.196,415.314,217.196,414.904z M217.386,423.723v-7.075h1.099v7.075H217.386z"/>
			<path fill="#2A2A2A" d="M220.301,425.539l0.557-0.82c0.586,0.703,1.289,0.967,2.3,0.967c1.172,0,2.27-0.571,2.27-2.124v-1.011
				c-0.512,0.718-1.376,1.26-2.373,1.26c-1.845,0-3.149-1.377-3.149-3.662c0-2.271,1.289-3.677,3.149-3.677
				c0.952,0,1.802,0.469,2.373,1.245v-1.069h1.099v6.87c0,2.344-1.641,3.076-3.369,3.076
				C221.956,426.594,221.136,426.359,220.301,425.539z M225.427,421.687v-3.091c-0.381-0.615-1.23-1.143-2.109-1.143
				c-1.421,0-2.271,1.128-2.271,2.695c0,1.553,0.849,2.695,2.271,2.695C224.197,422.844,225.046,422.302,225.427,421.687z"/>
			<path fill="#2A2A2A" d="M233.132,423.723v-4.629c0-1.245-0.629-1.641-1.582-1.641c-0.865,0-1.685,0.527-2.095,1.099v5.171h-1.099
				v-7.075h1.099v1.025c0.498-0.586,1.464-1.201,2.519-1.201c1.479,0,2.256,0.747,2.256,2.285v4.966H233.132z"/>
			<path fill="#2A2A2A" d="M235.651,420.178c0-2.051,1.465-3.706,3.486-3.706c2.138,0,3.398,1.67,3.398,3.794v0.278h-5.728
				c0.088,1.333,1.025,2.446,2.549,2.446c0.806,0,1.625-0.322,2.183-0.894l0.527,0.718c-0.703,0.703-1.655,1.084-2.812,1.084
				C237.16,423.898,235.651,422.39,235.651,420.178z M239.123,417.38c-1.509,0-2.256,1.274-2.314,2.358h4.643
				C241.437,418.684,240.734,417.38,239.123,417.38z"/>
			<path fill="#2A2A2A" d="M249.069,423.723v-1.055c-0.527,0.718-1.392,1.23-2.388,1.23c-1.845,0-3.149-1.406-3.149-3.706
				c0-2.256,1.289-3.721,3.149-3.721c0.952,0,1.817,0.469,2.388,1.245v-3.765h1.099v9.771H249.069z M249.069,421.804v-3.208
				c-0.396-0.615-1.245-1.143-2.124-1.143c-1.421,0-2.271,1.172-2.271,2.739s0.85,2.725,2.271,2.725
				C247.824,422.917,248.673,422.419,249.069,421.804z"/>
			<path fill="#2A2A2A" d="M255.411,423.723v-9.771h1.099v3.765c0.572-0.776,1.421-1.245,2.388-1.245
				c1.846,0,3.149,1.465,3.149,3.721c0,2.3-1.304,3.706-3.149,3.706c-0.996,0-1.86-0.513-2.388-1.23v1.055H255.411z
				 M258.619,422.917c1.436,0,2.285-1.157,2.285-2.725s-0.85-2.739-2.285-2.739c-0.864,0-1.729,0.527-2.109,1.143v3.208
				C256.89,422.419,257.754,422.917,258.619,422.917z"/>
			<path fill="#2A2A2A" d="M263.247,425.495c0.161,0.073,0.425,0.117,0.601,0.117c0.483,0,0.805-0.161,1.055-0.747l0.468-1.069
				l-2.959-7.148h1.187l2.358,5.801l2.344-5.801h1.201l-3.545,8.511c-0.425,1.025-1.143,1.421-2.08,1.436
				c-0.234,0-0.601-0.044-0.805-0.103L263.247,425.495z"/>
		</g>
	</g>
</g>
</svg>
