<?xml version="1.0" encoding="utf-8"?>
<!-- Generator: Adobe Illustrator 16.0.0, SVG Export Plug-In . SVG Version: 6.00 Build 0)  -->
<!DOCTYPE svg PUBLIC "-//W3C//DTD SVG 1.1//EN" "http://www.w3.org/Graphics/SVG/1.1/DTD/svg11.dtd">
<svg version="1.1" id="Ğ¡Ğ»Ğ¾Ğ¹_1" xmlns="http://www.w3.org/2000/svg" xmlns:xlink="http://www.w3.org/1999/xlink" x="0px" y="0px"
	 width="174px" height="170px" viewBox="0 0 174 170" enable-background="new 0 0 174 170" xml:space="preserve">
<g>
	<rect x="-294.5" y="-160.1" display="none" fill="#FFFFFF" width="664.7" height="518.6"/>
	<g>
		<path fill="#FFFFFF" d="M151.6,110.8c2.5-6.1,4-12.399,4.7-18.8l12.8-4.7L166.9,72.6l-2.2-14.7L151,57.2
			c-2.5-5.9-5.8-11.5-10-16.6l5.8-12.4L134.9,19.4L123,10.6l-10.1,9.2c-6.101-2.5-12.4-4-18.801-4.7L89.4,2.2L74.7,4.4L60,6.6
			l-0.7,13.6c-5.9,2.5-11.5,5.8-16.6,10l-12.4-5.8l-8.8,11.9l-8.8,11.9l9.2,10.1c-2.5,6.1-4,12.4-4.7,18.8L4.3,82l2.2,14.7l2.2,14.7
			l13.6,0.699c2.5,5.9,5.8,11.5,10,16.601L26.6,141l11.9,8.8l11.9,8.8l10.1-9.199c6.1,2.5,12.4,4,18.8,4.699L84,167l14.7-2.2
			l14.7-2.2L114.1,149c5.9-2.5,11.5-5.8,16.601-10l12.399,5.8L151.9,132.9l8.8-11.9L151.6,110.8z M65.1,113.9
			c-16.2-12-19.6-34.7-7.6-50.9s34.7-19.6,50.9-7.6c16.199,12,19.6,34.7,7.6,50.9C104,122.4,81.2,125.8,65.1,113.9z"/>
		<path display="none" fill="#FFFFFF" d="M32.9-10.5C31.6-16,29.5-21.2,26.7-26l6.6-9.7l-8.9-9.1L15.5-54l-9.9,6.4
			c-4.7-2.9-9.9-5.1-15.4-6.6L-12-65.7l-12.8-0.1L-37.5-66L-40-54.5c-5.5,1.4-10.7,3.5-15.5,6.2l-9.7-6.6l-9.1,8.9l-9.1,8.9l6.4,9.9
			c-2.9,4.7-5.1,9.9-6.6,15.4l-11.6,2.2l-0.1,12.8L-95.5,16l11.5,2.4c1.4,5.5,3.5,10.7,6.2,15.5l-6.6,9.7l8.9,9.1l8.9,9.1l9.9-6.4
			c4.7,2.9,9.9,5.1,15.4,6.6l2.2,11.6l12.8,0.1l12.8,0.1l2.4-11.5c5.5-1.4,10.7-3.5,15.5-6.2l9.7,6.6l9.1-8.9l9.1-8.9L26,35.1
			c2.9-4.7,5.1-9.9,6.6-15.4l11.6-2.2l0.1-12.8L44.4-8L32.9-10.5z M-25.9,35.3c-17.3-0.2-31.2-14.4-31-31.7
			c0.2-17.3,14.4-31.2,31.7-31C-7.9-27.2,6-13,5.8,4.3C5.6,21.6-8.6,35.5-25.9,35.3z"/>
	</g>
</g>
<linearGradient id="SVGID_1_" gradientUnits="userSpaceOnUse" x1="325.7998" y1="-312.5996" x2="398.5996" y2="-312.5996" gradientTransform="matrix(1 0 0 -1 -275.5 -228)">
	<stop  offset="0" style="stop-color:#96CBFF"/>
	<stop  offset="1" style="stop-color:#5599FF"/>
</linearGradient>
<ellipse display="none" fill="url(#SVGID_1_)" cx="86.7" cy="84.6" rx="36.399" ry="36.5"/>
<text transform="matrix(1 0 0 1 19.1982 114.5811)" display="none" fill="#FFFFFF" enable-background="new    " font-family="'MyriadPro-Bold'" font-size="90">&lt;/&gt;</text>
<g>
	<g>
		<path fill="#D5DBE6" d="M99,71.8l0.1,3.3c0,0,5.101-1.1,5.2,6.3c-0.1,7.4-5.2,11.1-5.2,11.1L99,95.9c0,0,8.3-5.601,8.4-15.9
			C107.3,69.8,99,71.8,99,71.8z"/>
		<path fill="#F7F5F5" d="M101.3,71.8l0.101,3.3c0,0,5.1-1.1,5.199,6.3c-0.1,7.4-5.199,11.1-5.199,11.1l-0.101,3.3
			c0,0,8.3-5.6,8.4-15.9C109.6,69.8,101.3,71.8,101.3,71.8z"/>
	</g>
	<rect x="70.2" y="69.1" fill="#D5DBE6" width="32.399" height="29.6"/>
	<path fill="#F7F5F5" d="M97.8,62.5c6.3,3.7,6.3,9.6,0,13.2c-6.3,3.7-16.6,3.7-22.9,0c-6.3-3.6-6.3-9.6,0-13.2
		C81.2,58.8,91.5,58.8,97.8,62.5z"/>
	<path fill="#1B0C05" d="M101,69.1c0,0.6-0.2,1.3-0.5,1.9c-0.6,1.2-1.8,2.4-3.5,3.3c-2.8,1.6-6.6,2.5-10.7,2.5
		c-4.1,0-7.8-0.9-10.7-2.5c-1.7-1-2.9-2.1-3.5-3.3c-0.3-0.6-0.5-1.3-0.5-1.9c0-1.9,1.4-3.8,4-5.3c2.8-1.6,6.6-2.5,10.7-2.5
		c4.101,0,7.8,0.9,10.7,2.5C99.6,65.3,101,67.2,101,69.1z"/>
	<path fill="#D5DBE6" d="M97.8,92.1c6.3,3.601,6.3,9.601,0,13.2c-6.3,3.7-16.6,3.7-22.9,0c-6.3-3.6-6.3-9.6,0-13.2
		C81.2,88.4,91.5,88.4,97.8,92.1z"/>
	<path fill="#5B5650" d="M100.5,71c-0.6,1.2-1.8,2.4-3.5,3.3c-2.8,1.6-6.6,2.5-10.7,2.5c-4.1,0-7.8-0.9-10.7-2.5
		c-1.7-1-2.9-2.1-3.5-3.3c0.6-1.2,1.8-2.4,3.5-3.3c2.8-1.6,6.6-2.5,10.7-2.5c4.101,0,7.8,0.9,10.7,2.5C98.7,68.6,99.9,69.8,100.5,71
		z"/>
</g>
</svg>
