<?xml version="1.0" encoding="utf-8"?>
<!-- Generator: Adobe Illustrator 16.0.0, SVG Export Plug-In . SVG Version: 6.00 Build 0)  -->
<!DOCTYPE svg PUBLIC "-//W3C//DTD SVG 1.1//EN" "http://www.w3.org/Graphics/SVG/1.1/DTD/svg11.dtd">
<svg version="1.1" id="Ğ¡Ğ»Ğ¾Ğ¹_1" xmlns="http://www.w3.org/2000/svg" xmlns:xlink="http://www.w3.org/1999/xlink" x="0px" y="0px"
	 width="174px" height="170px" viewBox="0 0 174 170" style="enable-background:new 0 0 174 170;" xml:space="preserve">
<style type="text/css">
<![CDATA[
	.st0{display:none;fill:#FFFFFF;}
	.st1{fill:#1B0C05;}
	.st2{display:none;fill:url(#SVGID_1_);}
	.st3{fill:#5B5650;}
	.st4{fill:#F7F5F5;}
	.st5{fill:#FFFFFF;}
	.st6{opacity:0.5;fill:#D5DBE6;}
	.st7{font-size:90;}
	.st8{fill:#D5DBE6;}
	.st9{font-family:'MyriadPro-Bold';}
]]>
</style>
<g>
	<rect x="-294.5" y="-160.1" class="st0" width="664.7" height="518.6"/>
	<g>
		<path class="st5" d="M151.6,110.8c2.5-6.1,4-12.4,4.7-18.8l12.8-4.7l-2.2-14.7l-2.2-14.7L151,57.2c-2.5-5.9-5.8-11.5-10-16.6
			l5.8-12.4l-11.9-8.8L123,10.6l-10.1,9.2c-6.1-2.5-12.4-4-18.8-4.7L89.4,2.2L74.7,4.4L60,6.6l-0.7,13.6c-5.9,2.5-11.5,5.8-16.6,10
			l-12.4-5.8l-8.8,11.9l-8.8,11.9l9.2,10.1c-2.5,6.1-4,12.4-4.7,18.8L4.3,82l2.2,14.7l2.2,14.7l13.6,0.7c2.5,5.9,5.8,11.5,10,16.6
			L26.6,141l11.9,8.8l11.9,8.8l10.1-9.2c6.1,2.5,12.4,4,18.8,4.7L84,167l14.7-2.2l14.7-2.2l0.7-13.6c5.9-2.5,11.5-5.8,16.6-10
			l12.4,5.8l8.8-11.9l8.8-11.9L151.6,110.8z M65.1,113.9c-16.2-12-19.6-34.7-7.6-50.9s34.7-19.6,50.9-7.6
			c16.2,12,19.6,34.7,7.6,50.9C104,122.4,81.2,125.8,65.1,113.9z"/>
		<path class="st0" d="M32.9-10.5C31.6-16,29.5-21.2,26.7-26l6.6-9.7l-8.9-9.1L15.5-54l-9.9,6.4c-4.7-2.9-9.9-5.1-15.4-6.6L-12-65.7
			l-12.8-0.1L-37.5-66L-40-54.5c-5.5,1.4-10.7,3.5-15.5,6.2l-9.7-6.6l-9.1,8.9l-9.1,8.9l6.4,9.9c-2.9,4.7-5.1,9.9-6.6,15.4
			l-11.6,2.2l-0.1,12.8L-95.5,16l11.5,2.4c1.4,5.5,3.5,10.7,6.2,15.5l-6.6,9.7l8.9,9.1l8.9,9.1l9.9-6.4c4.7,2.9,9.9,5.1,15.4,6.6
			l2.2,11.6l12.8,0.1l12.8,0.1l2.4-11.5c5.5-1.4,10.7-3.5,15.5-6.2l9.7,6.6l9.1-8.9l9.1-8.9L26,35.1c2.9-4.7,5.1-9.9,6.6-15.4
			l11.6-2.2l0.1-12.8L44.4-8L32.9-10.5z M-25.9,35.3c-17.3-0.2-31.2-14.4-31-31.7s14.4-31.2,31.7-31S6-13,5.8,4.3
			S-8.6,35.5-25.9,35.3z"/>
	</g>
</g>
<linearGradient id="SVGID_1_" gradientUnits="userSpaceOnUse" x1="50.2988" y1="84.6162" x2="123.0977" y2="84.6162">
	<stop  offset="0" style="stop-color:#96CBFF"/>
	<stop  offset="1" style="stop-color:#5599FF"/>
</linearGradient>
<ellipse class="st2" cx="86.7" cy="84.6" rx="36.4" ry="36.5"/>
<text transform="matrix(1 0 0 1 19.1982 114.5806)" class="st0 st9 st7">&lt;/&gt;</text>
<g>
	<g>
		<path class="st8" d="M99,71.8l0.1,3.3c0,0,5.1-1.1,5.2,6.3c-0.1,7.4-5.2,11.1-5.2,11.1L99,95.9c0,0,8.3-5.6,8.4-15.9
			C107.3,69.8,99,71.8,99,71.8z"/>
		<path class="st4" d="M101.3,71.8l0.1,3.3c0,0,5.1-1.1,5.2,6.3c-0.1,7.4-5.2,11.1-5.2,11.1l-0.1,3.3c0,0,8.3-5.6,8.4-15.9
			C109.6,69.8,101.3,71.8,101.3,71.8z"/>
	</g>
	<rect x="70.2" y="69.1" class="st8" width="32.4" height="29.6"/>
	<path class="st4" d="M97.8,62.5c6.3,3.7,6.3,9.6,0,13.2c-6.3,3.7-16.6,3.7-22.9,0c-6.3-3.6-6.3-9.6,0-13.2
		C81.2,58.8,91.5,58.8,97.8,62.5z"/>
	<path class="st1" d="M101,69.1c0,0.6-0.2,1.3-0.5,1.9c-0.6,1.2-1.8,2.4-3.5,3.3c-2.8,1.6-6.6,2.5-10.7,2.5c-4.1,0-7.8-0.9-10.7-2.5
		c-1.7-1-2.9-2.1-3.5-3.3c-0.3-0.6-0.5-1.3-0.5-1.9c0-1.9,1.4-3.8,4-5.3c2.8-1.6,6.6-2.5,10.7-2.5c4.1,0,7.8,0.9,10.7,2.5
		C99.6,65.3,101,67.2,101,69.1z"/>
	<path class="st8" d="M97.8,92.1c6.3,3.6,6.3,9.6,0,13.2c-6.3,3.7-16.6,3.7-22.9,0c-6.3-3.6-6.3-9.6,0-13.2
		C81.2,88.4,91.5,88.4,97.8,92.1z"/>
	<path class="st3" d="M100.5,71c-0.6,1.2-1.8,2.4-3.5,3.3c-2.8,1.6-6.6,2.5-10.7,2.5c-4.1,0-7.8-0.9-10.7-2.5
		c-1.7-1-2.9-2.1-3.5-3.3c0.6-1.2,1.8-2.4,3.5-3.3c2.8-1.6,6.6-2.5,10.7-2.5c4.1,0,7.8,0.9,10.7,2.5C98.7,68.6,99.9,69.8,100.5,71z"
		/>
	<path class="st6" d="M94.7,42.6c0,0,0.1,0.1,0.2,0.2c0.1,0.1,0.2,0.3,0.4,0.6c0.3,0.5,0.7,1.3,0.9,2.3c0.1,0.5,0.2,1.1,0.2,1.7
		c0,0.3,0,0.6,0,0.9c0,0.3-0.1,0.6-0.1,1c0,0.3-0.1,0.6-0.2,0.9c-0.1,0.3-0.1,0.6-0.2,1c-0.2,0.6-0.4,1.3-0.5,1.9
		c-0.2,0.6-0.4,1.2-0.5,1.8c-0.1,0.6-0.2,1.2-0.2,1.7c0,0.1,0,0.2,0,0.4c0,0.1,0.1,0.3,0.1,0.4c0,0.1,0.1,0.3,0.1,0.4
		c0,0.2,0.1,0.3,0.1,0.5c0.1,0.6,0,1.2,0,1.7c0,0.5-0.1,1-0.2,1.4c-0.1,0.4-0.2,0.8-0.2,1C94.2,63,94,63.3,94,63.3s0-0.3,0-0.9
		c0-0.6-0.1-1.4-0.2-2.4c-0.1-0.5-0.1-1-0.3-1.5c0-0.1-0.1-0.2-0.1-0.3c0-0.1-0.1-0.3-0.2-0.4l0,0c0,0,0,0,0,0l0,0l0,0l0-0.1l0-0.1
		l-0.1-0.3c0-0.2-0.1-0.4-0.1-0.5c-0.1-0.7,0-1.5,0.1-2.1c0.1-0.7,0.3-1.3,0.5-2c0.2-0.6,0.4-1.3,0.6-1.9c0.2-0.6,0.3-1.2,0.5-1.8
		c0.1-0.3,0.1-0.6,0.2-0.8c0-0.3,0.1-0.6,0.1-0.8c0.1-0.5,0.1-1,0.1-1.5c0-0.5,0-0.9-0.1-1.3c-0.1-0.4-0.1-0.7-0.2-1
		C94.8,42.9,94.7,42.6,94.7,42.6z"/>
	<path class="st6" d="M88,46.4c0,0,0.1,0.1,0.2,0.2c0.1,0.1,0.2,0.3,0.4,0.6c0.3,0.5,0.7,1.3,0.9,2.3c0.1,0.5,0.2,1.1,0.2,1.7
		c0,0.3,0,0.6,0,0.9c0,0.3-0.1,0.6-0.1,1c0,0.3-0.1,0.6-0.2,1c-0.1,0.3-0.1,0.6-0.2,1c-0.2,0.6-0.4,1.3-0.5,1.9
		c-0.2,0.6-0.4,1.2-0.5,1.8c-0.1,0.6-0.2,1.2-0.2,1.7c0,0.1,0,0.2,0,0.4c0,0.1,0.1,0.3,0.1,0.4c0,0.1,0.1,0.3,0.1,0.4
		c0,0.2,0.1,0.3,0.1,0.5c0.1,0.6,0,1.2,0,1.7c0,0.5-0.1,1-0.2,1.4c-0.1,0.4-0.2,0.8-0.2,1c-0.2,0.6-0.3,0.9-0.3,0.9s0-0.3,0-0.9
		c0-0.6-0.1-1.4-0.2-2.4c-0.1-0.5-0.1-1-0.3-1.5c0-0.1-0.1-0.2-0.1-0.3c0-0.1-0.1-0.3-0.2-0.4l0,0c0,0,0,0,0,0l0,0l0,0l0-0.1l0-0.1
		l-0.1-0.3c0-0.2-0.1-0.4-0.1-0.5c-0.1-0.7,0-1.5,0.1-2.1c0.1-0.7,0.3-1.3,0.5-2c0.2-0.6,0.4-1.3,0.6-1.9c0.2-0.6,0.3-1.2,0.5-1.8
		c0.1-0.3,0.1-0.6,0.2-0.8c0-0.3,0.1-0.5,0.1-0.8c0.1-0.5,0.1-1,0.1-1.5c0-0.5,0-0.9-0.1-1.3c-0.1-0.4-0.1-0.7-0.2-1
		C88.2,46.7,88,46.4,88,46.4z"/>
	<path class="st6" d="M81.2,46.4c0,0,0.1,0.1,0.2,0.2c0.1,0.1,0.2,0.3,0.4,0.6c0.3,0.5,0.7,1.3,0.9,2.3c0.1,0.5,0.2,1.1,0.2,1.7
		c0,0.3,0,0.6,0,0.9c0,0.3-0.1,0.6-0.1,1c0,0.3-0.1,0.6-0.2,1c-0.1,0.3-0.1,0.6-0.2,1c-0.2,0.6-0.4,1.3-0.5,1.9
		c-0.2,0.6-0.4,1.2-0.5,1.8c-0.1,0.6-0.2,1.2-0.2,1.7c0,0.1,0,0.2,0,0.4c0,0.1,0.1,0.3,0.1,0.4c0,0.1,0.1,0.3,0.1,0.4
		c0,0.2,0.1,0.3,0.1,0.5c0.1,0.6,0,1.2,0,1.7c0,0.5-0.1,1-0.2,1.4c-0.1,0.4-0.2,0.8-0.2,1c-0.2,0.6-0.3,0.9-0.3,0.9s0-0.3,0-0.9
		c0-0.6-0.1-1.4-0.2-2.4c-0.1-0.5-0.1-1-0.3-1.5c0-0.1-0.1-0.2-0.1-0.3c0-0.1-0.1-0.3-0.2-0.4l0,0c0,0,0,0,0,0l0,0l0,0l0-0.1l0-0.1
		l-0.1-0.3c0-0.2-0.1-0.4-0.1-0.5c-0.1-0.7,0-1.5,0.1-2.1c0.1-0.7,0.3-1.3,0.5-2c0.2-0.6,0.4-1.3,0.6-1.9c0.2-0.6,0.3-1.2,0.5-1.8
		c0.1-0.3,0.1-0.6,0.2-0.8c0-0.3,0.1-0.5,0.1-0.8c0.1-0.5,0.1-1,0.1-1.5c0-0.5,0-0.9-0.1-1.3c-0.1-0.4-0.1-0.7-0.2-1
		C81.3,46.7,81.2,46.4,81.2,46.4z"/>
</g>
</svg>
