<?xml version="1.0" encoding="utf-8"?>
<!-- Generator: Adobe Illustrator 16.0.0, SVG Export Plug-In . SVG Version: 6.00 Build 0)  -->
<!DOCTYPE svg PUBLIC "-//W3C//DTD SVG 1.1//EN" "http://www.w3.org/Graphics/SVG/1.1/DTD/svg11.dtd">
<svg version="1.1" id="Layer_1" xmlns="http://www.w3.org/2000/svg" xmlns:xlink="http://www.w3.org/1999/xlink" x="0px" y="0px"
	 width="817.824px" height="544.676px" viewBox="0 0 817.824 544.676" enable-background="new 0 0 817.824 544.676"
	 xml:space="preserve">
<g transform="translate(296.98 64.867)">
	<rect x="-296.98" y="-64.867" display="none" fill="#81D4FA" width="817.843" height="544.674"/>
	<path fill="#4D4D4D" d="M-121.131,338.772h54.691v85.824c-17.142-0.967-34.965,1.74-54.691,0V338.772z"/>
	<path fill="#333333" d="M-121.131,338.772h54.691v45.221c-17.142-0.512-34.965,0.916-54.691,0V338.772z"/>
	<rect x="-232.5" y="-2.565" fill="#C5E1A5" width="277.121" height="362.546"/>
	<rect x="-203.403" y="-2.565" fill="#FFFFFF" width="218.929" height="362.546"/>
	<g transform="translate(-1.4374 .30535)">
		<circle fill="#7986CB" cx="9.732" cy="8.069" r="3.776"/>
		<circle fill="#7986CB" cx="-1.091" cy="8.069" r="3.776"/>
		<circle fill="#7986CB" cx="-11.662" cy="8.069" r="3.776"/>
	</g>
	<path fill="#4D4D4D" d="M-242.812,373.405H55.246V-7.829h-298.057V373.405z M-227.408,354.704V8.07H38.609v347.21L-227.408,354.704
		z"/>
	<path fill="#424242" d="M-177.564,429.958h167.561c0.909,0,1.98-0.295,1.641-0.605l-8.201-7.504
		c-0.339-0.311-3.807-0.605-4.716-0.605h-145.009c-0.909,0-4.376,0.295-4.716,0.605l-8.201,7.504
		C-179.543,429.663-178.472,429.958-177.564,429.958z"/>
	<rect x="-190.259" y="20.59" fill="#FF8F00" width="112.336" height="8.852"/>
	<rect x="-184.219" y="55.324" fill="#26C6DA" width="24.494" height="5.077"/>
	<path fill="#26C6DA" d="M-184.122,60.382c-0.173,0.124-1.635-0.903-1.806-1.033c-0.164-0.124-1.52-1.236-1.515-1.485
		c0.005-0.26,1.409-1.423,1.579-1.555c0.163-0.125,1.569-1.125,1.729-0.995c0.167,0.137,0.227,2.327,0.227,2.588
		C-183.907,58.151-183.956,60.263-184.122,60.382L-184.122,60.382z"/>
	<path fill="#26C6DA" d="M-159.77,60.382c0.173,0.124,1.636-0.903,1.806-1.033c0.164-0.124,1.521-1.236,1.515-1.485
		c-0.005-0.26-1.409-1.423-1.579-1.555c-0.163-0.125-1.568-1.125-1.729-0.995c-0.168,0.137-0.227,2.327-0.228,2.588
		C-159.984,58.151-159.936,60.263-159.77,60.382L-159.77,60.382z"/>
	<rect x="-170.627" y="65.14" fill="#26C6DA" width="24.495" height="5.077"/>
	<path fill="#26C6DA" d="M-170.53,70.197c-0.173,0.124-1.635-0.903-1.806-1.033c-0.164-0.124-1.521-1.236-1.515-1.486
		c0.005-0.26,1.409-1.423,1.579-1.554c0.163-0.125,1.568-1.125,1.729-0.995c0.167,0.136,0.227,2.327,0.228,2.587
		C-170.315,67.967-170.364,70.079-170.53,70.197L-170.53,70.197z"/>
	<path fill="#26C6DA" d="M-146.178,70.197c0.173,0.124,1.635-0.903,1.806-1.033c0.164-0.124,1.52-1.236,1.515-1.486
		c-0.006-0.26-1.409-1.423-1.579-1.554c-0.163-0.125-1.569-1.125-1.729-0.995c-0.167,0.136-0.227,2.327-0.227,2.587
		C-146.393,67.967-146.344,70.079-146.178,70.197L-146.178,70.197z"/>
	<rect x="-160.059" y="74.451" fill="#26C6DA" width="24.494" height="5.077"/>
	<path fill="#26C6DA" d="M-159.959,79.51c-0.173,0.124-1.635-0.903-1.806-1.033c-0.164-0.124-1.52-1.236-1.515-1.485
		c0.006-0.26,1.409-1.423,1.579-1.555c0.163-0.125,1.569-1.125,1.729-0.995c0.167,0.137,0.227,2.327,0.227,2.588
		C-159.744,77.28-159.793,79.392-159.959,79.51L-159.959,79.51z"/>
	<path fill="#26C6DA" d="M-135.61,79.51c0.173,0.124,1.635-0.903,1.806-1.033c0.164-0.124,1.521-1.236,1.515-1.485
		c-0.005-0.26-1.409-1.423-1.579-1.555c-0.163-0.125-1.568-1.125-1.729-0.995c-0.168,0.137-0.227,2.327-0.228,2.588
		C-135.824,77.28-135.775,79.392-135.61,79.51L-135.61,79.51z"/>
	<rect x="-159.803" y="84.019" fill="#26C6DA" width="24.495" height="5.077"/>
	<path fill="#26C6DA" d="M-159.707,89.074c-0.173,0.124-1.635-0.903-1.806-1.033c-0.164-0.124-1.521-1.236-1.515-1.486
		c0.005-0.26,1.409-1.423,1.579-1.554c0.163-0.126,1.568-1.125,1.729-0.995c0.167,0.136,0.227,2.327,0.228,2.587
		C-159.492,86.844-159.541,88.956-159.707,89.074L-159.707,89.074z"/>
	<path fill="#26C6DA" d="M-135.362,89.074c0.173,0.124,1.635-0.903,1.806-1.033c0.164-0.124,1.521-1.236,1.515-1.486
		c-0.005-0.26-1.409-1.423-1.579-1.554c-0.163-0.126-1.569-1.125-1.729-0.995c-0.168,0.136-0.227,2.327-0.228,2.587
		C-135.576,86.844-135.527,88.956-135.362,89.074L-135.362,89.074z"/>
	<rect x="-159.555" y="93.331" fill="#26C6DA" width="24.495" height="5.077"/>
	<path fill="#26C6DA" d="M-159.455,98.386c-0.173,0.124-1.635-0.903-1.806-1.033c-0.164-0.124-1.52-1.236-1.515-1.486
		c0.005-0.26,1.409-1.423,1.579-1.554c0.163-0.126,1.569-1.125,1.729-0.995c0.167,0.136,0.227,2.327,0.227,2.587
		C-159.24,96.156-159.29,98.268-159.455,98.386L-159.455,98.386z"/>
	<path fill="#26C6DA" d="M-135.105,98.386c0.173,0.124,1.635-0.903,1.806-1.033c0.164-0.124,1.521-1.236,1.515-1.486
		c-0.005-0.26-1.409-1.423-1.579-1.554c-0.163-0.126-1.568-1.125-1.729-0.995c-0.167,0.136-0.227,2.327-0.228,2.587
		C-135.32,96.156-135.272,98.268-135.105,98.386L-135.105,98.386z"/>
	<rect x="-159.555" y="102.891" fill="#26C6DA" width="24.495" height="5.077"/>
	<path fill="#26C6DA" d="M-159.455,107.954c-0.173,0.124-1.635-0.903-1.806-1.033c-0.164-0.124-1.52-1.236-1.515-1.485
		c0.005-0.261,1.409-1.424,1.579-1.555c0.163-0.125,1.569-1.125,1.729-0.995c0.167,0.137,0.227,2.327,0.227,2.587
		C-159.24,105.724-159.29,107.836-159.455,107.954L-159.455,107.954z"/>
	<path fill="#26C6DA" d="M-135.105,107.954c0.173,0.124,1.635-0.903,1.806-1.033c0.164-0.124,1.521-1.236,1.515-1.485
		c-0.005-0.261-1.409-1.424-1.579-1.555c-0.163-0.125-1.568-1.125-1.729-0.995c-0.167,0.137-0.227,2.327-0.228,2.587
		C-135.32,105.724-135.272,107.836-135.105,107.954L-135.105,107.954z"/>
	<rect x="-159.555" y="136.62" fill="#26C6DA" width="24.495" height="5.077"/>
	<path fill="#26C6DA" d="M-159.455,141.683c-0.173,0.124-1.635-0.904-1.806-1.033c-0.164-0.124-1.52-1.236-1.515-1.485
		c0.005-0.26,1.409-1.423,1.579-1.555c0.163-0.125,1.569-1.125,1.729-0.995c0.167,0.137,0.227,2.327,0.227,2.587
		C-159.24,139.452-159.29,141.564-159.455,141.683L-159.455,141.683z"/>
	<path fill="#26C6DA" d="M-135.105,141.683c0.173,0.124,1.635-0.904,1.806-1.033c0.164-0.124,1.521-1.236,1.515-1.485
		c-0.005-0.26-1.409-1.423-1.579-1.555c-0.163-0.125-1.568-1.125-1.729-0.995c-0.167,0.137-0.227,2.327-0.228,2.587
		C-135.32,139.452-135.272,141.564-135.105,141.683L-135.105,141.683z"/>
	<rect x="-158.547" y="146.188" fill="#26C6DA" width="24.495" height="5.077"/>
	<path fill="#26C6DA" d="M-158.448,151.243c-0.173,0.124-1.635-0.904-1.806-1.033c-0.164-0.124-1.52-1.236-1.515-1.485
		c0.005-0.26,1.409-1.423,1.579-1.555c0.163-0.125,1.569-1.125,1.729-0.995c0.167,0.137,0.227,2.327,0.227,2.587
		C-158.233,149.012-158.283,151.124-158.448,151.243L-158.448,151.243z"/>
	<path fill="#26C6DA" d="M-134.098,151.243c0.173,0.124,1.635-0.904,1.806-1.033c0.164-0.124,1.52-1.236,1.515-1.485
		c-0.006-0.26-1.409-1.423-1.579-1.555c-0.163-0.125-1.569-1.125-1.729-0.995c-0.167,0.137-0.227,2.327-0.227,2.587
		C-134.313,149.012-134.264,151.124-134.098,151.243L-134.098,151.243z"/>
	<rect x="-170.627" y="156.756" fill="#26C6DA" width="24.495" height="5.077"/>
	<path fill="#26C6DA" d="M-170.53,161.819c-0.173,0.124-1.635-0.904-1.806-1.033c-0.164-0.124-1.521-1.236-1.515-1.485
		c0.005-0.261,1.409-1.423,1.579-1.555c0.163-0.125,1.568-1.125,1.729-0.995c0.167,0.137,0.227,2.327,0.228,2.587
		C-170.315,159.588-170.364,161.7-170.53,161.819L-170.53,161.819z"/>
	<path fill="#26C6DA" d="M-146.178,161.819c0.173,0.124,1.635-0.904,1.806-1.033c0.164-0.124,1.52-1.236,1.515-1.485
		c-0.006-0.261-1.409-1.423-1.579-1.555c-0.163-0.125-1.569-1.125-1.729-0.995c-0.167,0.137-0.227,2.327-0.227,2.587
		C-146.393,159.588-146.344,161.7-146.178,161.819L-146.178,161.819z"/>
	<rect x="-170.627" y="169.348" fill="#26C6DA" width="24.495" height="5.077"/>
	<path fill="#26C6DA" d="M-170.53,174.403c-0.173,0.124-1.635-0.904-1.806-1.033c-0.164-0.124-1.521-1.236-1.515-1.485
		c0.005-0.26,1.409-1.423,1.579-1.555c0.163-0.125,1.568-1.125,1.729-0.995c0.167,0.137,0.227,2.327,0.228,2.587
		C-170.315,172.173-170.364,174.284-170.53,174.403L-170.53,174.403z"/>
	<path fill="#26C6DA" d="M-146.178,174.403c0.173,0.124,1.635-0.904,1.806-1.033c0.164-0.124,1.52-1.236,1.515-1.485
		c-0.006-0.26-1.409-1.423-1.579-1.555c-0.163-0.125-1.569-1.125-1.729-0.995c-0.167,0.137-0.227,2.327-0.227,2.587
		C-146.393,172.173-146.344,174.284-146.178,174.403L-146.178,174.403z"/>
	<rect x="-125.381" y="102.891" fill="#CCCCCC" width="117.329" height="5.077"/>
	<path fill="#CCCCCC" d="M-125.283,107.954c-0.173,0.124-1.636-0.903-1.806-1.033c-0.164-0.124-1.521-1.236-1.515-1.485
		c0.005-0.261,1.409-1.424,1.579-1.555c0.163-0.125,1.568-1.125,1.729-0.995c0.167,0.137,0.227,2.327,0.228,2.587
		C-125.068,105.724-125.117,107.836-125.283,107.954L-125.283,107.954z"/>
	<path fill="#CCCCCC" d="M-8.31,107.954c0.173,0.124,1.636-0.903,1.806-1.033c0.164-0.124,1.521-1.236,1.515-1.485
		c-0.005-0.261-1.409-1.424-1.579-1.555c-0.163-0.125-1.568-1.125-1.729-0.995c-0.167,0.137-0.227,2.327-0.228,2.587
		C-8.524,105.724-8.476,107.836-8.31,107.954L-8.31,107.954z"/>
	<rect x="-158.955" y="111.956" fill="#CCCCCC" width="150.688" height="5.077"/>
	<path fill="#CCCCCC" d="M-158.826,117.01c-0.222,0.124-2.098-0.903-2.317-1.033c-0.21-0.124-1.951-1.236-1.944-1.486
		c0.007-0.26,1.808-1.423,2.025-1.554c0.209-0.125,2.013-1.125,2.219-0.995c0.215,0.136,0.291,2.327,0.292,2.587
		C-158.551,114.78-158.614,116.892-158.826,117.01L-158.826,117.01z"/>
	<path fill="#CCCCCC" d="M-8.747,117.01c0.222,0.124,2.098-0.903,2.317-1.033c0.21-0.124,1.951-1.236,1.944-1.486
		c-0.007-0.26-1.807-1.423-2.025-1.554c-0.209-0.125-2.012-1.125-2.218-0.995c-0.215,0.136-0.291,2.327-0.292,2.587
		C-9.022,114.78-8.96,116.892-8.747,117.01L-8.747,117.01z"/>
	<rect x="-158.955" y="120.516" fill="#CCCCCC" width="150.688" height="5.077"/>
	<path fill="#CCCCCC" d="M-158.826,125.57c-0.222,0.124-2.098-0.903-2.317-1.033c-0.21-0.124-1.951-1.236-1.944-1.486
		c0.007-0.26,1.808-1.423,2.025-1.554c0.209-0.125,2.013-1.125,2.219-0.995c0.215,0.136,0.291,2.327,0.292,2.587
		C-158.551,123.34-158.614,125.452-158.826,125.57L-158.826,125.57z"/>
	<path fill="#CCCCCC" d="M-8.747,125.57c0.222,0.124,2.098-0.903,2.317-1.033c0.21-0.124,1.951-1.236,1.944-1.486
		c-0.007-0.26-1.807-1.423-2.025-1.554c-0.209-0.125-2.012-1.125-2.218-0.995c-0.215,0.136-0.291,2.327-0.292,2.587
		C-9.022,123.34-8.96,125.452-8.747,125.57L-8.747,125.57z"/>
	<rect x="-159.427" y="128.316" fill="#CCCCCC" width="133.473" height="5.077"/>
	<path fill="#CCCCCC" d="M-159.313,133.371c-0.196,0.124-1.858-0.904-2.052-1.033c-0.186-0.124-1.728-1.236-1.722-1.485
		c0.006-0.26,1.601-1.423,1.794-1.555c0.185-0.125,1.783-1.125,1.965-0.995c0.19,0.137,0.258,2.327,0.259,2.587
		C-159.068,131.14-159.124,133.252-159.313,133.371L-159.313,133.371z"/>
	<path fill="#CCCCCC" d="M-26.383,133.371c0.197,0.124,1.858-0.904,2.053-1.033c0.186-0.124,1.728-1.236,1.722-1.485
		c-0.006-0.26-1.601-1.423-1.794-1.555c-0.185-0.125-1.783-1.125-1.965-0.995c-0.19,0.137-0.257,2.327-0.258,2.587
		C-26.627,131.14-26.571,133.252-26.383,133.371L-26.383,133.371z"/>
	<rect x="-124.817" y="83.763" fill="#FF7043" width="24.495" height="5.077"/>
	<path fill="#FF7043" d="M-124.721,88.826c-0.173,0.124-1.635-0.903-1.806-1.033c-0.164-0.124-1.521-1.236-1.515-1.486
		c0.005-0.26,1.409-1.423,1.579-1.554c0.163-0.125,1.568-1.125,1.729-0.995c0.167,0.136,0.227,2.327,0.228,2.587
		C-124.506,86.596-124.555,88.708-124.721,88.826L-124.721,88.826z"/>
	<path fill="#FF7043" d="M-100.37,88.826c0.173,0.124,1.635-0.903,1.806-1.033c0.164-0.124,1.521-1.236,1.515-1.486
		c-0.005-0.26-1.409-1.423-1.579-1.554c-0.163-0.125-1.569-1.125-1.729-0.995c-0.168,0.136-0.227,2.327-0.228,2.587
		C-100.585,86.596-100.535,88.708-100.37,88.826L-100.37,88.826z"/>
	<rect x="-63.655" y="83.763" fill="#FF7043" width="24.494" height="5.077"/>
	<path fill="#FF7043" d="M-63.556,88.826c-0.173,0.124-1.635-0.903-1.806-1.033c-0.164-0.124-1.52-1.236-1.515-1.486
		c0.005-0.26,1.409-1.423,1.579-1.554c0.163-0.125,1.569-1.125,1.729-0.995c0.167,0.136,0.227,2.327,0.227,2.587
		C-63.341,86.596-63.391,88.708-63.556,88.826L-63.556,88.826z"/>
	<path fill="#FF7043" d="M-39.209,88.826c0.173,0.124,1.635-0.903,1.806-1.033c0.164-0.124,1.521-1.236,1.515-1.486
		c-0.005-0.26-1.409-1.423-1.579-1.554c-0.163-0.125-1.568-1.125-1.729-0.995c-0.167,0.136-0.227,2.327-0.228,2.587
		C-39.424,86.596-39.375,88.708-39.209,88.826L-39.209,88.826z"/>
	<rect x="-30.934" y="83.763" fill="#26C6DA" width="24.494" height="5.077"/>
	<path fill="#26C6DA" d="M-30.836,88.826c-0.173,0.124-1.635-0.903-1.806-1.033c-0.164-0.124-1.521-1.236-1.515-1.486
		c0.005-0.26,1.409-1.423,1.579-1.554c0.163-0.125,1.569-1.125,1.729-0.995c0.168,0.136,0.227,2.327,0.228,2.587
		C-30.622,86.596-30.67,88.708-30.836,88.826L-30.836,88.826z"/>
	<path fill="#26C6DA" d="M-6.489,88.826c0.173,0.124,1.636-0.903,1.806-1.033c0.164-0.124,1.521-1.236,1.515-1.486
		c-0.005-0.26-1.409-1.423-1.579-1.554c-0.163-0.125-1.568-1.125-1.729-0.995c-0.167,0.136-0.227,2.327-0.228,2.587
		C-6.704,86.596-6.655,88.708-6.489,88.826L-6.489,88.826z"/>
	<rect x="-91.865" y="83.763" fill="#CCCCCC" width="20.515" height="5.077"/>
	<path fill="#CCCCCC" d="M-91.784,88.826c-0.145,0.124-1.37-0.903-1.513-1.033c-0.137-0.124-1.273-1.236-1.269-1.486
		c0.005-0.26,1.18-1.423,1.322-1.554c0.137-0.125,1.314-1.125,1.448-0.995c0.141,0.136,0.19,2.327,0.19,2.587
		C-91.604,86.596-91.645,88.708-91.784,88.826L-91.784,88.826z"/>
	<path fill="#CCCCCC" d="M-71.395,88.826c0.145,0.124,1.37-0.903,1.513-1.033c0.137-0.124,1.273-1.236,1.269-1.486
		c-0.004-0.26-1.18-1.423-1.322-1.554c-0.136-0.125-1.313-1.125-1.448-0.995c-0.14,0.136-0.19,2.327-0.19,2.587
		C-71.575,86.596-71.534,88.708-71.395,88.826L-71.395,88.826z"/>
	<rect x="-136.144" y="156.756" fill="#FF7043" width="40.226" height="5.077"/>
	<path fill="#FF7043" d="M-136.047,161.819c-0.173,0.124-1.635-0.904-1.806-1.033c-0.164-0.124-1.521-1.236-1.515-1.485
		c0.005-0.261,1.409-1.423,1.579-1.555c0.163-0.125,1.569-1.125,1.729-0.995c0.168,0.137,0.227,2.327,0.228,2.587
		C-135.833,159.588-135.881,161.7-136.047,161.819L-136.047,161.819z"/>
	<path fill="#FF7043" d="M-96.098,161.819c0.173,0.124,1.635-0.904,1.806-1.033c0.164-0.124,1.521-1.236,1.515-1.485
		c-0.005-0.261-1.409-1.423-1.579-1.555c-0.163-0.125-1.568-1.125-1.729-0.995c-0.168,0.137-0.227,2.327-0.228,2.587
		C-96.312,159.588-96.263,161.7-96.098,161.819L-96.098,161.819z"/>
	<rect x="-135.766" y="168.844" fill="#FF7043" width="40.226" height="5.077"/>
	<path fill="#FF7043" d="M-135.669,173.899c-0.173,0.124-1.635-0.903-1.806-1.033c-0.164-0.124-1.52-1.236-1.515-1.485
		c0.006-0.261,1.409-1.424,1.579-1.555c0.163-0.125,1.569-1.125,1.729-0.995c0.167,0.136,0.227,2.327,0.227,2.587
		C-135.455,171.668-135.503,173.78-135.669,173.899L-135.669,173.899z"/>
	<path fill="#FF7043" d="M-95.713,173.899c0.173,0.124,1.635-0.903,1.806-1.033c0.164-0.124,1.521-1.236,1.515-1.485
		c-0.005-0.261-1.408-1.424-1.579-1.555c-0.163-0.125-1.568-1.125-1.729-0.995c-0.167,0.136-0.227,2.327-0.228,2.587
		C-95.928,171.668-95.879,173.78-95.713,173.899L-95.713,173.899z"/>
	<rect x="-158.547" y="180.668" fill="#26C6DA" width="24.495" height="5.077"/>
	<path fill="#26C6DA" d="M-158.448,185.731c-0.173,0.124-1.635-0.904-1.806-1.033c-0.164-0.124-1.52-1.236-1.515-1.485
		c0.005-0.261,1.409-1.423,1.579-1.555c0.163-0.125,1.569-1.125,1.729-0.995c0.167,0.137,0.227,2.327,0.227,2.587
		C-158.233,183.5-158.283,185.612-158.448,185.731L-158.448,185.731z"/>
	<path fill="#26C6DA" d="M-134.098,185.731c0.173,0.124,1.635-0.904,1.806-1.033c0.164-0.124,1.52-1.236,1.515-1.485
		c-0.006-0.261-1.409-1.423-1.579-1.555c-0.163-0.125-1.569-1.125-1.729-0.995c-0.167,0.137-0.227,2.327-0.227,2.587
		C-134.313,183.5-134.264,185.612-134.098,185.731L-134.098,185.731z"/>
	<rect x="-123.686" y="180.164" fill="#FF7043" width="64.253" height="5.077"/>
	<path fill="#FF7043" d="M-123.588,185.227c-0.173,0.124-1.635-0.903-1.806-1.033c-0.164-0.124-1.521-1.236-1.515-1.486
		c0.005-0.26,1.409-1.423,1.579-1.554c0.163-0.125,1.568-1.125,1.729-0.995c0.167,0.136,0.227,2.327,0.228,2.587
		C-123.373,182.996-123.422,185.108-123.588,185.227L-123.588,185.227z"/>
	<path fill="#FF7043" d="M-59.961,185.227c0.173,0.124,1.635-0.903,1.806-1.033c0.164-0.124,1.521-1.236,1.515-1.486
		c-0.005-0.26-1.409-1.423-1.579-1.554c-0.163-0.125-1.569-1.125-1.729-0.995c-0.168,0.136-0.227,2.327-0.228,2.587
		C-60.176,182.996-60.127,185.108-59.961,185.227L-59.961,185.227z"/>
	<rect x="-158.547" y="190.236" fill="#26C6DA" width="24.495" height="5.077"/>
	<path fill="#26C6DA" d="M-158.448,195.291c-0.173,0.124-1.635-0.904-1.806-1.033c-0.164-0.124-1.52-1.236-1.515-1.485
		c0.005-0.261,1.409-1.424,1.579-1.555c0.163-0.125,1.569-1.125,1.729-0.995c0.167,0.137,0.227,2.327,0.227,2.587
		C-158.233,193.06-158.283,195.172-158.448,195.291L-158.448,195.291z"/>
	<path fill="#26C6DA" d="M-134.098,195.291c0.173,0.124,1.635-0.904,1.806-1.033c0.164-0.124,1.52-1.236,1.515-1.485
		c-0.006-0.261-1.409-1.424-1.579-1.555c-0.163-0.125-1.569-1.125-1.729-0.995c-0.167,0.137-0.227,2.327-0.227,2.587
		C-134.313,193.06-134.264,195.172-134.098,195.291L-134.098,195.291z"/>
	<rect x="-190.259" y="33.404" fill="#FF8F00" width="92.048" height="2.801"/>
	<rect x="-203.403" y="42.738" fill="#2196F3" width="218.929" height="1.86"/>
	<rect x="-86.433" y="156.508" fill="#CCCCCC" width="64.253" height="5.077"/>
	<path fill="#CCCCCC" d="M-86.336,161.563c-0.173,0.124-1.635-0.903-1.806-1.033c-0.164-0.124-1.52-1.236-1.515-1.486
		c0.005-0.26,1.408-1.423,1.579-1.554c0.163-0.125,1.568-1.125,1.729-0.995c0.167,0.136,0.227,2.327,0.228,2.587
		C-86.122,159.332-86.17,161.444-86.336,161.563L-86.336,161.563z"/>
	<path fill="#CCCCCC" d="M-22.711,161.563c0.173,0.124,1.635-0.903,1.806-1.033c0.164-0.124,1.521-1.236,1.515-1.486
		c-0.005-0.26-1.408-1.423-1.579-1.554c-0.163-0.125-1.568-1.125-1.729-0.995c-0.167,0.136-0.227,2.327-0.228,2.587
		C-22.926,159.332-22.877,161.444-22.711,161.563L-22.711,161.563z"/>
	<rect x="-85.427" y="168.084" fill="#CCCCCC" width="64.253" height="5.077"/>
	<path fill="#CCCCCC" d="M-85.33,173.139c-0.173,0.124-1.635-0.903-1.806-1.033c-0.164-0.125-1.521-1.236-1.515-1.486
		c0.005-0.26,1.408-1.423,1.579-1.554c0.163-0.126,1.568-1.125,1.729-0.995c0.167,0.136,0.227,2.327,0.228,2.587
		C-85.115,170.908-85.164,173.02-85.33,173.139L-85.33,173.139z"/>
	<path fill="#CCCCCC" d="M-21.705,173.139c0.173,0.124,1.635-0.903,1.806-1.033c0.164-0.125,1.52-1.236,1.515-1.486
		c-0.005-0.26-1.408-1.423-1.578-1.554c-0.163-0.126-1.569-1.125-1.729-0.995c-0.167,0.136-0.227,2.327-0.227,2.587
		C-21.92,170.908-21.871,173.02-21.705,173.139L-21.705,173.139z"/>
	<rect x="-49.812" y="180.668" fill="#CCCCCC" width="24.495" height="5.077"/>
	<path fill="#CCCCCC" d="M-49.716,185.731c-0.173,0.124-1.635-0.904-1.806-1.033c-0.164-0.124-1.521-1.236-1.515-1.485
		c0.005-0.261,1.409-1.423,1.579-1.555c0.163-0.125,1.568-1.125,1.729-0.995c0.167,0.137,0.227,2.327,0.228,2.587
		C-49.501,183.5-49.55,185.612-49.716,185.731L-49.716,185.731z"/>
	<path fill="#CCCCCC" d="M-25.366,185.731c0.173,0.124,1.635-0.904,1.806-1.033c0.164-0.124,1.521-1.236,1.515-1.485
		c-0.005-0.261-1.409-1.423-1.579-1.555c-0.163-0.125-1.568-1.125-1.729-0.995c-0.167,0.137-0.227,2.327-0.228,2.587
		C-25.581,183.5-25.532,185.612-25.366,185.731L-25.366,185.731z"/>
	<rect x="-122.955" y="190.484" fill="#CCCCCC" width="113.984" height="5.077"/>
	<path fill="#CCCCCC" d="M-122.86,195.547c-0.168,0.124-1.589-0.903-1.754-1.033c-0.159-0.124-1.477-1.236-1.472-1.485
		c0.005-0.26,1.369-1.423,1.534-1.555c0.158-0.125,1.524-1.125,1.68-0.995c0.163,0.137,0.22,2.327,0.221,2.587
		C-122.651,193.317-122.699,195.428-122.86,195.547L-122.86,195.547z"/>
	<path fill="#CCCCCC" d="M-9.223,195.547c0.168,0.124,1.589-0.903,1.755-1.033c0.159-0.124,1.477-1.236,1.472-1.485
		c-0.005-0.26-1.369-1.423-1.534-1.555c-0.158-0.125-1.524-1.125-1.68-0.995c-0.163,0.137-0.22,2.327-0.221,2.587
		C-9.431,193.317-9.383,195.428-9.223,195.547L-9.223,195.547z"/>
	<rect x="-157.46" y="201.252" fill="#26C6DA" width="24.495" height="5.077"/>
	<path fill="#26C6DA" d="M-157.359,206.307c-0.173,0.124-1.635-0.903-1.806-1.033c-0.164-0.124-1.521-1.236-1.515-1.485
		c0.005-0.261,1.409-1.424,1.579-1.555c0.163-0.125,1.569-1.125,1.729-0.995c0.168,0.136,0.227,2.327,0.228,2.587
		C-157.145,204.076-157.194,206.188-157.359,206.307L-157.359,206.307z"/>
	<path fill="#26C6DA" d="M-133.01,206.307c0.173,0.124,1.635-0.903,1.806-1.033c0.164-0.124,1.52-1.236,1.515-1.485
		c-0.005-0.261-1.409-1.424-1.579-1.555c-0.163-0.125-1.569-1.125-1.729-0.995c-0.167,0.136-0.227,2.327-0.227,2.587
		C-133.225,204.076-133.175,206.188-133.01,206.307L-133.01,206.307z"/>
	<rect x="-157.46" y="213.837" fill="#26C6DA" width="24.495" height="5.076"/>
	<path fill="#26C6DA" d="M-157.359,218.899c-0.173,0.124-1.635-0.903-1.806-1.033c-0.164-0.124-1.521-1.236-1.515-1.485
		c0.005-0.261,1.409-1.423,1.579-1.554c0.163-0.127,1.569-1.126,1.729-0.995c0.168,0.136,0.227,2.327,0.228,2.587
		C-157.145,216.669-157.194,218.78-157.359,218.899L-157.359,218.899z"/>
	<path fill="#26C6DA" d="M-133.01,218.899c0.173,0.124,1.635-0.903,1.806-1.033c0.164-0.124,1.52-1.236,1.515-1.485
		c-0.005-0.261-1.409-1.423-1.579-1.554c-0.163-0.127-1.569-1.126-1.729-0.995c-0.167,0.136-0.227,2.327-0.227,2.587
		C-133.225,216.669-133.175,218.78-133.01,218.899L-133.01,218.899z"/>
	<rect x="-122.974" y="201.252" fill="#FF7043" width="40.226" height="5.077"/>
	<path fill="#FF7043" d="M-122.876,206.307c-0.173,0.124-1.635-0.903-1.806-1.033c-0.164-0.124-1.52-1.236-1.515-1.485
		c0.005-0.261,1.409-1.424,1.579-1.555c0.163-0.125,1.569-1.125,1.729-0.995c0.167,0.136,0.227,2.327,0.227,2.587
		C-122.662,204.076-122.711,206.188-122.876,206.307L-122.876,206.307z"/>
	<path fill="#FF7043" d="M-82.921,206.307c0.173,0.124,1.635-0.903,1.806-1.033c0.164-0.124,1.52-1.236,1.515-1.485
		c-0.006-0.261-1.409-1.424-1.579-1.555c-0.163-0.125-1.569-1.125-1.729-0.995c-0.167,0.136-0.227,2.327-0.227,2.587
		C-83.136,204.076-83.087,206.188-82.921,206.307L-82.921,206.307z"/>
	<rect x="-122.597" y="213.333" fill="#FF7043" width="40.226" height="5.076"/>
	<path fill="#FF7043" d="M-122.499,218.395c-0.173,0.124-1.635-0.904-1.806-1.033c-0.164-0.124-1.521-1.236-1.515-1.485
		c0.005-0.261,1.408-1.423,1.579-1.555c0.163-0.126,1.568-1.125,1.729-0.995c0.167,0.137,0.227,2.328,0.228,2.588
		C-122.284,216.165-122.333,218.276-122.499,218.395L-122.499,218.395z"/>
	<path fill="#FF7043" d="M-82.545,218.395c0.173,0.124,1.635-0.904,1.806-1.033c0.164-0.124,1.52-1.236,1.515-1.485
		c-0.006-0.261-1.409-1.423-1.579-1.555c-0.163-0.126-1.569-1.125-1.729-0.995c-0.167,0.137-0.227,2.328-0.227,2.588
		C-82.76,216.165-82.711,218.276-82.545,218.395L-82.545,218.395z"/>
	<rect x="-73.264" y="201.004" fill="#CCCCCC" width="64.253" height="5.077"/>
	<path fill="#CCCCCC" d="M-73.164,206.059c-0.173,0.124-1.636-0.903-1.806-1.033c-0.164-0.124-1.521-1.236-1.515-1.485
		c0.005-0.261,1.409-1.424,1.579-1.555c0.163-0.125,1.568-1.125,1.729-0.995c0.167,0.136,0.227,2.327,0.228,2.587
		C-72.95,203.828-72.999,205.94-73.164,206.059L-73.164,206.059z"/>
	<path fill="#CCCCCC" d="M-9.542,206.059c0.173,0.124,1.635-0.903,1.806-1.033c0.164-0.124,1.521-1.236,1.515-1.485
		c-0.005-0.261-1.409-1.424-1.579-1.555c-0.163-0.125-1.569-1.125-1.729-0.995c-0.168,0.136-0.227,2.327-0.228,2.587
		C-9.756,203.828-9.708,205.94-9.542,206.059L-9.542,206.059z"/>
	<rect x="-72.256" y="212.581" fill="#CCCCCC" width="64.253" height="5.076"/>
	<path fill="#CCCCCC" d="M-72.156,217.635c-0.173,0.123-1.635-0.904-1.806-1.033c-0.164-0.124-1.52-1.236-1.515-1.486
		c0.005-0.26,1.409-1.423,1.579-1.554c0.163-0.126,1.569-1.126,1.729-0.995c0.167,0.137,0.227,2.327,0.227,2.588
		C-71.941,215.405-71.99,217.516-72.156,217.635L-72.156,217.635z"/>
	<path fill="#CCCCCC" d="M-8.535,217.635c0.173,0.123,1.635-0.904,1.806-1.033c0.164-0.124,1.52-1.236,1.515-1.486
		c-0.006-0.26-1.409-1.423-1.579-1.554c-0.163-0.126-1.569-1.126-1.729-0.995c-0.167,0.137-0.227,2.327-0.227,2.588
		C-8.75,215.405-8.701,217.516-8.535,217.635L-8.535,217.635z"/>
	<rect x="-157.46" y="223.324" fill="#26C6DA" width="24.495" height="5.077"/>
	<path fill="#26C6DA" d="M-157.359,228.38c-0.173,0.123-1.635-0.904-1.806-1.033c-0.164-0.124-1.521-1.236-1.515-1.486
		c0.005-0.26,1.409-1.423,1.579-1.554c0.163-0.126,1.569-1.126,1.729-0.995c0.168,0.137,0.227,2.327,0.228,2.588
		C-157.145,226.149-157.194,228.26-157.359,228.38L-157.359,228.38z"/>
	<path fill="#26C6DA" d="M-133.01,228.38c0.173,0.123,1.635-0.904,1.806-1.033c0.164-0.124,1.52-1.236,1.515-1.486
		c-0.005-0.26-1.409-1.423-1.579-1.554c-0.163-0.126-1.569-1.126-1.729-0.995c-0.167,0.137-0.227,2.327-0.227,2.588
		C-133.225,226.149-133.175,228.26-133.01,228.38L-133.01,228.38z"/>
	<rect x="-157.46" y="235.909" fill="#26C6DA" width="24.495" height="5.076"/>
	<path fill="#26C6DA" d="M-157.359,240.964c-0.173,0.123-1.635-0.904-1.806-1.033c-0.164-0.124-1.521-1.236-1.515-1.486
		c0.005-0.26,1.409-1.423,1.579-1.554c0.163-0.126,1.569-1.126,1.729-0.995c0.168,0.137,0.227,2.327,0.228,2.588
		C-157.145,238.733-157.194,240.844-157.359,240.964L-157.359,240.964z"/>
	<path fill="#26C6DA" d="M-133.01,240.964c0.173,0.123,1.635-0.904,1.806-1.033c0.164-0.124,1.52-1.236,1.515-1.486
		c-0.005-0.26-1.409-1.423-1.579-1.554c-0.163-0.126-1.569-1.126-1.729-0.995c-0.167,0.137-0.227,2.327-0.227,2.588
		C-133.225,238.733-133.175,240.844-133.01,240.964L-133.01,240.964z"/>
	<rect x="-122.974" y="223.324" fill="#FF7043" width="40.226" height="5.077"/>
	<path fill="#FF7043" d="M-122.876,228.38c-0.173,0.123-1.635-0.904-1.806-1.033c-0.164-0.124-1.52-1.236-1.515-1.486
		c0.005-0.26,1.409-1.423,1.579-1.554c0.163-0.126,1.569-1.126,1.729-0.995c0.167,0.137,0.227,2.327,0.227,2.588
		C-122.662,226.149-122.711,228.26-122.876,228.38L-122.876,228.38z"/>
	<path fill="#FF7043" d="M-82.921,228.38c0.173,0.123,1.635-0.904,1.806-1.033c0.164-0.124,1.52-1.236,1.515-1.486
		c-0.006-0.26-1.409-1.423-1.579-1.554c-0.163-0.126-1.569-1.126-1.729-0.995c-0.167,0.137-0.227,2.327-0.227,2.588
		C-83.136,226.149-83.087,228.26-82.921,228.38L-82.921,228.38z"/>
	<rect x="-122.597" y="235.404" fill="#FF7043" width="40.226" height="5.077"/>
	<path fill="#FF7043" d="M-122.499,240.46c-0.173,0.123-1.635-0.904-1.806-1.033c-0.164-0.124-1.521-1.236-1.515-1.486
		c0.005-0.26,1.408-1.423,1.579-1.554c0.163-0.126,1.568-1.126,1.729-0.995c0.167,0.137,0.227,2.327,0.228,2.588
		C-122.284,238.229-122.333,240.341-122.499,240.46L-122.499,240.46z"/>
	<path fill="#FF7043" d="M-82.545,240.46c0.173,0.123,1.635-0.904,1.806-1.033c0.164-0.124,1.52-1.236,1.515-1.486
		c-0.006-0.26-1.409-1.423-1.579-1.554c-0.163-0.126-1.569-1.126-1.729-0.995c-0.167,0.137-0.227,2.327-0.227,2.588
		C-82.76,238.229-82.711,240.341-82.545,240.46L-82.545,240.46z"/>
	<rect x="-73.264" y="223.068" fill="#CCCCCC" width="64.253" height="5.077"/>
	<path fill="#CCCCCC" d="M-73.164,228.132c-0.173,0.123-1.636-0.904-1.806-1.033c-0.164-0.124-1.521-1.236-1.515-1.486
		c0.005-0.26,1.409-1.423,1.579-1.554c0.163-0.126,1.568-1.126,1.729-0.995c0.167,0.137,0.227,2.327,0.228,2.588
		C-72.95,225.901-72.999,228.012-73.164,228.132L-73.164,228.132z"/>
	<path fill="#CCCCCC" d="M-9.542,228.132c0.173,0.123,1.635-0.904,1.806-1.033c0.164-0.124,1.521-1.236,1.515-1.486
		c-0.005-0.26-1.409-1.423-1.579-1.554c-0.163-0.126-1.569-1.126-1.729-0.995c-0.168,0.137-0.227,2.327-0.228,2.588
		C-9.756,225.901-9.708,228.012-9.542,228.132L-9.542,228.132z"/>
	<rect x="-72.256" y="234.652" fill="#CCCCCC" width="64.253" height="5.077"/>
	<path fill="#CCCCCC" d="M-72.156,239.708c-0.173,0.123-1.635-0.904-1.806-1.033c-0.164-0.125-1.52-1.236-1.515-1.486
		c0.005-0.26,1.409-1.423,1.579-1.555c0.163-0.125,1.569-1.125,1.729-0.994c0.167,0.137,0.227,2.327,0.227,2.588
		C-71.941,237.477-71.99,239.589-72.156,239.708L-72.156,239.708z"/>
	<path fill="#CCCCCC" d="M-8.535,239.708c0.173,0.123,1.635-0.904,1.806-1.033c0.164-0.125,1.52-1.236,1.515-1.486
		c-0.006-0.26-1.409-1.423-1.579-1.555c-0.163-0.125-1.569-1.125-1.729-0.994c-0.167,0.137-0.227,2.327-0.227,2.588
		C-8.75,237.477-8.701,239.589-8.535,239.708L-8.535,239.708z"/>
	<rect x="-170.627" y="250.02" fill="#26C6DA" width="24.495" height="5.077"/>
	<path fill="#26C6DA" d="M-170.53,255.075c-0.173,0.125-1.635-0.903-1.806-1.033c-0.164-0.123-1.521-1.235-1.515-1.484
		c0.005-0.261,1.409-1.424,1.579-1.555c0.163-0.126,1.568-1.125,1.729-0.995c0.167,0.137,0.227,2.327,0.228,2.587
		C-170.315,252.844-170.364,254.956-170.53,255.075L-170.53,255.075z"/>
	<path fill="#26C6DA" d="M-146.178,255.075c0.173,0.125,1.635-0.903,1.806-1.033c0.164-0.123,1.52-1.235,1.515-1.484
		c-0.006-0.261-1.409-1.424-1.579-1.555c-0.163-0.126-1.569-1.125-1.729-0.995c-0.167,0.137-0.227,2.327-0.227,2.587
		C-146.393,252.844-146.344,254.956-146.178,255.075L-146.178,255.075z"/>
	<rect x="-170.627" y="262.604" fill="#26C6DA" width="24.495" height="5.077"/>
	<path fill="#26C6DA" d="M-170.53,267.659c-0.173,0.125-1.635-0.902-1.806-1.033c-0.164-0.123-1.521-1.235-1.515-1.484
		c0.005-0.261,1.409-1.424,1.579-1.555c0.163-0.126,1.568-1.125,1.729-0.994c0.167,0.136,0.227,2.326,0.228,2.587
		C-170.315,265.428-170.364,267.541-170.53,267.659L-170.53,267.659z"/>
	<path fill="#26C6DA" d="M-146.178,267.659c0.173,0.125,1.635-0.902,1.806-1.033c0.164-0.123,1.52-1.235,1.515-1.484
		c-0.006-0.261-1.409-1.424-1.579-1.555c-0.163-0.126-1.569-1.125-1.729-0.994c-0.167,0.136-0.227,2.326-0.227,2.587
		C-146.393,265.428-146.344,267.541-146.178,267.659L-146.178,267.659z"/>
	<rect x="-136.144" y="250.02" fill="#FF7043" width="40.226" height="5.077"/>
	<path fill="#FF7043" d="M-136.047,255.075c-0.173,0.125-1.635-0.903-1.806-1.033c-0.164-0.123-1.521-1.235-1.515-1.484
		c0.005-0.261,1.409-1.424,1.579-1.555c0.163-0.126,1.569-1.125,1.729-0.995c0.168,0.137,0.227,2.327,0.228,2.587
		C-135.833,252.844-135.881,254.956-136.047,255.075L-136.047,255.075z"/>
	<path fill="#FF7043" d="M-96.098,255.075c0.173,0.125,1.635-0.903,1.806-1.033c0.164-0.123,1.521-1.235,1.515-1.484
		c-0.005-0.261-1.409-1.424-1.579-1.555c-0.163-0.126-1.568-1.125-1.729-0.995c-0.168,0.137-0.227,2.327-0.228,2.587
		C-96.312,252.844-96.263,254.956-96.098,255.075L-96.098,255.075z"/>
	<rect x="-135.766" y="262.1" fill="#FF7043" width="40.226" height="5.077"/>
	<path fill="#FF7043" d="M-135.669,267.155c-0.173,0.125-1.635-0.903-1.806-1.033c-0.164-0.123-1.52-1.235-1.515-1.484
		c0.006-0.261,1.409-1.424,1.579-1.555c0.163-0.126,1.569-1.125,1.729-0.995c0.167,0.137,0.227,2.327,0.227,2.587
		C-135.455,264.924-135.503,267.036-135.669,267.155L-135.669,267.155z"/>
	<path fill="#FF7043" d="M-95.713,267.155c0.173,0.125,1.635-0.903,1.806-1.033c0.164-0.123,1.521-1.235,1.515-1.484
		c-0.005-0.261-1.408-1.424-1.579-1.555c-0.163-0.126-1.568-1.125-1.729-0.995c-0.167,0.137-0.227,2.327-0.228,2.587
		C-95.928,264.924-95.879,267.036-95.713,267.155L-95.713,267.155z"/>
	<rect x="-86.433" y="249.764" fill="#CCCCCC" width="64.253" height="5.076"/>
	<path fill="#CCCCCC" d="M-86.336,254.827c-0.173,0.125-1.635-0.902-1.806-1.033c-0.164-0.123-1.52-1.235-1.515-1.484
		c0.005-0.261,1.408-1.424,1.579-1.555c0.163-0.126,1.568-1.125,1.729-0.995c0.167,0.137,0.227,2.327,0.228,2.587
		C-86.122,252.596-86.17,254.708-86.336,254.827L-86.336,254.827z"/>
	<path fill="#CCCCCC" d="M-22.711,254.827c0.173,0.125,1.635-0.902,1.806-1.033c0.164-0.123,1.521-1.235,1.515-1.484
		c-0.005-0.261-1.408-1.424-1.579-1.555c-0.163-0.126-1.568-1.125-1.729-0.995c-0.167,0.137-0.227,2.327-0.228,2.587
		C-22.926,252.596-22.877,254.708-22.711,254.827L-22.711,254.827z"/>
	<rect x="-85.427" y="261.348" fill="#CCCCCC" width="64.253" height="5.077"/>
	<path fill="#CCCCCC" d="M-85.33,266.403c-0.173,0.125-1.635-0.903-1.806-1.033c-0.164-0.123-1.521-1.235-1.515-1.484
		c0.005-0.262,1.408-1.424,1.579-1.555c0.163-0.126,1.568-1.126,1.729-0.995c0.167,0.137,0.227,2.327,0.228,2.587
		C-85.115,264.173-85.164,266.284-85.33,266.403L-85.33,266.403z"/>
	<path fill="#CCCCCC" d="M-21.705,266.403c0.173,0.125,1.635-0.903,1.806-1.033c0.164-0.123,1.52-1.235,1.515-1.484
		c-0.005-0.262-1.408-1.424-1.578-1.555c-0.163-0.126-1.569-1.126-1.729-0.995c-0.167,0.137-0.227,2.327-0.227,2.587
		C-21.92,264.173-21.871,266.284-21.705,266.403L-21.705,266.403z"/>
	<rect x="-158.547" y="273.932" fill="#26C6DA" width="24.495" height="5.077"/>
	<path fill="#26C6DA" d="M-158.448,278.987c-0.173,0.125-1.635-0.902-1.806-1.033c-0.164-0.123-1.52-1.235-1.515-1.484
		c0.005-0.261,1.409-1.424,1.579-1.555c0.163-0.126,1.569-1.125,1.729-0.995c0.167,0.137,0.227,2.327,0.227,2.587
		C-158.233,276.757-158.283,278.868-158.448,278.987L-158.448,278.987z"/>
	<path fill="#26C6DA" d="M-134.098,278.987c0.173,0.125,1.635-0.902,1.806-1.033c0.164-0.123,1.52-1.235,1.515-1.484
		c-0.006-0.261-1.409-1.424-1.579-1.555c-0.163-0.126-1.569-1.125-1.729-0.995c-0.167,0.137-0.227,2.327-0.227,2.587
		C-134.313,276.757-134.264,278.868-134.098,278.987L-134.098,278.987z"/>
	<rect x="-123.686" y="273.428" fill="#FF7043" width="64.253" height="5.077"/>
	<path fill="#FF7043" d="M-123.588,278.483c-0.173,0.124-1.635-0.903-1.806-1.033c-0.164-0.123-1.521-1.235-1.515-1.484
		c0.005-0.262,1.409-1.424,1.579-1.555c0.163-0.126,1.568-1.126,1.729-0.995c0.167,0.137,0.227,2.327,0.228,2.587
		C-123.373,276.253-123.422,278.364-123.588,278.483L-123.588,278.483z"/>
	<path fill="#FF7043" d="M-59.961,278.483c0.173,0.124,1.635-0.903,1.806-1.033c0.164-0.123,1.521-1.235,1.515-1.484
		c-0.005-0.262-1.409-1.424-1.579-1.555c-0.163-0.126-1.569-1.126-1.729-0.995c-0.168,0.137-0.227,2.327-0.228,2.587
		C-60.176,276.253-60.127,278.364-59.961,278.483L-59.961,278.483z"/>
	<rect x="-158.547" y="283.493" fill="#26C6DA" width="24.495" height="5.076"/>
	<path fill="#26C6DA" d="M-158.448,288.555c-0.173,0.124-1.635-0.903-1.806-1.033c-0.164-0.123-1.52-1.236-1.515-1.485
		c0.005-0.261,1.409-1.423,1.579-1.554c0.163-0.126,1.569-1.126,1.729-0.995c0.167,0.136,0.227,2.327,0.227,2.587
		C-158.233,286.325-158.283,288.436-158.448,288.555L-158.448,288.555z"/>
	<path fill="#26C6DA" d="M-134.098,288.555c0.173,0.124,1.635-0.903,1.806-1.033c0.164-0.123,1.52-1.236,1.515-1.485
		c-0.006-0.261-1.409-1.423-1.579-1.554c-0.163-0.126-1.569-1.126-1.729-0.995c-0.167,0.136-0.227,2.327-0.227,2.587
		C-134.313,286.325-134.264,288.436-134.098,288.555L-134.098,288.555z"/>
	<rect x="-49.812" y="273.932" fill="#CCCCCC" width="24.495" height="5.077"/>
	<path fill="#CCCCCC" d="M-49.716,278.987c-0.173,0.125-1.635-0.902-1.806-1.033c-0.164-0.123-1.521-1.235-1.515-1.484
		c0.005-0.261,1.409-1.424,1.579-1.555c0.163-0.126,1.568-1.125,1.729-0.995c0.167,0.137,0.227,2.327,0.228,2.587
		C-49.501,276.757-49.55,278.868-49.716,278.987L-49.716,278.987z"/>
	<path fill="#CCCCCC" d="M-25.366,278.987c0.173,0.125,1.635-0.902,1.806-1.033c0.164-0.123,1.521-1.235,1.515-1.484
		c-0.005-0.261-1.409-1.424-1.579-1.555c-0.163-0.126-1.568-1.125-1.729-0.995c-0.167,0.137-0.227,2.327-0.228,2.587
		C-25.581,276.757-25.532,278.868-25.366,278.987L-25.366,278.987z"/>
	<rect x="-122.955" y="283.749" fill="#CCCCCC" width="113.984" height="5.076"/>
	<path fill="#CCCCCC" d="M-122.86,288.803c-0.168,0.124-1.589-0.903-1.754-1.033c-0.159-0.123-1.477-1.236-1.472-1.485
		c0.005-0.261,1.369-1.423,1.534-1.554c0.158-0.127,1.524-1.126,1.68-0.995c0.163,0.136,0.22,2.327,0.221,2.587
		C-122.651,286.573-122.699,288.684-122.86,288.803L-122.86,288.803z"/>
	<path fill="#CCCCCC" d="M-9.223,288.803c0.168,0.124,1.589-0.903,1.755-1.033c0.159-0.123,1.477-1.236,1.472-1.485
		c-0.005-0.261-1.369-1.423-1.534-1.554c-0.158-0.127-1.524-1.126-1.68-0.995c-0.163,0.136-0.22,2.327-0.221,2.587
		C-9.431,286.573-9.383,288.684-9.223,288.803L-9.223,288.803z"/>
	<rect x="-158.547" y="294.573" fill="#26C6DA" width="24.495" height="5.076"/>
	<path fill="#26C6DA" d="M-158.448,299.628c-0.173,0.124-1.635-0.904-1.806-1.033c-0.164-0.124-1.52-1.236-1.515-1.485
		c0.005-0.261,1.409-1.423,1.579-1.555c0.163-0.126,1.569-1.125,1.729-0.995c0.167,0.137,0.227,2.328,0.227,2.588
		C-158.233,297.397-158.283,299.508-158.448,299.628L-158.448,299.628z"/>
	<path fill="#26C6DA" d="M-134.098,299.628c0.173,0.124,1.635-0.904,1.806-1.033c0.164-0.124,1.52-1.236,1.515-1.485
		c-0.006-0.261-1.409-1.423-1.579-1.555c-0.163-0.126-1.569-1.125-1.729-0.995c-0.167,0.137-0.227,2.328-0.227,2.588
		C-134.313,297.397-134.264,299.508-134.098,299.628L-134.098,299.628z"/>
	<rect x="-123.686" y="294.069" fill="#FF7043" width="64.253" height="5.076"/>
	<path fill="#FF7043" d="M-123.588,299.124c-0.173,0.123-1.635-0.904-1.806-1.033c-0.164-0.124-1.521-1.236-1.515-1.485
		c0.005-0.261,1.409-1.423,1.579-1.555c0.163-0.126,1.568-1.126,1.729-0.995c0.167,0.137,0.227,2.328,0.228,2.588
		C-123.373,296.893-123.422,299.005-123.588,299.124L-123.588,299.124z"/>
	<path fill="#FF7043" d="M-59.961,299.124c0.173,0.123,1.635-0.904,1.806-1.033c0.164-0.124,1.521-1.236,1.515-1.485
		c-0.005-0.261-1.409-1.423-1.579-1.555c-0.163-0.126-1.569-1.126-1.729-0.995c-0.168,0.137-0.227,2.328-0.228,2.588
		C-60.176,296.893-60.127,299.005-59.961,299.124L-59.961,299.124z"/>
	<rect x="-49.812" y="294.573" fill="#CCCCCC" width="24.495" height="5.076"/>
	<path fill="#CCCCCC" d="M-49.716,299.628c-0.173,0.124-1.635-0.904-1.806-1.033c-0.164-0.124-1.521-1.236-1.515-1.485
		c0.005-0.261,1.409-1.423,1.579-1.555c0.163-0.126,1.568-1.125,1.729-0.995c0.167,0.137,0.227,2.328,0.228,2.588
		C-49.501,297.397-49.55,299.508-49.716,299.628L-49.716,299.628z"/>
	<path fill="#CCCCCC" d="M-25.366,299.628c0.173,0.124,1.635-0.904,1.806-1.033c0.164-0.124,1.521-1.236,1.515-1.485
		c-0.005-0.261-1.409-1.423-1.579-1.555c-0.163-0.126-1.568-1.125-1.729-0.995c-0.167,0.137-0.227,2.328-0.228,2.588
		C-25.581,297.397-25.532,299.508-25.366,299.628L-25.366,299.628z"/>
	<rect x="-159.555" y="305.077" fill="#26C6DA" width="24.495" height="5.076"/>
	<path fill="#26C6DA" d="M-159.455,310.132c-0.173,0.124-1.635-0.903-1.806-1.033c-0.164-0.123-1.52-1.236-1.515-1.485
		c0.005-0.261,1.409-1.423,1.579-1.554c0.163-0.127,1.569-1.126,1.729-0.995c0.167,0.136,0.227,2.327,0.227,2.587
		C-159.24,307.901-159.29,310.012-159.455,310.132L-159.455,310.132z"/>
	<path fill="#26C6DA" d="M-135.105,310.132c0.173,0.124,1.635-0.903,1.806-1.033c0.164-0.123,1.521-1.236,1.515-1.485
		c-0.005-0.261-1.409-1.423-1.579-1.554c-0.163-0.127-1.568-1.126-1.729-0.995c-0.167,0.136-0.227,2.327-0.228,2.587
		C-135.32,307.901-135.272,310.012-135.105,310.132L-135.105,310.132z"/>
	<rect x="-77.326" y="305.077" fill="#CCCCCC" width="69.274" height="5.076"/>
	<path fill="#CCCCCC" d="M-77.229,310.132c-0.173,0.124-1.635-0.903-1.806-1.033c-0.164-0.123-1.52-1.236-1.515-1.485
		c0.005-0.261,1.409-1.423,1.579-1.554c0.163-0.127,1.569-1.126,1.729-0.995c0.168,0.136,0.227,2.327,0.228,2.587
		C-77.014,307.901-77.064,310.012-77.229,310.132L-77.229,310.132z"/>
	<path fill="#CCCCCC" d="M-8.31,310.132c0.173,0.124,1.636-0.903,1.806-1.033c0.164-0.123,1.521-1.236,1.515-1.485
		c-0.005-0.261-1.409-1.423-1.579-1.554c-0.163-0.127-1.568-1.126-1.729-0.995c-0.167,0.136-0.227,2.327-0.228,2.587
		C-8.524,307.901-8.476,310.012-8.31,310.132L-8.31,310.132z"/>
	<rect x="-158.955" y="314.141" fill="#CCCCCC" width="150.688" height="5.076"/>
	<path fill="#CCCCCC" d="M-158.826,319.196c-0.222,0.123-2.098-0.904-2.317-1.033c-0.21-0.124-1.951-1.236-1.944-1.486
		c0.007-0.26,1.808-1.423,2.025-1.554c0.209-0.126,2.013-1.126,2.219-0.995c0.215,0.137,0.291,2.327,0.292,2.588
		C-158.551,316.966-158.614,319.077-158.826,319.196L-158.826,319.196z"/>
	<path fill="#CCCCCC" d="M-8.747,319.196c0.222,0.123,2.098-0.904,2.317-1.033c0.21-0.124,1.951-1.236,1.944-1.486
		c-0.007-0.26-1.807-1.423-2.025-1.554c-0.209-0.126-2.012-1.126-2.218-0.995c-0.215,0.137-0.291,2.327-0.292,2.588
		C-9.022,316.966-8.96,319.077-8.747,319.196L-8.747,319.196z"/>
	<rect x="-158.955" y="322.7" fill="#CCCCCC" width="150.688" height="5.078"/>
	<path fill="#CCCCCC" d="M-158.826,327.756c-0.222,0.124-2.098-0.903-2.317-1.032c-0.21-0.125-1.951-1.236-1.944-1.486
		c0.007-0.26,1.808-1.424,2.025-1.555c0.209-0.125,2.013-1.125,2.219-0.994c0.215,0.137,0.291,2.326,0.292,2.588
		C-158.551,325.525-158.614,327.637-158.826,327.756L-158.826,327.756z"/>
	<path fill="#CCCCCC" d="M-8.747,327.756c0.222,0.124,2.098-0.903,2.317-1.032c0.21-0.125,1.951-1.236,1.944-1.486
		c-0.007-0.26-1.807-1.424-2.025-1.555c-0.209-0.125-2.012-1.125-2.218-0.994c-0.215,0.137-0.291,2.326-0.292,2.588
		C-9.022,325.525-8.96,327.637-8.747,327.756L-8.747,327.756z"/>
	<rect x="-123.544" y="305.077" fill="#FF7043" width="35.75" height="5.076"/>
	<path fill="#FF7043" d="M-123.401,310.132c-0.252,0.124-2.387-0.903-2.636-1.033c-0.239-0.123-2.219-1.236-2.211-1.485
		c0.008-0.261,2.056-1.423,2.304-1.554c0.238-0.127,2.29-1.126,2.524-0.995c0.244,0.136,0.331,2.327,0.332,2.587
		C-123.088,307.901-123.159,310.012-123.401,310.132L-123.401,310.132z"/>
	<path fill="#FF7043" d="M-87.869,310.132c0.252,0.124,2.387-0.903,2.636-1.033c0.239-0.123,2.219-1.236,2.211-1.485
		c-0.008-0.261-2.056-1.423-2.304-1.554c-0.238-0.127-2.289-1.126-2.523-0.995c-0.245,0.136-0.331,2.327-0.332,2.587
		C-88.182,307.901-88.111,310.012-87.869,310.132L-87.869,310.132z"/>
	<rect x="-110.738" y="331.253" fill="#26C6DA" width="24.495" height="5.077"/>
	<path fill="#26C6DA" d="M-86.337,336.315c0.173,0.125,1.635-0.902,1.806-1.032c0.164-0.124,1.52-1.236,1.515-1.485
		c-0.005-0.261-1.408-1.424-1.578-1.555c-0.163-0.125-1.569-1.125-1.729-0.994c-0.167,0.136-0.227,2.326-0.227,2.587
		C-86.552,334.085-86.503,336.197-86.337,336.315L-86.337,336.315z"/>
	<path fill="#26C6DA" d="M-110.689,336.315c-0.173,0.125-1.635-0.902-1.806-1.032c-0.164-0.124-1.521-1.236-1.515-1.485
		c0.005-0.261,1.409-1.424,1.579-1.555c0.163-0.125,1.568-1.125,1.729-0.994c0.167,0.136,0.227,2.326,0.228,2.587
		C-110.475,334.085-110.523,336.197-110.689,336.315L-110.689,336.315z"/>
	<rect x="-158.001" y="331.253" fill="#FF7043" width="35.75" height="5.077"/>
	<path fill="#FF7043" d="M-122.397,336.315c0.252,0.125,2.387-0.902,2.636-1.032c0.239-0.124,2.219-1.236,2.211-1.485
		c-0.008-0.261-2.056-1.424-2.304-1.555c-0.238-0.125-2.289-1.125-2.523-0.994c-0.245,0.136-0.331,2.326-0.332,2.587
		C-122.71,334.085-122.639,336.197-122.397,336.315L-122.397,336.315z"/>
	<path fill="#FF7043" d="M-157.929,336.315c-0.252,0.125-2.387-0.902-2.636-1.032c-0.239-0.124-2.219-1.236-2.211-1.485
		c0.008-0.261,2.056-1.424,2.304-1.555c0.238-0.125,2.289-1.125,2.523-0.994c0.245,0.136,0.331,2.326,0.332,2.587
		C-157.615,334.085-157.687,336.197-157.929,336.315L-157.929,336.315z"/>
	<g transform="translate(-707.27)">
		<path fill="#F2F2F2" d="M935.26,356.71l89.938,2.033l7.393,70.379H927.502L935.26,356.71z"/>
		<path fill="#CCCCCC" d="M935.26,356.71l-2.35,21.912h94.369l-2.088-19.879l-89.93-2.035L935.26,356.71z"/>
		<path fill="#FFFFFF" d="M795.197,373.581h369.743c10.23,0,18.521-8.293,18.521-18.521V125.013
			c0-10.229-8.291-18.522-18.521-18.522H795.197c-10.229,0-18.521,8.292-18.521,18.522v230.046
			C776.676,365.288,784.969,373.581,795.197,373.581z"/>
		<path fill="#333333" d="M776.62,100.843v235.489h406.906V100.843H776.62z M786.211,113.013h385.954l-51.76,193.961L831.17,287.63
			L786.211,113.013z"/>
		<path fill="#333333" d="M797.684,83.603h364.762c11.629,0,21.057,9.427,21.057,21.056v70.018c0,11.629-9.428,21.056-21.057,21.056
			H797.684c-11.629,0-21.056-9.427-21.056-21.056v-70.018C776.628,93.03,786.055,83.603,797.684,83.603z"/>
		<rect x="793.076" y="101.491" fill="#ECECEC" width="373.985" height="215.49"/>
		<path fill="#FFFFFF" d="M900.262,418.462h159.572c1.703,0,3.082,1.379,3.082,3.082v4.498c0,1.701-1.379,3.082-3.082,3.082H900.262
			c-1.701,0-3.082-1.381-3.082-3.082v-4.498C897.18,419.841,898.561,418.462,900.262,418.462z"/>
		<circle fill="#333333" cx="980.061" cy="355.428" r="10.457"/>
		<rect x="820.124" y="101.491" fill="#FFFFFF" width="319.883" height="215.49"/>
		<rect x="825.292" y="107.756" fill="#66BB6A" width="309.682" height="51.97"/>
		<rect x="825.292" y="164.636" fill="#64B5F6" width="309.682" height="13.208"/>
		<rect x="827.963" y="166.324" fill="#1E88E5" width="31.967" height="9.816"/>
		<rect x="862.452" y="166.324" fill="#1E88E5" width="31.967" height="9.816"/>
		<rect x="897.42" y="166.324" fill="#1E88E5" width="41.027" height="9.816"/>
		<rect x="941.581" y="166.324" fill="#1E88E5" width="30.205" height="9.816"/>
		<rect x="973.981" y="166.324" fill="#1E88E5" width="41.027" height="9.816"/>
		<rect x="825.292" y="182.26" fill="#64B5F6" width="115.209" height="101.305"/>
		<rect x="1059.901" y="182.26" fill="#F06292" width="75.1" height="129.993"/>
		<path fill="#D81B60" d="M1090.381,186.588l-8.557,8.558l-10.572,53.865l-11.357,18.65v44.594h10.988l51.715-25.49
			c0,0,10.068-38.762,10.068-40.775S1090.381,186.587,1090.381,186.588L1090.381,186.588z"/>
		<rect x="825.292" y="287.972" fill="#64B5F6" width="25.512" height="24.369"/>
		<rect x="855.196" y="287.972" fill="#64B5F6" width="25.512" height="24.369"/>
		<rect x="885.1" y="287.972" fill="#64B5F6" width="25.512" height="24.369"/>
		<rect x="915.02" y="287.972" fill="#64B5F6" width="25.512" height="24.369"/>
		<rect x="946.86" y="182.556" fill="#999999" width="67.959" height="6.544"/>
		<rect x="947.42" y="192.124" fill="#999999" width="57.891" height="2.014"/>
		<rect x="948.141" y="207.98" fill="#AED581" width="35.74" height="5.034"/>
		<rect x="948.141" y="216.54" fill="#AED581" width="29.699" height="5.034"/>
		<rect x="948.141" y="224.589" fill="#AED581" width="29.699" height="5.033"/>
		<rect x="948.141" y="232.644" fill="#AED581" width="25.672" height="5.034"/>
		<rect x="948.141" y="240.7" fill="#AED581" width="25.672" height="5.034"/>
		<rect x="948.141" y="249.26" fill="#AED581" width="29.699" height="5.033"/>
		<rect x="948.141" y="258.069" fill="#AED581" width="34.986" height="5.033"/>
		<rect x="948.141" y="265.62" fill="#AED581" width="34.986" height="5.035"/>
		<rect x="988.221" y="207.98" fill="#AED581" width="1.748" height="5.034"/>
		<rect x="988.221" y="215.988" fill="#AED581" width="1.748" height="5.034"/>
		<rect x="988.221" y="224.173" fill="#AED581" width="1.748" height="5.033"/>
		<rect x="988.221" y="231.829" fill="#AED581" width="1.748" height="5.033"/>
		<rect x="988.221" y="240.196" fill="#AED581" width="1.748" height="5.034"/>
		<rect x="988.221" y="248.917" fill="#AED581" width="1.748" height="5.033"/>
		<rect x="988.221" y="257.989" fill="#AED581" width="1.748" height="5.033"/>
		<rect x="988.221" y="265.468" fill="#AED581" width="1.748" height="5.034"/>
		<rect x="997.821" y="207.98" fill="#AED581" width="47.488" height="5.034"/>
		<rect x="997.661" y="216.54" fill="#AED581" width="29.701" height="5.034"/>
		<rect x="997.821" y="224.589" fill="#AED581" width="53.193" height="5.033"/>
		<rect x="997.661" y="232.644" fill="#AED581" width="10.189" height="5.034"/>
		<rect x="997.981" y="240.7" fill="#AED581" width="10.012" height="5.034"/>
		<rect x="997.42" y="249.26" fill="#AED581" width="16.354" height="5.033"/>
		<rect x="997.661" y="258.069" fill="#AED581" width="34.986" height="5.033"/>
		<rect x="997.821" y="265.62" fill="#AED581" width="12.916" height="5.035"/>
		<rect x="962.221" y="288.268" fill="#AED581" width="89.352" height="5.034"/>
		<rect x="948.141" y="297.333" fill="#AED581" width="103.447" height="5.033"/>
		<rect x="948.141" y="305.388" fill="#AED581" width="85.072" height="5.034"/>
		<path fill="#42A5F5" d="M936.86,203.196l-16.611,3.523l-40.775,25.674l-19.129-6.544l-35.018,16.931v40.779h115.217v-80.081
			l-3.68-0.283H936.86z"/>
		<path fill="#E91E63" d="M1117.022,200.18l-30.707,77.524l29.496,34.551h19.143v-99.376l-17.932-12.702V200.18z"/>
		<path fill="#EC407A" d="M1067.182,218.803l-7.33,8.342v85.112h68.006l-60.676-93.448V218.803z"/>
		<path fill="#42A5F5" d="M849.604,294.669l-3.584,0.76l-8.795,5.538l-4.127-1.411l-7.553,3.652v8.797h24.852v-17.275
			L849.604,294.669L849.604,294.669z"/>
		<path fill="#42A5F5" d="M867.485,294.188l-12.291,8.262v9.892h25.514v-11.753L867.485,294.188L867.485,294.188z"/>
		<path fill="#42A5F5" d="M910.62,290.461l-12.918,8.38h-3.775c0,0-4.691,2.422-8.816,4.494v9.003h25.512v-21.877H910.62z"/>
		<path fill="#4CAF50" d="M1134.942,118.692l-23.975,7.992l-68.461,6.041l-58.898-7.551l-53.359,11.075l-37.252-12.082
			l-67.738,14.725v20.834h309.682v-41.035L1134.942,118.692z"/>
	</g>
</g>
</svg>
